<?plantuml 1.2026.2?><svg xmlns="http://www.w3.org/2000/svg" xmlns:xlink="http://www.w3.org/1999/xlink" contentStyleType="text/css" data-diagram-type="DESCRIPTION" height="853px" preserveAspectRatio="none" style="width:3222px;height:853px;background:#FFFFFF;" version="1.1" viewBox="0 0 3222 853" width="3222px" zoomAndPan="magnify"><title>RawBin Sprint 2 &#8212; Identity &amp; SSH Use Cases</title><defs><filter height="1" id="bfggmth09p9av0" width="1" x="0" y="0"><feFlood flood-color="#90EE90" result="flood"/><feComposite in="SourceGraphic" in2="flood" operator="over"/></filter><filter height="1" id="bfggmth09p9av1" width="1" x="0" y="0"><feFlood flood-color="#FFFFE0" result="flood"/><feComposite in="SourceGraphic" in2="flood" operator="over"/></filter><filter height="1" id="bfggmth09p9av2" width="1" x="0" y="0"><feFlood flood-color="#ADD8E6" result="flood"/><feComposite in="SourceGraphic" in2="flood" operator="over"/></filter></defs><g><g class="title" data-source-line="10"><text fill="#000000" font-family="Verdana" font-size="22" font-weight="bold" lengthAdjust="spacing" textLength="551.4287" x="1331.0106" y="37.1182">RawBin Sprint 2 &#8212; Identity &amp; SSH Use Cases</text></g><!--cluster T7: Profile Editor--><g class="cluster" data-qualified-name="T7. Profile Editor" data-source-line="16" id="ent0005"><rect fill="#FFFFFF" height="142.55" rx="2.5" ry="2.5" style="stroke:#000000;stroke-width:1;" width="994" x="88.45" y="216.7673"/><text fill="#000000" font-family="Verdana" font-size="14" font-weight="bold" lengthAdjust="spacing" textLength="133.3965" x="518.7518" y="232.8425">T7: Profile Editor</text></g><!--cluster T8: Profile Gate--><g class="cluster" data-qualified-name="T8. Profile Gate" data-source-line="23" id="ent0010"><rect fill="#FFFFFF" height="141.65" rx="2.5" ry="2.5" style="stroke:#000000;stroke-width:1;" width="700" x="1511.45" y="217.2173"/><text fill="#000000" font-family="Verdana" font-size="14" font-weight="bold" lengthAdjust="spacing" textLength="122.6914" x="1800.1043" y="233.2925">T8: Profile Gate</text></g><!--cluster T9: SSH Keys--><g class="cluster" data-qualified-name="T9. SSH Keys" data-source-line="29" id="ent0014"><rect fill="#FFFFFF" height="138.49" rx="2.5" ry="2.5" style="stroke:#000000;stroke-width:1;" width="654" x="2562.45" y="218.7973"/><text fill="#000000" font-family="Verdana" font-size="14" font-weight="bold" lengthAdjust="spacing" textLength="103.8242" x="2837.5379" y="234.8725">T9: SSH Keys</text></g><!--cluster T10: Device Enrollment--><g class="cluster" data-qualified-name="T10. Device Enrollment" data-source-line="35" id="ent0018"><rect fill="#FFFFFF" height="143.25" rx="2.5" ry="2.5" style="stroke:#000000;stroke-width:1;" width="1135" x="1714.45" y="419.0573"/><text fill="#000000" font-family="Verdana" font-size="14" font-weight="bold" lengthAdjust="spacing" textLength="183.1279" x="2190.386" y="435.1325">T10: Device Enrollment</text></g><!--cluster T11: vCard--><g class="cluster" data-qualified-name="T11. vCard" data-source-line="43" id="ent0024"><rect fill="#FFFFFF" height="138.5" rx="2.5" ry="2.5" style="stroke:#000000;stroke-width:1;" width="655" x="172.45" y="421.4273"/><text fill="#000000" font-family="Verdana" font-size="14" font-weight="bold" lengthAdjust="spacing" textLength="85.1963" x="457.3519" y="437.5025">T11: vCard</text></g><!--cluster T12: SSH Login--><g class="cluster" data-qualified-name="T12. SSH Login" data-source-line="49" id="ent0028"><rect fill="#FFFFFF" height="137.33" rx="2.5" ry="2.5" style="stroke:#000000;stroke-width:1;" width="868" x="916.45" y="611.3073"/><text fill="#000000" font-family="Verdana" font-size="14" font-weight="bold" lengthAdjust="spacing" textLength="119.3486" x="1290.7757" y="627.3825">T12: SSH Login</text></g><!--entity UC_P1--><g class="entity" data-qualified-name="T7. Profile Editor.UC_P1" data-source-line="17" id="ent0006"><ellipse cx="709.448" cy="308.0352" fill="#FFFFE0" rx="121.958" ry="35.1379" style="stroke:#000000;stroke-width:1;"/><text fill="#000000" font-family="Verdana" font-size="14" font-style="italic" lengthAdjust="spacing" textLength="46.7031" x="686.0964" y="290.0372">&#171;new&#187;</text><text fill="#000000" font-family="Verdana" font-size="14" lengthAdjust="spacing" textLength="164.7324" x="627.0818" y="307.0519">UC-P1: Edit own profile</text><text fill="#000000" font-family="Verdana" font-size="14" lengthAdjust="spacing" textLength="188.9385" x="614.9787" y="324.0665">(name, phone, url, avatar)</text></g><!--entity UC_P2--><g class="entity" data-qualified-name="T7. Profile Editor.UC_P2" data-source-line="18" id="ent0007"><ellipse cx="220.447" cy="308.0387" fill="#FFFFE0" rx="115.557" ry="25.5114" style="stroke:#000000;stroke-width:1;"/><text fill="#000000" font-family="Verdana" font-size="14" font-style="italic" lengthAdjust="spacing" textLength="46.7031" x="197.0955" y="299.5317">&#171;new&#187;</text><text fill="#000000" font-family="Verdana" font-size="14" lengthAdjust="spacing" textLength="190.415" x="125.2395" y="316.5464">UC-P2: Update secret code</text></g><!--entity UC_P3--><g class="entity" data-qualified-name="T7. Profile Editor.UC_P3" data-source-line="19" id="ent0008"><ellipse cx="461.4516" cy="308.0333" fill="#FFFFE0" rx="90.6816" ry="35.276" style="stroke:#000000;stroke-width:1;"/><text fill="#000000" font-family="Verdana" font-size="14" font-style="italic" lengthAdjust="spacing" textLength="46.7031" x="438.1" y="290.4376">&#171;new&#187;</text><text fill="#000000" font-family="Verdana" font-size="14" lengthAdjust="spacing" textLength="138.667" x="392.1181" y="307.4523">UC-P3: Save profile</text><text fill="#000000" font-family="Verdana" font-size="14" lengthAdjust="spacing" textLength="137.9219" x="392.4907" y="324.4669">(UPDATE_PROFILE)</text></g><!--entity UC_P4--><g class="entity" data-qualified-name="T7. Profile Editor.UC_P4" data-source-line="20" id="ent0009"><ellipse cx="966.4527" cy="308.0389" fill="#FFFFE0" rx="100.3327" ry="32.9816" style="stroke:#000000;stroke-width:1;"/><text fill="#000000" font-family="Verdana" font-size="14" font-style="italic" lengthAdjust="spacing" textLength="46.7031" x="943.1011" y="292.4476">&#171;new&#187;</text><text fill="#000000" font-family="Verdana" font-size="14" lengthAdjust="spacing" textLength="165.71" x="883.5977" y="309.4622">UC-P4: View other user</text><text fill="#000000" font-family="Verdana" font-size="14" lengthAdjust="spacing" textLength="132.6855" x="900.1099" y="326.4769">(GET_USER_INFO)</text></g><!--entity UC_G1--><g class="entity" data-qualified-name="T8. Profile Gate.UC_G1" data-source-line="24" id="ent0011"><ellipse cx="1629.4452" cy="308.0385" fill="#FFFFE0" rx="102.4352" ry="34.8211" style="stroke:#000000;stroke-width:1;"/><text fill="#000000" font-family="Verdana" font-size="14" font-style="italic" lengthAdjust="spacing" textLength="46.7031" x="1606.0937" y="290.6219">&#171;new&#187;</text><text fill="#000000" font-family="Verdana" font-size="14" lengthAdjust="spacing" textLength="159.5029" x="1549.6938" y="307.6365">UC-G1: Gate new user</text><text fill="#000000" font-family="Verdana" font-size="14" lengthAdjust="spacing" textLength="154.1094" x="1552.3905" y="324.6512">(force profile commit)</text></g><!--entity UC_G2--><g class="entity" data-qualified-name="T8. Profile Gate.UC_G2" data-source-line="25" id="ent0012"><ellipse cx="2085.4519" cy="308.0366" fill="#FFFFE0" rx="109.9419" ry="33.6093" style="stroke:#000000;stroke-width:1;"/><text fill="#000000" font-family="Verdana" font-size="14" font-style="italic" lengthAdjust="spacing" textLength="46.7031" x="2062.1003" y="291.6806">&#171;new&#187;</text><text fill="#000000" font-family="Verdana" font-size="14" lengthAdjust="spacing" textLength="178.3359" x="1996.2839" y="308.6952">UC-G2: Block room entry</text><text fill="#000000" font-family="Verdana" font-size="14" lengthAdjust="spacing" textLength="154.458" x="2008.2229" y="325.7099">(uncommitted profile)</text></g><!--entity UC_G3--><g class="entity" data-qualified-name="T8. Profile Gate.UC_G3" data-source-line="26" id="ent0013"><ellipse cx="1853.4491" cy="308.0362" fill="#FFFFE0" rx="86.9991" ry="31.9589" style="stroke:#000000;stroke-width:1;"/><text fill="#000000" font-family="Verdana" font-size="14" font-style="italic" lengthAdjust="spacing" textLength="46.7031" x="1830.0975" y="293.7335">&#171;new&#187;</text><text fill="#000000" font-family="Verdana" font-size="14" lengthAdjust="spacing" textLength="148.0596" x="1779.4193" y="310.7481">UC-G3: Skip gate for</text><text fill="#000000" font-family="Verdana" font-size="14" lengthAdjust="spacing" textLength="100.3379" x="1803.2802" y="327.7628">returning user</text></g><!--entity UC_K1--><g class="entity" data-qualified-name="T9. SSH Keys.UC_K1" data-source-line="30" id="ent0015"><ellipse cx="2674.4478" cy="308.0376" fill="#ADD8E6" rx="95.5878" ry="33.2403" style="stroke:#000000;stroke-width:1;"/><text fill="#000000" font-family="Verdana" font-size="14" font-style="italic" lengthAdjust="spacing" textLength="49.6904" x="2649.6026" y="292.4211">&#171;auth&#187;</text><text fill="#000000" font-family="Verdana" font-size="14" lengthAdjust="spacing" textLength="156.2832" x="2596.3062" y="309.4357">UC-K1: Generate user</text><text fill="#000000" font-family="Verdana" font-size="14" lengthAdjust="spacing" textLength="127.6133" x="2610.6412" y="326.4504">RSA-2048 keypair</text></g><!--entity UC_K2--><g class="entity" data-qualified-name="T9. SSH Keys.UC_K2" data-source-line="31" id="ent0016"><ellipse cx="2889.4466" cy="308.0333" fill="#ADD8E6" rx="83.9666" ry="32.016" style="stroke:#000000;stroke-width:1;"/><text fill="#000000" font-family="Verdana" font-size="14" font-style="italic" lengthAdjust="spacing" textLength="49.6904" x="2864.6014" y="293.9318">&#171;auth&#187;</text><text fill="#000000" font-family="Verdana" font-size="14" lengthAdjust="spacing" textLength="142.4336" x="2818.2298" y="310.9465">UC-K2: Create .ssh/</text><text fill="#000000" font-family="Verdana" font-size="14" lengthAdjust="spacing" textLength="95.5391" x="2841.677" y="327.9611">directory tree</text></g><!--entity UC_K3--><g class="entity" data-qualified-name="T9. SSH Keys.UC_K3" data-source-line="32" id="ent0017"><ellipse cx="3104.4496" cy="308.0335" fill="#ADD8E6" rx="96.4796" ry="31.8661" style="stroke:#000000;stroke-width:1;"/><text fill="#000000" font-family="Verdana" font-size="14" font-style="italic" lengthAdjust="spacing" textLength="49.6904" x="3079.6044" y="293.7202">&#171;auth&#187;</text><text fill="#000000" font-family="Verdana" font-size="14" lengthAdjust="spacing" textLength="165.2998" x="3021.7997" y="310.7348">UC-K3: Store PEM keys</text><text fill="#000000" font-family="Verdana" font-size="14" lengthAdjust="spacing" textLength="111.1045" x="3048.8974" y="327.7495">(OOSH pattern)</text></g><!--entity UC_D1--><g class="entity" data-qualified-name="T10. Device Enrollment.UC_D1" data-source-line="36" id="ent0019"><ellipse cx="2301.4475" cy="510.6728" fill="#ADD8E6" rx="107.3775" ry="30.3555" style="stroke:#000000;stroke-width:1;"/><text fill="#000000" font-family="Verdana" font-size="14" font-style="italic" lengthAdjust="spacing" textLength="49.6904" x="2276.6023" y="497.6182">&#171;auth&#187;</text><text fill="#000000" font-family="Verdana" font-size="14" lengthAdjust="spacing" textLength="194.7627" x="2204.0661" y="514.6329">UC-D1: Request enrollment</text><text fill="#000000" font-family="Verdana" font-size="14" lengthAdjust="spacing" textLength="93.249" x="2254.823" y="531.6475">(secret code)</text></g><!--entity UC_D2--><g class="entity" data-qualified-name="T10. Device Enrollment.UC_D2" data-source-line="37" id="ent0020"><ellipse cx="2065.4473" cy="510.6798" fill="#ADD8E6" rx="93.5073" ry="29.9025" style="stroke:#000000;stroke-width:1;"/><text fill="#000000" font-family="Verdana" font-size="14" font-style="italic" lengthAdjust="spacing" textLength="49.6904" x="2040.6021" y="498.6725">&#171;auth&#187;</text><text fill="#000000" font-family="Verdana" font-size="14" lengthAdjust="spacing" textLength="171.7256" x="1979.5845" y="515.6872">UC-D2: Generate device</text><text fill="#000000" font-family="Verdana" font-size="14" lengthAdjust="spacing" textLength="51.8574" x="2039.5186" y="532.7018">keypair</text></g><!--entity UC_D3--><g class="entity" data-qualified-name="T10. Device Enrollment.UC_D3" data-source-line="38" id="ent0021"><ellipse cx="2544.446" cy="510.6817" fill="#ADD8E6" rx="100.356" ry="32.5944" style="stroke:#000000;stroke-width:1;"/><text fill="#000000" font-family="Verdana" font-size="14" font-style="italic" lengthAdjust="spacing" textLength="49.6904" x="2519.6007" y="495.5819">&#171;auth&#187;</text><text fill="#000000" font-family="Verdana" font-size="14" lengthAdjust="spacing" textLength="167.918" x="2460.487" y="512.5965">UC-D3: Sign device key</text><text fill="#000000" font-family="Verdana" font-size="14" lengthAdjust="spacing" textLength="127.0254" x="2480.9333" y="529.6112">(user private key)</text></g><!--entity UC_D4--><g class="entity" data-qualified-name="T10. Device Enrollment.UC_D4" data-source-line="39" id="ent0022"><ellipse cx="2756.4493" cy="510.6823" fill="#ADD8E6" rx="76.8093" ry="35.625" style="stroke:#000000;stroke-width:1;"/><text fill="#000000" font-family="Verdana" font-size="14" font-style="italic" lengthAdjust="spacing" textLength="49.6904" x="2731.6041" y="493.4759">&#171;auth&#187;</text><text fill="#000000" font-family="Verdana" font-size="14" lengthAdjust="spacing" textLength="103.2979" x="2704.8004" y="510.4905">UC-D4: Add to</text><text fill="#000000" font-family="Verdana" font-size="14" lengthAdjust="spacing" textLength="115.4795" x="2698.7095" y="527.5052">authorized_keys</text></g><!--entity UC_D5--><g class="entity" data-qualified-name="T10. Device Enrollment.UC_D5" data-source-line="40" id="ent0023"><ellipse cx="1833.4494" cy="510.6754" fill="#ADD8E6" rx="102.9994" ry="31.0281" style="stroke:#000000;stroke-width:1;"/><text fill="#000000" font-family="Verdana" font-size="14" font-style="italic" lengthAdjust="spacing" textLength="49.6904" x="1808.6042" y="497.0408">&#171;auth&#187;</text><text fill="#000000" font-family="Verdana" font-size="14" lengthAdjust="spacing" textLength="182.1162" x="1742.3913" y="514.0555">UC-D5: Store device keys</text><text fill="#000000" font-family="Verdana" font-size="14" lengthAdjust="spacing" textLength="104.5352" x="1781.1818" y="531.0701">in localStorage</text></g><!--entity UC_V1--><g class="entity" data-qualified-name="T11. vCard.UC_V1" data-source-line="44" id="ent0025"><ellipse cx="717.4515" cy="510.6776" fill="#FFFFE0" rx="93.5715" ry="30.7103" style="stroke:#000000;stroke-width:1;"/><text fill="#000000" font-family="Verdana" font-size="14" font-style="italic" lengthAdjust="spacing" textLength="46.7031" x="694.0999" y="497.4188">&#171;new&#187;</text><text fill="#000000" font-family="Verdana" font-size="14" lengthAdjust="spacing" textLength="166.8379" x="634.0325" y="514.4334">UC-V1: View other user</text><text fill="#000000" font-family="Verdana" font-size="14" lengthAdjust="spacing" textLength="87.4111" x="673.7459" y="531.4481">profile sheet</text></g><!--entity UC_V2--><g class="entity" data-qualified-name="T11. vCard.UC_V2" data-source-line="45" id="ent0026"><ellipse cx="282.4514" cy="510.6762" fill="#FFFFE0" rx="94.2714" ry="30.1989" style="stroke:#000000;stroke-width:1;"/><text fill="#000000" font-family="Verdana" font-size="14" font-style="italic" lengthAdjust="spacing" textLength="46.7031" x="259.0998" y="497.8972">&#171;new&#187;</text><text fill="#000000" font-family="Verdana" font-size="14" lengthAdjust="spacing" textLength="171.2881" x="196.8073" y="514.9119">UC-V2: Download vCard</text><text fill="#000000" font-family="Verdana" font-size="14" lengthAdjust="spacing" textLength="75.6943" x="244.6042" y="531.9265">(.vcf V3.0)</text></g><!--entity UC_V3--><g class="entity" data-qualified-name="T11. vCard.UC_V3" data-source-line="46" id="ent0027"><ellipse cx="500.4492" cy="510.6771" fill="#90EE90" rx="88.6692" ry="33.2498" style="stroke:#000000;stroke-width:1;"/><text fill="#000000" font-family="Verdana" font-size="14" font-style="italic" lengthAdjust="spacing" textLength="52.4658" x="474.2163" y="495.395">&#171;done&#187;</text><text fill="#000000" font-family="Verdana" font-size="14" lengthAdjust="spacing" textLength="144.5596" x="428.1694" y="512.4097">UC-V3: Link account</text><text fill="#000000" font-family="Verdana" font-size="14" lengthAdjust="spacing" textLength="116.0947" x="442.4018" y="529.4243">(CONSOLIDATE)</text></g><!--entity UC_A1--><g class="entity" data-qualified-name="T12. SSH Login.UC_A1" data-source-line="50" id="ent0029"><ellipse cx="1029.4498" cy="699.9677" fill="#ADD8E6" rx="97.1698" ry="32.4804" style="stroke:#000000;stroke-width:1;"/><text fill="#000000" font-family="Verdana" font-size="14" font-style="italic" lengthAdjust="spacing" textLength="49.6904" x="1004.6046" y="685.0465">&#171;auth&#187;</text><text fill="#000000" font-family="Verdana" font-size="14" lengthAdjust="spacing" textLength="163.0508" x="947.9244" y="702.0611">UC-A1: Send challenge</text><text fill="#000000" font-family="Verdana" font-size="14" lengthAdjust="spacing" textLength="120.873" x="969.0133" y="719.0758">nonce (welcome)</text></g><!--entity UC_A2--><g class="entity" data-qualified-name="T12. SSH Login.UC_A2" data-source-line="51" id="ent0030"><ellipse cx="1677.4491" cy="699.97" fill="#ADD8E6" rx="91.0691" ry="31.3527" style="stroke:#000000;stroke-width:1;"/><text fill="#000000" font-family="Verdana" font-size="14" font-style="italic" lengthAdjust="spacing" textLength="49.6904" x="1652.6039" y="686.2836">&#171;auth&#187;</text><text fill="#000000" font-family="Verdana" font-size="14" lengthAdjust="spacing" textLength="158.5527" x="1598.1727" y="703.2982">UC-A2: Sign challenge</text><text fill="#000000" font-family="Verdana" font-size="14" lengthAdjust="spacing" textLength="95.3135" x="1629.7924" y="720.3129">(Web Crypto)</text></g><!--entity UC_A3--><g class="entity" data-qualified-name="T12. SSH Login.UC_A3" data-source-line="52" id="ent0031"><ellipse cx="1262.4515" cy="699.9626" fill="#ADD8E6" rx="100.5215" ry="32.6652" style="stroke:#000000;stroke-width:1;"/><text fill="#000000" font-family="Verdana" font-size="14" font-style="italic" lengthAdjust="spacing" textLength="49.6904" x="1237.6063" y="684.7908">&#171;auth&#187;</text><text fill="#000000" font-family="Verdana" font-size="14" lengthAdjust="spacing" textLength="167.8018" x="1178.5506" y="701.8055">UC-A3: Verify signature</text><text fill="#000000" font-family="Verdana" font-size="14" lengthAdjust="spacing" textLength="128.1943" x="1198.3543" y="718.8201">(authorized_keys)</text></g><!--entity UC_A4--><g class="entity" data-qualified-name="T12. SSH Login.UC_A4" data-source-line="53" id="ent0032"><ellipse cx="1474.4501" cy="699.9702" fill="#90EE90" rx="76.6601" ry="31.5029" style="stroke:#000000;stroke-width:1;"/><text fill="#000000" font-family="Verdana" font-size="14" font-style="italic" lengthAdjust="spacing" textLength="52.4658" x="1448.2172" y="686.8508">&#171;done&#187;</text><text fill="#000000" font-family="Verdana" font-size="14" lengthAdjust="spacing" textLength="131.9131" x="1408.4936" y="703.8654">UC-A4: Fallback to</text><text fill="#000000" font-family="Verdana" font-size="14" lengthAdjust="spacing" textLength="76.0635" x="1436.4184" y="720.88">token auth</text></g><!--entity User--><g class="entity" data-qualified-name="User" data-source-line="12" id="ent0002"><ellipse cx="709.4448" cy="74.7373" fill="#FFFFFF" rx="16" ry="16" style="stroke:#000000;stroke-width:1;"/><path d="M709.4448,94.7373 C713.4448,94.7373 716.4448,94.7373 720.4448,90.7373 C728.4448,90.7373 736.4448,98.7373 736.4448,106.7373 L736.4448,110.7373 C736.4448,114.7373 732.4448,118.7373 728.4448,118.7373 L690.4448,118.7373 C686.4448,118.7373 682.4448,114.7373 682.4448,110.7373 L682.4448,106.7373 C682.4448,98.7373 690.4448,90.7373 698.4448,90.7373 C702.4448,94.7373 705.4448,94.7373 709.4448,94.7373" fill="#FFFFFF" style="stroke:#000000;stroke-width:1;"/><text fill="#000000" font-family="Verdana" font-size="14" lengthAdjust="spacing" textLength="31.8555" x="674.52" y="133.8125">User</text><text fill="#000000" font-family="Verdana" font-size="14" lengthAdjust="spacing" textLength="69.8496" x="674.52" y="150.8271">(Browser)</text></g><!--entity Device--><g class="entity" data-qualified-name="Device" data-source-line="13" id="ent0003"><ellipse cx="2280.4535" cy="277.0273" fill="#FFFFFF" rx="16" ry="16" style="stroke:#000000;stroke-width:1;"/><path d="M2280.4535,297.0273 C2284.4535,297.0273 2287.4535,297.0273 2291.4535,293.0273 C2299.4535,293.0273 2307.4535,301.0273 2307.4535,309.0273 L2307.4535,313.0273 C2307.4535,317.0273 2303.4535,321.0273 2299.4535,321.0273 L2261.4535,321.0273 C2257.4535,321.0273 2253.4535,317.0273 2253.4535,313.0273 L2253.4535,309.0273 C2253.4535,301.0273 2261.4535,293.0273 2269.4535,293.0273 C2273.4535,297.0273 2276.4535,297.0273 2280.4535,297.0273" fill="#FFFFFF" style="stroke:#000000;stroke-width:1;"/><text fill="#000000" font-family="Verdana" font-size="14" lengthAdjust="spacing" textLength="46.8877" x="2230.64" y="336.1025">Device</text><text fill="#000000" font-family="Verdana" font-size="14" lengthAdjust="spacing" textLength="99.627" x="2230.64" y="353.1171">(localStorage)</text></g><!--entity Server--><g class="entity" data-qualified-name="Server" data-source-line="14" id="ent0004"><ellipse cx="2308.4466" cy="74.7373" fill="#FFFFFF" rx="16" ry="16" style="stroke:#000000;stroke-width:1;"/><path d="M2308.4466,94.7373 C2312.4466,94.7373 2315.4466,94.7373 2319.4466,90.7373 C2327.4466,90.7373 2335.4466,98.7373 2335.4466,106.7373 L2335.4466,110.7373 C2335.4466,114.7373 2331.4466,118.7373 2327.4466,118.7373 L2289.4466,118.7373 C2285.4466,118.7373 2281.4466,114.7373 2281.4466,110.7373 L2281.4466,106.7373 C2281.4466,98.7373 2289.4466,90.7373 2297.4466,90.7373 C2301.4466,94.7373 2304.4466,94.7373 2308.4466,94.7373" fill="#FFFFFF" style="stroke:#000000;stroke-width:1;"/><text fill="#000000" font-family="Verdana" font-size="14" lengthAdjust="spacing" textLength="46.4844" x="2275.47" y="133.8125">Server</text><text fill="#000000" font-family="Verdana" font-size="14" lengthAdjust="spacing" textLength="65.9531" x="2275.47" y="150.8271">(Node.js)</text></g><!--link User to UC_P1--><g class="link" data-entity-1="ent0002" data-entity-2="ent0006" data-link-type="dependency" data-source-line="57" id="lnk33"><path d="M709.45,154.2173 C709.45,190.5373 709.45,233.7873 709.45,266.4473" fill="none" id="User-to-UC_P1" style="stroke:#000000;stroke-width:1;"/><polygon fill="#000000" points="709.45,272.4473,713.45,263.4473,709.45,267.4473,705.45,263.4473,709.45,272.4473" style="stroke:#000000;stroke-width:1;"/></g><!--link User to UC_P2--><g class="link" data-entity-1="ent0002" data-entity-2="ent0007" data-link-type="dependency" data-source-line="58" id="lnk34"><path d="M674.07,112.5573 C608.31,124.2673 463.9,154.3573 353.45,208.7673 C313.27,228.5573 277.211,256.8056 251.621,278.9056" fill="none" id="User-to-UC_P2" style="stroke:#000000;stroke-width:1;"/><polygon fill="#000000" points="247.08,282.8273,256.5059,279.9721,250.8641,279.5592,251.277,273.9175,247.08,282.8273" style="stroke:#000000;stroke-width:1;"/></g><!--link User to UC_P3--><g class="link" data-entity-1="ent0002" data-entity-2="ent0008" data-link-type="dependency" data-source-line="59" id="lnk35"><path d="M674.16,131.1673 C645.61,151.2673 604.69,180.8873 570.45,208.7673 C544.37,230.0073 520.5925,251.38 499.4325,271.07" fill="none" id="User-to-UC_P3" style="stroke:#000000;stroke-width:1;"/><polygon fill="#000000" points="495.04,275.1573,504.3536,271.9546,498.7004,271.7512,498.9038,266.098,495.04,275.1573" style="stroke:#000000;stroke-width:1;"/></g><!--link User to UC_G1--><g class="link" data-entity-1="ent0002" data-entity-2="ent0011" data-link-type="dependency" data-source-line="60" id="lnk36"><path d="M744.63,108.4473 C870.82,114.8673 1300.09,139.5373 1429.45,183.7673 C1490.24,204.5473 1547.1478,242.7937 1585.6178,271.9437" fill="none" id="User-to-UC_G1" style="stroke:#000000;stroke-width:1;"/><polygon fill="#000000" points="1590.4,275.5673,1585.6425,266.9437,1586.4148,272.5476,1580.811,273.32,1590.4,275.5673" style="stroke:#000000;stroke-width:1;"/></g><!--link User to UC_D1--><g class="link" data-entity-1="ent0002" data-entity-2="ent0019" data-link-type="dependency" data-source-line="61" id="lnk37"><path d="M744.69,106.9173 C868.02,108.0573 1278.61,116.9273 1388.45,183.7673 C1472.34,234.8173 1426.38,318.2673 1511.45,367.3173 C1639.75,441.2973 2038.21,357.9373 2176.45,411.0573 C2215.41,426.0273 2247.6619,453.4001 2271.0419,476.8301" fill="none" id="User-to-UC_D1" style="stroke:#000000;stroke-width:1;"/><polygon fill="#000000" points="2275.28,481.0773,2271.7543,471.8811,2271.7482,477.538,2266.0914,477.532,2275.28,481.0773" style="stroke:#000000;stroke-width:1;"/></g><!--link User to UC_V1--><g class="link" data-entity-1="ent0002" data-entity-2="ent0025" data-link-type="dependency" data-source-line="62" id="lnk38"><path d="M744.85,111.0073 C829.75,122.0273 1041,154.4673 1082.45,208.7673 C1125.2,264.7873 1122.21,309.1373 1082.45,367.3173 C1021.24,456.8873 900.5604,489.2639 813.7904,501.5839" fill="none" id="User-to-UC_V1" style="stroke:#000000;stroke-width:1;"/><polygon fill="#000000" points="807.85,502.4273,817.3229,505.1224,812.8004,501.7244,816.1983,497.2019,807.85,502.4273" style="stroke:#000000;stroke-width:1;"/></g><!--link User to UC_V2--><g class="link" data-entity-1="ent0002" data-entity-2="ent0026" data-link-type="dependency" data-source-line="63" id="lnk39"><path d="M674.18,106.3773 C577.94,106.3673 303.73,113.0273 90.45,183.7673 C69.1,190.8473 57.76,189.3273 46.45,208.7673 C11,269.6673 11.8,305.9573 46.45,367.3173 C82.09,430.4473 152.5704,466.6418 208.7704,487.3618" fill="none" id="User-to-UC_V2" style="stroke:#000000;stroke-width:1;"/><polygon fill="#000000" points="214.4,489.4373,207.3393,482.571,209.7087,487.7077,204.5719,490.0771,214.4,489.4373" style="stroke:#000000;stroke-width:1;"/></g><!--link User to UC_V3--><g class="link" data-entity-1="ent0002" data-entity-2="ent0027" data-link-type="dependency" data-source-line="64" id="lnk40"><path d="M674.3,106.8573 C554.41,108.0373 164.82,118.8173 88.45,208.7673 C42.84,262.4773 42.28,314.0773 88.45,367.3173 C133.45,419.2173 332.47,381.4473 394.45,411.0573 C427.11,426.6573 452.6491,451.3757 472.1691,473.9857" fill="none" id="User-to-UC_V3" style="stroke:#000000;stroke-width:1;"/><polygon fill="#000000" points="476.09,478.5273,473.2363,469.1009,472.8226,474.7426,467.1809,474.3288,476.09,478.5273" style="stroke:#000000;stroke-width:1;"/></g><!--link User to UC_A2--><g class="link" data-entity-1="ent0002" data-entity-2="ent0030" data-link-type="dependency" data-source-line="65" id="lnk41"><path d="M744.67,109.5873 C840.83,117.7773 1105.74,143.4973 1182.45,183.7673 C1300.92,245.9573 1567.486,564.6173 1649.566,664.7373" fill="none" id="User-to-UC_A2" style="stroke:#000000;stroke-width:1;"/><polygon fill="#000000" points="1653.37,669.3773,1650.7574,659.8813,1650.2,665.5106,1644.5707,664.9532,1653.37,669.3773" style="stroke:#000000;stroke-width:1;"/></g><!--link Device to UC_D5--><g class="link" data-entity-1="ent0003" data-entity-2="ent0023" data-link-type="dependency" data-source-line="68" id="lnk42"><path d="M2230.14,356.4873 C2224.13,360.6173 2217.85,364.3473 2211.45,367.3173 C2158.91,391.7273 2007.2,387.1073 1954.45,411.0573 C1917.93,427.6373 1887.4447,453.7768 1864.6347,476.4568" fill="none" id="Device-to-UC_D5" style="stroke:#000000;stroke-width:1;"/><polygon fill="#000000" points="1860.38,480.6873,1869.5825,477.1781,1863.9256,477.1619,1863.9418,471.5051,1860.38,480.6873" style="stroke:#000000;stroke-width:1;"/></g><!--link Device to UC_A2--><g class="link" data-entity-1="ent0003" data-entity-2="ent0030" data-link-type="dependency" data-source-line="69" id="lnk43"><path d="M2231.2,356.5473 C2224.9,360.7773 2218.27,364.5173 2211.45,367.3173 C2108.9,409.4673 1794.07,333.9073 1714.45,411.0573 C1644.23,479.0873 1658.0574,603.4652 1669.4174,662.5652" fill="none" id="Device-to-UC_A2" style="stroke:#000000;stroke-width:1;"/><polygon fill="#000000" points="1670.55,668.4573,1672.7792,658.8641,1669.6062,663.5472,1664.9231,660.3741,1670.55,668.4573" style="stroke:#000000;stroke-width:1;"/></g><!--link Server to UC_G2--><g class="link" data-entity-1="ent0004" data-entity-2="ent0012" data-link-type="dependency" data-source-line="72" id="lnk44"><path d="M2275.06,136.7373 C2233.39,174.1673 2166.9135,233.8677 2124.6335,271.8477" fill="none" id="Server-to-UC_G2" style="stroke:#000000;stroke-width:1;"/><polygon fill="#000000" points="2120.17,275.8573,2129.5384,272.8186,2123.8896,272.516,2124.1923,266.8672,2120.17,275.8573" style="stroke:#000000;stroke-width:1;"/></g><!--link Server to UC_G3--><g class="link" data-entity-1="ent0004" data-entity-2="ent0013" data-link-type="dependency" data-source-line="73" id="lnk45"><path d="M2275.08,111.1773 C2210.37,120.8773 2064.85,148.1273 1958.45,208.7673 C1927.21,226.5673 1901.9044,250.978 1882.2344,272.828" fill="none" id="Server-to-UC_G3" style="stroke:#000000;stroke-width:1;"/><polygon fill="#000000" points="1878.22,277.2873,1887.2144,273.2747,1881.5653,273.5713,1881.2687,267.9222,1878.22,277.2873" style="stroke:#000000;stroke-width:1;"/></g><!--link Server to UC_K1--><g class="link" data-entity-1="ent0004" data-entity-2="ent0015" data-link-type="dependency" data-source-line="74" id="lnk46"><path d="M2341.58,112.0573 C2390.4,120.9873 2483.21,142.2373 2551.45,183.7673 C2591.22,207.9673 2623.8523,243.0221 2646.5723,270.8121" fill="none" id="Server-to-UC_K1" style="stroke:#000000;stroke-width:1;"/><polygon fill="#000000" points="2650.37,275.4573,2647.7702,265.9578,2647.2053,271.5863,2641.5767,271.0214,2650.37,275.4573" style="stroke:#000000;stroke-width:1;"/></g><!--link Server to UC_K2--><g class="link" data-entity-1="ent0004" data-entity-2="ent0016" data-link-type="dependency" data-source-line="75" id="lnk47"><path d="M2341.64,107.6373 C2422.62,111.0473 2634.83,127.6873 2787.45,208.7673 C2818.94,225.4973 2843.606,250.2156 2862.436,272.4856" fill="none" id="Server-to-UC_K2" style="stroke:#000000;stroke-width:1;"/><polygon fill="#000000" points="2866.31,277.0673,2863.5535,267.6121,2863.0817,273.2492,2857.4445,272.7774,2866.31,277.0673" style="stroke:#000000;stroke-width:1;"/></g><!--link Server to UC_K3--><g class="link" data-entity-1="ent0004" data-entity-2="ent0017" data-link-type="dependency" data-source-line="76" id="lnk48"><path d="M2341.64,109.2673 C2461.62,118.7273 2871.97,154.4373 2990.45,208.7673 C3025.13,224.6673 3053.2188,250.0271 3074.4888,272.6371" fill="none" id="Server-to-UC_K3" style="stroke:#000000;stroke-width:1;"/><polygon fill="#000000" points="3078.6,277.0073,3075.3467,267.7113,3075.174,273.3655,3069.5198,273.1928,3078.6,277.0073" style="stroke:#000000;stroke-width:1;"/></g><!--link Server to UC_D2--><g class="link" data-entity-1="ent0004" data-entity-2="ent0020" data-link-type="dependency" data-source-line="77" id="lnk49"><path d="M2334.6,153.9173 C2362.1,210.5873 2395.28,305.7173 2347.45,367.3173 C2299.34,429.2773 2245.72,374.2473 2176.45,411.0573 C2142.76,428.9573 2115.0227,454.7492 2094.1627,477.0092" fill="none" id="Server-to-UC_D2" style="stroke:#000000;stroke-width:1;"/><polygon fill="#000000" points="2090.06,481.3873,2099.1328,477.5553,2093.4789,477.7389,2093.2954,472.085,2090.06,481.3873" style="stroke:#000000;stroke-width:1;"/></g><!--link Server to UC_D3--><g class="link" data-entity-1="ent0004" data-entity-2="ent0021" data-link-type="dependency" data-source-line="78" id="lnk50"><path d="M2341.71,125.6673 C2363.43,139.4273 2391.06,159.7973 2409.45,183.7673 C2473.57,267.3573 2458.97,305.7973 2499.45,403.0573 C2509.95,428.2873 2519.6466,451.2738 2528.6366,472.4638" fill="none" id="Server-to-UC_D3" style="stroke:#000000;stroke-width:1;"/><polygon fill="#000000" points="2530.98,477.9873,2531.1473,468.1399,2529.0272,473.3844,2523.7826,471.2644,2530.98,477.9873" style="stroke:#000000;stroke-width:1;"/></g><!--link Server to UC_D4--><g class="link" data-entity-1="ent0004" data-entity-2="ent0022" data-link-type="dependency" data-source-line="79" id="lnk51"><path d="M2341.76,117.7673 C2381.14,132.4473 2446.04,162.1273 2483.45,208.7673 C2540.34,279.6873 2475.68,347.2373 2547.45,403.0573 C2567.67,418.7873 2639.27,400.1573 2662.45,411.0573 C2692.63,425.2473 2714.5154,448.9009 2731.2954,471.6209" fill="none" id="Server-to-UC_D4" style="stroke:#000000;stroke-width:1;"/><polygon fill="#000000" points="2734.86,476.4473,2732.7308,466.8314,2731.8895,472.4253,2726.2956,471.5841,2734.86,476.4473" style="stroke:#000000;stroke-width:1;"/></g><!--link Server to UC_A1--><g class="link" data-entity-1="ent0004" data-entity-2="ent0029" data-link-type="dependency" data-source-line="80" id="lnk52"><path d="M2274.99,107.4273 C2100.18,111.2873 1296.83,133.0873 1219.45,208.7673 C1150.12,276.5773 1066.5656,563.7934 1039.6356,661.4134" fill="none" id="Server-to-UC_A1" style="stroke:#000000;stroke-width:1;"/><polygon fill="#000000" points="1038.04,667.1973,1044.2894,659.5851,1039.3697,662.3773,1036.5774,657.4577,1038.04,667.1973" style="stroke:#000000;stroke-width:1;"/></g><!--link Server to UC_A3--><g class="link" data-entity-1="ent0004" data-entity-2="ent0031" data-link-type="dependency" data-source-line="81" id="lnk53"><path d="M2275.09,106.8273 C2109.46,107.5573 1380.66,114.6673 1310.45,183.7673 C1176.32,315.7873 1228.055,570.9643 1251.825,661.4143" fill="none" id="Server-to-UC_A3" style="stroke:#000000;stroke-width:1;"/><polygon fill="#000000" points="1253.35,667.2173,1254.9311,657.4962,1252.0792,662.3815,1247.1939,659.5295,1253.35,667.2173" style="stroke:#000000;stroke-width:1;"/></g><!--link Server to UC_A4--><g class="link" data-entity-1="ent0004" data-entity-2="ent0032" data-link-type="dependency" data-source-line="82" id="lnk54"><path d="M2275.29,108.5573 C2131.29,116.7373 1565.05,152.2973 1511.45,208.7673 C1388.78,337.9773 1439.9755,576.6331 1463.6355,662.4631" fill="none" id="Server-to-UC_A4" style="stroke:#000000;stroke-width:1;"/><polygon fill="#000000" points="1465.23,668.2473,1466.6944,658.5079,1463.9013,663.4271,1458.9821,660.6339,1465.23,668.2473" style="stroke:#000000;stroke-width:1;"/></g><!--link Server to UC_P4--><g class="link" data-entity-1="ent0004" data-entity-2="ent0009" data-link-type="dependency" data-source-line="83" id="lnk55"><path d="M2275,107.5673 C2091.57,112.1973 1212.14,136.7173 1101.45,183.7673 C1055.15,203.4473 1018.2394,241.3717 993.9394,270.9417" fill="none" id="Server-to-UC_P4" style="stroke:#000000;stroke-width:1;"/><polygon fill="#000000" points="990.13,275.5773,998.9345,271.1636,993.3045,271.7143,992.7537,266.0844,990.13,275.5773" style="stroke:#000000;stroke-width:1;"/></g><!--link UC_P3 to UC_K1--><g class="link" data-entity-1="ent0008" data-entity-2="ent0015" data-link-type="dependency" data-source-line="86" id="lnk56"><path d="M487.37,274.1573 C507.25,251.1373 536.91,222.6173 570.45,209.7273 C621.81,189.9873 2499.52,191.5273 2551.45,209.7273 C2588.86,222.8373 2619.1535,248.3491 2642.0335,271.7291" fill="none" id="UC_P3-to-UC_K1" style="stroke:#000000;stroke-width:1;stroke-dasharray:7,7;"/><polygon fill="#000000" points="2646.23,276.0173,2642.794,266.7872,2642.7329,272.4438,2637.0764,272.3826,2646.23,276.0173" style="stroke:#000000;stroke-width:1;"/><text fill="#000000" font-family="Verdana" font-size="13" lengthAdjust="spacing" textLength="67.2598" x="1318.95" y="197.8371">&#171;triggers&#187;</text></g><!--link UC_G1 to UC_P3--><g class="link" data-entity-1="ent0011" data-entity-2="ent0008" data-link-type="dependency" data-source-line="87" id="lnk57"><path d="M1598.03,274.5273 C1573.88,251.3673 1538.33,222.5173 1500.45,209.7273 C1451.5,193.1973 618.68,191.1973 570.45,209.7273 C536.91,222.6173 511.1716,246.5963 491.2916,269.6163" fill="none" id="UC_G1-to-UC_P3" style="stroke:#000000;stroke-width:1;stroke-dasharray:7,7;"/><polygon fill="#000000" points="487.37,274.1573,496.2798,269.9602,490.638,270.3731,490.2251,264.7314,487.37,274.1573" style="stroke:#000000;stroke-width:1;"/><text fill="#000000" font-family="Verdana" font-size="13" lengthAdjust="spacing" textLength="70.0083" x="1103.45" y="197.8371">&#171;requires&#187;</text></g><!--link UC_K1 to UC_D1--><g class="link" data-entity-1="ent0015" data-entity-2="ent0019" data-link-type="dependency" data-source-line="88" id="lnk58"><path d="M2605.74,331.4773 C2554.57,349.5573 2483.92,377.4473 2426.45,411.0573 C2391.97,431.2173 2361.1022,456.0926 2336.8222,477.3726" fill="none" id="UC_K1-to-UC_D1" style="stroke:#000000;stroke-width:1;stroke-dasharray:7,7;"/><polygon fill="#000000" points="2332.31,481.3273,2341.7148,478.4034,2336.0702,478.0317,2336.4419,472.3871,2332.31,481.3273" style="stroke:#000000;stroke-width:1;"/><text fill="#000000" font-family="Verdana" font-size="13" lengthAdjust="spacing" textLength="66.7202" x="2472.63" y="400.1271">&#171;enables&#187;</text></g><!--link UC_D1 to UC_A2--><g class="link" data-entity-1="ent0019" data-entity-2="ent0030" data-link-type="dependency" data-source-line="89" id="lnk59"><path d="M2251.27,537.8373 C2228.79,548.8573 2201.71,561.2173 2176.45,570.3073 C2031.24,622.5673 1861.024,661.5943 1761.604,682.2943" fill="none" id="UC_D1-to-UC_A2" style="stroke:#000000;stroke-width:1;stroke-dasharray:7,7;"/><polygon fill="#000000" points="1755.73,683.5173,1765.3564,685.5988,1760.625,682.4981,1763.7257,677.7668,1755.73,683.5173" style="stroke:#000000;stroke-width:1;"/><text fill="#000000" font-family="Verdana" font-size="13" lengthAdjust="spacing" textLength="66.7202" x="2151.28" y="592.3771">&#171;enables&#187;</text></g><!--link UC_P4 to UC_V1--><g class="link" data-entity-1="ent0009" data-entity-2="ent0025" data-link-type="dependency" data-source-line="90" id="lnk60"><path d="M929.17,339.0773 C881.28,377.6673 803.4519,440.3825 756.8419,477.9425" fill="none" id="UC_P4-to-UC_V1" style="stroke:#000000;stroke-width:1;stroke-dasharray:7,7;"/><polygon fill="#000000" points="752.17,481.7073,761.6877,479.1747,756.0632,478.57,756.668,472.9456,752.17,481.7073" style="stroke:#000000;stroke-width:1;"/><text fill="#000000" font-family="Verdana" font-size="13" lengthAdjust="spacing" textLength="105.5806" x="865.25" y="400.1271">&#171;provides data&#187;</text></g><g class="legend" data-source-line="92"><rect fill="none" height="82.0586" rx="7.5" ry="7.5" style="stroke:#000000;stroke-width:1;" width="199.6699" x="3003.7801" y="758.6373"/><text fill="#000000" font-family="Verdana" font-size="14" font-weight="bold" lengthAdjust="spacing" textLength="41.0977" x="3013.5652" y="779.7125">Color</text><text fill="#000000" font-family="Verdana" font-size="14" font-weight="bold" lengthAdjust="spacing" textLength="66.4385" x="3064.2332" y="779.7125">Meaning</text><text fill="#000000" font-family="Verdana" font-size="14" lengthAdjust="spacing" textLength="4.9219" x="3008.7801" y="796.7271">&#160;</text><text fill="#000000" filter="url(#bfggmth09p9av0)" font-family="Verdana" font-size="14" lengthAdjust="spacing" textLength="14.7656" x="3013.702" y="796.7271">&#160;&#160;&#160;</text><text fill="#000000" font-family="Verdana" font-size="14" lengthAdjust="spacing" textLength="4.9219" x="3028.4676" y="796.7271">&#160;</text><text fill="#000000" font-family="Verdana" font-size="14" lengthAdjust="spacing" textLength="129.1582" x="3064.3699" y="796.7271">Existing (Sprint 1)</text><text fill="#000000" font-family="Verdana" font-size="14" lengthAdjust="spacing" textLength="4.9219" x="3008.7801" y="813.7418">&#160;</text><text fill="#000000" filter="url(#bfggmth09p9av1)" font-family="Verdana" font-size="14" lengthAdjust="spacing" textLength="14.7656" x="3013.702" y="813.7418">&#160;&#160;&#160;</text><text fill="#000000" font-family="Verdana" font-size="14" lengthAdjust="spacing" textLength="4.9219" x="3028.4676" y="813.7418">&#160;</text><text fill="#000000" font-family="Verdana" font-size="14" lengthAdjust="spacing" textLength="85.5518" x="3064.3699" y="813.7418">New feature</text><text fill="#000000" font-family="Verdana" font-size="14" lengthAdjust="spacing" textLength="4.9219" x="3008.7801" y="830.7564">&#160;</text><text fill="#000000" filter="url(#bfggmth09p9av2)" font-family="Verdana" font-size="14" lengthAdjust="spacing" textLength="14.7656" x="3013.702" y="830.7564">&#160;&#160;&#160;</text><text fill="#000000" font-family="Verdana" font-size="14" lengthAdjust="spacing" textLength="4.9219" x="3028.4676" y="830.7564">&#160;</text><text fill="#000000" font-family="Verdana" font-size="14" lengthAdjust="spacing" textLength="83.4531" x="3064.3699" y="830.7564">Auth/crypto</text><line style="stroke:#000000;stroke-width:1;" x1="3008.7801" x2="3198.45" y1="765.6373" y2="765.6373"/><line style="stroke:#000000;stroke-width:1;" x1="3008.7801" x2="3198.45" y1="782.652" y2="782.652"/><line style="stroke:#000000;stroke-width:1;" x1="3008.7801" x2="3198.45" y1="799.6666" y2="799.6666"/><line style="stroke:#000000;stroke-width:1;" x1="3008.7801" x2="3198.45" y1="816.6813" y2="816.6813"/><line style="stroke:#000000;stroke-width:1;" x1="3008.7801" x2="3198.45" y1="833.6959" y2="833.6959"/><line style="stroke:#000000;stroke-width:1;" x1="3008.7801" x2="3008.7801" y1="765.6373" y2="833.6959"/><line style="stroke:#000000;stroke-width:1;" x1="3059.448" x2="3059.448" y1="765.6373" y2="833.6959"/><line style="stroke:#000000;stroke-width:1;" x1="3198.45" x2="3198.45" y1="765.6373" y2="833.6959"/></g><?plantuml-src TLRRRkCs47tNLqppq6Q1n8alGRT66a2n73UmDpQYH4M1004ZJMJMCgbIj5stkq0_eb_OB-bGLqkEtgIPCuSpXpCalzDBN2F44UF2IbPSn4onDSJCNx4GNRsF41JwceammWC0yxLKcPljC97hG-ScGPyb27zR0BV452gv4S58Hb9TNmTIuCqDp7Yur1E5A3u22TmLcDymYkJk8n3Rw6M1keqsQ7spBCqrfVJ8ThTSW1ihBZJquBz__eNx00Lvz_0zkEuly4pvZIZ9nBBIMk24BEf5dDugkQElJoV04eDIXT_1BVUH497qMUIIZHJAO9ch0BgejYdLWmomytkIOJAhPPLgmidJZqDOAFdEwMSSS0e-IJKhz3jv7fqlkiFK1t8d8Cx0H2tO6iyWNfAOPx1HqHcmBTEiI7lqkkX2BcEJi3U4vpXW6e6i2ZNub6OPrciBwm_1PLiyoE5vuTXFuzV5u_pkVZQkLkwtKGo6u77SWQIcKyPbH9gCdrwVtV7Zw_t3tRmY6PGat-gQVQuqcr0HnufDI37Z0Gel5dcNoYzJfuBNQwxBjIPjKar8gblQxHKeATT0_QFsHBOH6O76eA2ikDhqcnZzLZo6qAH6-Rm8qdwZ11TXccN9q6-h_ATXshbJt2V7LKzDrIXG6VgiwaVNFkzT3Zx32lSnu-KAKrDlDZnD4YfufD1GT99aUV4Y0cuoa6eFccQrPEYrCfWo2O-m67yn2oSas7nEQSUC15EYL6hQhpWQXNOlX_b8mLWe6KLhalwuP8TAViG_DfXesfi2H-iTz7MvdDDQjDCxK2x8XxmXcTDQi6CAvg788qt9faLe0wWt-DPmagbAezzAHDDX1m5e-I8CG2h-5mQlgtIty-11Q_1L8NkL1YbFP-3XOLNoNBLBJvfkHqm5nt9xtG_6jnYfP8ce2twlRQ0yajgXWooIBCYM8QqwM_yTl7xdiXJ9QniYZyIUSR6YwyUdYy3izMZ-uCvdz-OagkADoDazSrHVBnkYcGovEAxHfXfT507uInP5A49g1I452NgwmuZ6lceekxMXx5xU4WSafx_Y6utMFjQoOcXjAflgz53nzpqaHCJed30SZRQeY5gRogQckgCatkZkJ3jBonKACDWoU50JwuVqpgCxFsAQIv4iUPnOgUdy_2QxMEg_lVfll_OxgOET-g_N-ArJUNKgksUIou-5UdgviLZagc788hFxjn6P6ujiUqr3ls6OTfk6PiYq6U8q4SuHOj0msCrLx6Q8tGnP339rOcfU53wdTqrs5NSwUU8mf7tMYeSXgeJsEhluSZS1ZLlHQKe7VkwUbcudYqR1tgB2wvHUwkCZBztVkTVBOkcWsF804w2N1oEC5M5e1asPrnjrxTUV8NtMcOyloD9hyQknmxLftc7rNhm1WEiBOxmXx_XFdcW3FirVUzrFnt7P6x8U-40dsJkcetKSO9wJTRXD8tFXfmDCS9DvLe3rFm00?></g></svg>