<?plantuml 1.2026.2?><svg xmlns="http://www.w3.org/2000/svg" xmlns:xlink="http://www.w3.org/1999/xlink" contentStyleType="text/css" data-diagram-type="SEQUENCE" height="1995px" preserveAspectRatio="none" style="width:1725px;height:1995px;background:#FFFFFF;" version="1.1" viewBox="0 0 1725 1995" width="1725px" zoomAndPan="magnify"><title>File Open &#8594; Edit &#8594; Save &#8594; Conflict Flow</title><defs/><g><text fill="#000000" font-family="Verdana" font-size="22" font-weight="bold" lengthAdjust="spacing" textLength="494.1406" x="614.3171" y="37.1182">File Open &#8594; Edit &#8594; Save &#8594; Conflict Flow</text><rect fill="#FFFFFF" height="300.3618" style="stroke:#000000;stroke-width:1;" width="1693.7749" x="15" y="1596.1226"/><rect fill="#FFFFFF" height="147.5659" style="stroke:none;stroke-width:1;" width="1693.7749" x="15" y="1748.9185"/><g class="participant-lifeline" data-entity-uid="part1" data-qualified-name="U" id="part1-lifeline"><g><title>User</title><rect fill="#000000" fill-opacity="0.00000" height="1782.7324" width="8" x="39.9277" y="130.752"/><line style="stroke:#000000;stroke-width:1;stroke-dasharray:5,5;" x1="43" x2="43" y1="130.752" y2="1913.4844"/></g></g><g class="participant-lifeline" data-entity-uid="part2" data-qualified-name="Tree" id="part2-lifeline"><g><title>rb-file-tree</title><rect fill="#000000" fill-opacity="0.00000" height="1782.7324" width="8" x="190.1001" y="130.752"/><line style="stroke:#000000;stroke-width:1;stroke-dasharray:5,5;" x1="193.8359" x2="193.8359" y1="130.752" y2="1913.4844"/></g></g><g class="participant-lifeline" data-entity-uid="part3" data-qualified-name="Layout" id="part3-lifeline"><g><title>rb-editor-layout</title><rect fill="#000000" fill-opacity="0.00000" height="1782.7324" width="8" x="539.7642" y="130.752"/><line style="stroke:#000000;stroke-width:1;stroke-dasharray:5,5;" x1="542.9077" x2="542.9077" y1="130.752" y2="1913.4844"/></g></g><g class="participant-lifeline" data-entity-uid="part4" data-qualified-name="Editor" id="part4-lifeline"><g><title>rb-code-editor</title><rect fill="#000000" fill-opacity="0.00000" height="1782.7324" width="8" x="817.8267" y="130.752"/><line style="stroke:#000000;stroke-width:1;stroke-dasharray:5,5;" x1="821.2476" x2="821.2476" y1="130.752" y2="1913.4844"/></g></g><g class="participant-lifeline" data-entity-uid="part5" data-qualified-name="Preview" id="part5-lifeline"><g><title>rb-preview</title><rect fill="#000000" fill-opacity="0.00000" height="1782.7324" width="8" x="1155.2271" y="130.752"/><line style="stroke:#000000;stroke-width:1;stroke-dasharray:5,5;" x1="1159.2192" x2="1159.2192" y1="130.752" y2="1913.4844"/></g></g><g class="participant-lifeline" data-entity-uid="part6" data-qualified-name="API" id="part6-lifeline"><g><title>FileApi</title><rect fill="#000000" fill-opacity="0.00000" height="1782.7324" width="8" x="1428.1606" y="130.752"/><line style="stroke:#000000;stroke-width:1;stroke-dasharray:5,5;" x1="1431.6992" x2="1431.6992" y1="130.752" y2="1913.4844"/></g></g><g class="participant-lifeline" data-entity-uid="part7" data-qualified-name="Disk" id="part7-lifeline"><g><title>Disk</title><rect fill="#000000" fill-opacity="0.00000" height="1782.7324" width="8" x="1676.6709" y="130.752"/><line style="stroke:#000000;stroke-width:1;stroke-dasharray:5,5;" x1="1680.5669" x2="1680.5669" y1="130.752" y2="1913.4844"/></g></g><g class="participant participant-head" data-entity-uid="part1" data-qualified-name="U" id="part1-head"><text fill="#000000" font-family="Verdana" font-size="14" lengthAdjust="spacing" textLength="31.8555" x="25" y="127.8125">User</text><ellipse cx="43.9277" cy="61.7373" fill="#FFFFFF" rx="8" ry="8" style="stroke:#000000;stroke-width:1;"/><path d="M43.9277,69.7373 L43.9277,96.7373 M30.9277,77.7373 L56.9277,77.7373 M43.9277,96.7373 L30.9277,111.7373 M43.9277,96.7373 L56.9277,111.7373" fill="none" style="stroke:#000000;stroke-width:1;"/></g><g class="participant participant-tail" data-entity-uid="part1" data-qualified-name="U" id="part1-tail"><text fill="#000000" font-family="Verdana" font-size="14" lengthAdjust="spacing" textLength="31.8555" x="25" y="1926.5596">User</text><ellipse cx="43.9277" cy="1938.499" fill="#FFFFFF" rx="8" ry="8" style="stroke:#000000;stroke-width:1;"/><path d="M43.9277,1946.499 L43.9277,1973.499 M30.9277,1954.499 L56.9277,1954.499 M43.9277,1973.499 L30.9277,1988.499 M43.9277,1973.499 L56.9277,1988.499" fill="none" style="stroke:#000000;stroke-width:1;"/></g><g class="participant participant-head" data-entity-uid="part2" data-qualified-name="Tree" id="part2-head"><rect fill="#FFFFFF" height="31.0146" rx="2.5" ry="2.5" style="stroke:#000000;stroke-width:1;" width="90.5283" x="148.8359" y="98.7373"/><text fill="#000000" font-family="Verdana" font-size="14" lengthAdjust="spacing" textLength="76.5283" x="155.8359" y="119.8125">rb-file-tree</text></g><g class="participant participant-tail" data-entity-uid="part2" data-qualified-name="Tree" id="part2-tail"><rect fill="#FFFFFF" height="31.0146" rx="2.5" ry="2.5" style="stroke:#000000;stroke-width:1;" width="90.5283" x="148.8359" y="1912.4844"/><text fill="#000000" font-family="Verdana" font-size="14" lengthAdjust="spacing" textLength="76.5283" x="155.8359" y="1933.5596">rb-file-tree</text></g><g class="participant participant-head" data-entity-uid="part3" data-qualified-name="Layout" id="part3-head"><rect fill="#FFFFFF" height="31.0146" rx="2.5" ry="2.5" style="stroke:#000000;stroke-width:1;" width="125.7129" x="480.9077" y="98.7373"/><text fill="#000000" font-family="Verdana" font-size="14" lengthAdjust="spacing" textLength="111.7129" x="487.9077" y="119.8125">rb-editor-layout</text></g><g class="participant participant-tail" data-entity-uid="part3" data-qualified-name="Layout" id="part3-tail"><rect fill="#FFFFFF" height="31.0146" rx="2.5" ry="2.5" style="stroke:#000000;stroke-width:1;" width="125.7129" x="480.9077" y="1912.4844"/><text fill="#000000" font-family="Verdana" font-size="14" lengthAdjust="spacing" textLength="111.7129" x="487.9077" y="1933.5596">rb-editor-layout</text></g><g class="participant participant-head" data-entity-uid="part4" data-qualified-name="Editor" id="part4-head"><rect fill="#FFFFFF" height="31.0146" rx="2.5" ry="2.5" style="stroke:#000000;stroke-width:1;" width="115.1582" x="764.2476" y="98.7373"/><text fill="#000000" font-family="Verdana" font-size="14" lengthAdjust="spacing" textLength="101.1582" x="771.2476" y="119.8125">rb-code-editor</text></g><g class="participant participant-tail" data-entity-uid="part4" data-qualified-name="Editor" id="part4-tail"><rect fill="#FFFFFF" height="31.0146" rx="2.5" ry="2.5" style="stroke:#000000;stroke-width:1;" width="115.1582" x="764.2476" y="1912.4844"/><text fill="#000000" font-family="Verdana" font-size="14" lengthAdjust="spacing" textLength="101.1582" x="771.2476" y="1933.5596">rb-code-editor</text></g><g class="participant participant-head" data-entity-uid="part5" data-qualified-name="Preview" id="part5-head"><rect fill="#FFFFFF" height="31.0146" rx="2.5" ry="2.5" style="stroke:#000000;stroke-width:1;" width="90.0156" x="1114.2192" y="98.7373"/><text fill="#000000" font-family="Verdana" font-size="14" lengthAdjust="spacing" textLength="76.0156" x="1121.2192" y="119.8125">rb-preview</text></g><g class="participant participant-tail" data-entity-uid="part5" data-qualified-name="Preview" id="part5-tail"><rect fill="#FFFFFF" height="31.0146" rx="2.5" ry="2.5" style="stroke:#000000;stroke-width:1;" width="90.0156" x="1114.2192" y="1912.4844"/><text fill="#000000" font-family="Verdana" font-size="14" lengthAdjust="spacing" textLength="76.0156" x="1121.2192" y="1933.5596">rb-preview</text></g><g class="participant participant-head" data-entity-uid="part6" data-qualified-name="API" id="part6-head"><rect fill="#FFFFFF" height="48.0293" rx="2.5" ry="2.5" style="stroke:#000000;stroke-width:1;" width="70.9229" x="1396.6992" y="81.7227"/><text fill="#000000" font-family="Verdana" font-size="14" lengthAdjust="spacing" textLength="46.2041" x="1409.0586" y="102.7979">FileApi</text><text fill="#000000" font-family="Verdana" font-size="14" lengthAdjust="spacing" textLength="56.9229" x="1403.6992" y="119.8125">(server)</text></g><g class="participant participant-tail" data-entity-uid="part6" data-qualified-name="API" id="part6-tail"><rect fill="#FFFFFF" height="48.0293" rx="2.5" ry="2.5" style="stroke:#000000;stroke-width:1;" width="70.9229" x="1396.6992" y="1912.4844"/><text fill="#000000" font-family="Verdana" font-size="14" lengthAdjust="spacing" textLength="46.2041" x="1409.0586" y="1933.5596">FileApi</text><text fill="#000000" font-family="Verdana" font-size="14" lengthAdjust="spacing" textLength="56.9229" x="1403.6992" y="1950.5742">(server)</text></g><g class="participant participant-head" data-entity-uid="part7" data-qualified-name="Disk" id="part7-head"><text fill="#000000" font-family="Verdana" font-size="14" lengthAdjust="spacing" textLength="30.208" x="1662.5669" y="127.8125">Disk</text><path d="M1662.6709,77.7373 C1662.6709,67.7373 1680.6709,67.7373 1680.6709,67.7373 C1680.6709,67.7373 1698.6709,67.7373 1698.6709,77.7373 L1698.6709,103.7373 C1698.6709,113.7373 1680.6709,113.7373 1680.6709,113.7373 C1680.6709,113.7373 1662.6709,113.7373 1662.6709,103.7373 L1662.6709,77.7373" fill="#FFFFFF" style="stroke:#000000;stroke-width:1;"/><path d="M1662.6709,77.7373 C1662.6709,87.7373 1680.6709,87.7373 1680.6709,87.7373 C1680.6709,87.7373 1698.6709,87.7373 1698.6709,77.7373" fill="none" style="stroke:#000000;stroke-width:1;"/></g><g class="participant participant-tail" data-entity-uid="part7" data-qualified-name="Disk" id="part7-tail"><text fill="#000000" font-family="Verdana" font-size="14" lengthAdjust="spacing" textLength="30.208" x="1662.5669" y="1926.5596">Disk</text><path d="M1662.6709,1939.499 C1662.6709,1929.499 1680.6709,1929.499 1680.6709,1929.499 C1680.6709,1929.499 1698.6709,1929.499 1698.6709,1939.499 L1698.6709,1965.499 C1698.6709,1975.499 1680.6709,1975.499 1680.6709,1975.499 C1680.6709,1975.499 1662.6709,1975.499 1662.6709,1965.499 L1662.6709,1939.499" fill="#FFFFFF" style="stroke:#000000;stroke-width:1;"/><path d="M1662.6709,1939.499 C1662.6709,1949.499 1680.6709,1949.499 1680.6709,1949.499 C1680.6709,1949.499 1698.6709,1949.499 1698.6709,1939.499" fill="none" style="stroke:#000000;stroke-width:1;"/></g><rect fill="#FFFFFF" height="3" style="stroke:#FFFFFF;stroke-width:1;" width="1713.7749" x="5" y="161.6516"/><line style="stroke:#000000;stroke-width:0.5;" x1="5" x2="1718.7749" y1="161.6516" y2="161.6516"/><line style="stroke:#000000;stroke-width:0.5;" x1="5" x2="1718.7749" y1="164.6516" y2="164.6516"/><rect fill="#FFFFFF" height="23.7993" style="stroke:#000000;stroke-width:1;" width="86.8965" x="818.4392" y="150.752"/><text fill="#000000" font-family="Verdana" font-size="13" font-weight="bold" lengthAdjust="spacing" textLength="68.4531" x="824.4392" y="167.8218">File Open</text><g class="message" data-entity-1="part1" data-entity-2="part2" id="msg1"><polygon fill="#000000" points="182.1001,202.3506,192.1001,206.3506,182.1001,210.3506,186.1001,206.3506" style="stroke:#000000;stroke-width:1;"/><line style="stroke:#000000;stroke-width:1;" x1="43.9277" x2="188.1001" y1="206.3506" y2="206.3506"/><text fill="#000000" font-family="Verdana" font-size="13" lengthAdjust="spacing" textLength="126.1724" x="55.9277" y="201.6211">click "planning.md"</text></g><g class="message" data-entity-1="part2" data-entity-2="part2" id="msg2"><line style="stroke:#000000;stroke-width:1;" x1="194.1001" x2="236.1001" y1="251.9492" y2="251.9492"/><line style="stroke:#000000;stroke-width:1;" x1="236.1001" x2="236.1001" y1="251.9492" y2="264.9492"/><line style="stroke:#000000;stroke-width:1;" x1="195.1001" x2="236.1001" y1="264.9492" y2="264.9492"/><polygon fill="#000000" points="205.1001,260.9492,195.1001,264.9492,205.1001,268.9492,201.1001,264.9492" style="stroke:#000000;stroke-width:1;"/><text fill="#000000" font-family="Verdana" font-size="13" lengthAdjust="spacing" textLength="141.667" x="298.0986" y="231.4204">dispatch rb-file-select</text><text fill="#000000" font-family="Verdana" font-size="13" lengthAdjust="spacing" textLength="335.6641" x="201.1001" y="247.2197">{ path: "scrum.pmo/.../planning.md", ext: ".md" }</text></g><g class="message" data-entity-1="part3" data-entity-2="part4" id="msg3"><polygon fill="#000000" points="809.8267,290.7485,819.8267,294.7485,809.8267,298.7485,813.8267,294.7485" style="stroke:#000000;stroke-width:1;"/><line style="stroke:#000000;stroke-width:1;" x1="543.7642" x2="815.8267" y1="294.7485" y2="294.7485"/><text fill="#000000" font-family="Verdana" font-size="13" lengthAdjust="spacing" textLength="90.7778" x="637.4065" y="290.019">loadFile(path)</text></g><g class="message" data-entity-1="part4" data-entity-2="part6" id="msg4"><polygon fill="#000000" points="1420.1606,320.5479,1430.1606,324.5479,1420.1606,328.5479,1424.1606,324.5479" style="stroke:#000000;stroke-width:1;"/><line style="stroke:#000000;stroke-width:1;" x1="821.8267" x2="1426.1606" y1="324.5479" y2="324.5479"/><text fill="#000000" font-family="Verdana" font-size="13" lengthAdjust="spacing" textLength="274.9043" x="989.5415" y="319.8184">GET /api/files/scrum.pmo/.../planning.md</text></g><g class="message" data-entity-1="part6" data-entity-2="part6" id="msg5"><line style="stroke:#000000;stroke-width:1;" x1="1432.1606" x2="1474.1606" y1="354.3472" y2="354.3472"/><line style="stroke:#000000;stroke-width:1;" x1="1474.1606" x2="1474.1606" y1="354.3472" y2="367.3472"/><line style="stroke:#000000;stroke-width:1;" x1="1433.1606" x2="1474.1606" y1="367.3472" y2="367.3472"/><polygon fill="#000000" points="1443.1606,363.3472,1433.1606,367.3472,1443.1606,371.3472,1439.1606,367.3472" style="stroke:#000000;stroke-width:1;"/><text fill="#000000" font-family="Verdana" font-size="13" lengthAdjust="spacing" textLength="163.9917" x="1439.1606" y="349.6177">sanitizePath() &#8212; validate</text></g><g class="message" data-entity-1="part6" data-entity-2="part7" id="msg6"><polygon fill="#000000" points="1668.6709,393.1465,1678.6709,397.1465,1668.6709,401.1465,1672.6709,397.1465" style="stroke:#000000;stroke-width:1;"/><line style="stroke:#000000;stroke-width:1;" x1="1432.1606" x2="1674.6709" y1="397.1465" y2="397.1465"/><text fill="#000000" font-family="Verdana" font-size="13" lengthAdjust="spacing" textLength="211.0532" x="1450.8892" y="392.417">fs.readFileSync(absPath, 'utf-8')</text></g><g class="message" data-entity-1="part7" data-entity-2="part6" id="msg7"><polygon fill="#000000" points="1443.1606,422.9458,1433.1606,426.9458,1443.1606,430.9458,1439.1606,426.9458" style="stroke:#000000;stroke-width:1;"/><line style="stroke:#000000;stroke-width:1;" x1="1437.1606" x2="1679.6709" y1="426.9458" y2="426.9458"/><text fill="#000000" font-family="Verdana" font-size="13" lengthAdjust="spacing" textLength="104.6475" x="1504.092" y="422.2163">content (UTF-8)</text></g><g class="message" data-entity-1="part6" data-entity-2="part4" id="msg8"><polygon fill="#000000" points="832.8267,452.7451,822.8267,456.7451,832.8267,460.7451,828.8267,456.7451" style="stroke:#000000;stroke-width:1;"/><line style="stroke:#000000;stroke-width:1;" x1="826.8267" x2="1431.1606" y1="456.7451" y2="456.7451"/><text fill="#000000" font-family="Verdana" font-size="13" lengthAdjust="spacing" textLength="198.542" x="1027.7227" y="452.0156">{ path, content, size, mtime }</text></g><g class="message" data-entity-1="part4" data-entity-2="part4" id="msg9"><line style="stroke:#000000;stroke-width:1;" x1="821.8267" x2="863.8267" y1="486.5444" y2="486.5444"/><line style="stroke:#000000;stroke-width:1;" x1="863.8267" x2="863.8267" y1="486.5444" y2="499.5444"/><line style="stroke:#000000;stroke-width:1;" x1="822.8267" x2="863.8267" y1="499.5444" y2="499.5444"/><polygon fill="#000000" points="832.8267,495.5444,822.8267,499.5444,832.8267,503.5444,828.8267,499.5444" style="stroke:#000000;stroke-width:1;"/><text fill="#000000" font-family="Verdana" font-size="13" lengthAdjust="spacing" textLength="323.4004" x="828.8267" y="481.8149">monaco.editor.createModel(content, 'markdown')</text></g><g class="message" data-entity-1="part4" data-entity-2="part4" id="msg10"><line style="stroke:#000000;stroke-width:1;" x1="821.8267" x2="863.8267" y1="529.3438" y2="529.3438"/><line style="stroke:#000000;stroke-width:1;" x1="863.8267" x2="863.8267" y1="529.3438" y2="542.3438"/><line style="stroke:#000000;stroke-width:1;" x1="822.8267" x2="863.8267" y1="542.3438" y2="542.3438"/><polygon fill="#000000" points="832.8267,538.3438,822.8267,542.3438,832.8267,546.3438,828.8267,542.3438" style="stroke:#000000;stroke-width:1;"/><text fill="#000000" font-family="Verdana" font-size="13" lengthAdjust="spacing" textLength="217.8706" x="828.8267" y="524.6143">store mtime for conflict detection</text></g><path d="M771,555.3438 L771,580.3438 L872,580.3438 L872,565.3438 L862,555.3438 L771,555.3438" fill="#FFFFFF" style="stroke:#000000;stroke-width:1;"/><path d="M862,555.3438 L862,565.3438 L872,565.3438 L862,555.3438" fill="#FFFFFF" style="stroke:#000000;stroke-width:1;"/><text fill="#000000" font-family="Verdana" font-size="13" lengthAdjust="spacing" textLength="80.2725" x="777" y="573.4136">dirty = false</text><g class="message" data-entity-1="part3" data-entity-2="part5" id="msg11"><polygon fill="#000000" points="1147.2271,603.9424,1157.2271,607.9424,1147.2271,611.9424,1151.2271,607.9424" style="stroke:#000000;stroke-width:1;"/><line style="stroke:#000000;stroke-width:1;" x1="543.7642" x2="1153.2271" y1="607.9424" y2="607.9424"/><text fill="#000000" font-family="Verdana" font-size="13" lengthAdjust="spacing" textLength="170.6821" x="766.1545" y="603.2129">renderMarkdown(content)</text></g><g class="message" data-entity-1="part5" data-entity-2="part5" id="msg12"><line style="stroke:#000000;stroke-width:1;" x1="1159.2271" x2="1201.2271" y1="637.7417" y2="637.7417"/><line style="stroke:#000000;stroke-width:1;" x1="1201.2271" x2="1201.2271" y1="637.7417" y2="650.7417"/><line style="stroke:#000000;stroke-width:1;" x1="1160.2271" x2="1201.2271" y1="650.7417" y2="650.7417"/><polygon fill="#000000" points="1170.2271,646.7417,1160.2271,650.7417,1170.2271,654.7417,1166.2271,650.7417" style="stroke:#000000;stroke-width:1;"/><text fill="#000000" font-family="Verdana" font-size="13" lengthAdjust="spacing" textLength="209.2632" x="1166.2271" y="633.0122">marked.parse(content) &#8594; HTML</text></g><path d="M1060,663.7417 L1060,688.7417 L1256,688.7417 L1256,673.7417 L1246,663.7417 L1060,663.7417" fill="#FFFFFF" style="stroke:#000000;stroke-width:1;"/><path d="M1246,663.7417 L1246,673.7417 L1256,673.7417 L1246,663.7417" fill="#FFFFFF" style="stroke:#000000;stroke-width:1;"/><text fill="#000000" font-family="Verdana" font-size="13" lengthAdjust="spacing" textLength="175.481" x="1066" y="681.8115">split view (default for .md)</text><rect fill="#FFFFFF" height="3" style="stroke:#FFFFFF;stroke-width:1;" width="1713.7749" x="5" y="715.4407"/><line style="stroke:#000000;stroke-width:0.5;" x1="5" x2="1718.7749" y1="715.4407" y2="715.4407"/><line style="stroke:#000000;stroke-width:0.5;" x1="5" x2="1718.7749" y1="718.4407" y2="718.4407"/><rect fill="#FFFFFF" height="23.7993" style="stroke:#000000;stroke-width:1;" width="69.5737" x="827.1006" y="704.541"/><text fill="#000000" font-family="Verdana" font-size="13" font-weight="bold" lengthAdjust="spacing" textLength="51.1304" x="833.1006" y="721.6108">Editing</text><g class="message" data-entity-1="part1" data-entity-2="part4" id="msg13"><polygon fill="#000000" points="809.8267,756.1396,819.8267,760.1396,809.8267,764.1396,813.8267,760.1396" style="stroke:#000000;stroke-width:1;"/><line style="stroke:#000000;stroke-width:1;" x1="43.9277" x2="815.8267" y1="760.1396" y2="760.1396"/><text fill="#000000" font-family="Verdana" font-size="13" lengthAdjust="spacing" textLength="65.6855" x="400.0344" y="755.4102">types text</text></g><g class="message" data-entity-1="part4" data-entity-2="part4" id="msg14"><line style="stroke:#000000;stroke-width:1;" x1="821.8267" x2="863.8267" y1="789.939" y2="789.939"/><line style="stroke:#000000;stroke-width:1;" x1="863.8267" x2="863.8267" y1="789.939" y2="802.939"/><line style="stroke:#000000;stroke-width:1;" x1="822.8267" x2="863.8267" y1="802.939" y2="802.939"/><polygon fill="#000000" points="832.8267,798.939,822.8267,802.939,832.8267,806.939,828.8267,802.939" style="stroke:#000000;stroke-width:1;"/><text fill="#000000" font-family="Verdana" font-size="13" lengthAdjust="spacing" textLength="176.6489" x="828.8267" y="785.2095">onDidChangeModelContent</text></g><g class="message" data-entity-1="part4" data-entity-2="part4" id="msg15"><line style="stroke:#000000;stroke-width:1;" x1="821.8267" x2="863.8267" y1="832.7383" y2="832.7383"/><line style="stroke:#000000;stroke-width:1;" x1="863.8267" x2="863.8267" y1="832.7383" y2="845.7383"/><line style="stroke:#000000;stroke-width:1;" x1="822.8267" x2="863.8267" y1="845.7383" y2="845.7383"/><polygon fill="#000000" points="832.8267,841.7383,822.8267,845.7383,832.8267,849.7383,828.8267,845.7383" style="stroke:#000000;stroke-width:1;"/><text fill="#000000" font-family="Verdana" font-size="13" lengthAdjust="spacing" textLength="76.4512" x="828.8267" y="828.0088">dirty = true</text></g><g class="message" data-entity-1="part4" data-entity-2="part3" id="msg16"><polygon fill="#000000" points="554.7642,871.5376,544.7642,875.5376,554.7642,879.5376,550.7642,875.5376" style="stroke:#000000;stroke-width:1;"/><line style="stroke:#000000;stroke-width:1;" x1="548.7642" x2="820.8267" y1="875.5376" y2="875.5376"/><text fill="#000000" font-family="Verdana" font-size="13" lengthAdjust="spacing" textLength="190.8169" x="587.387" y="870.8081">rb-editor-dirty { dirty: true }</text></g><g class="message" data-entity-1="part3" data-entity-2="part3" id="msg17"><line style="stroke:#000000;stroke-width:1;" x1="543.7642" x2="585.7642" y1="905.3369" y2="905.3369"/><line style="stroke:#000000;stroke-width:1;" x1="585.7642" x2="585.7642" y1="905.3369" y2="918.3369"/><line style="stroke:#000000;stroke-width:1;" x1="544.7642" x2="585.7642" y1="918.3369" y2="918.3369"/><polygon fill="#000000" points="554.7642,914.3369,544.7642,918.3369,554.7642,922.3369,550.7642,918.3369" style="stroke:#000000;stroke-width:1;"/><text fill="#000000" font-family="Verdana" font-size="13" lengthAdjust="spacing" textLength="166.791" x="550.7642" y="900.6074">show dirty indicator (dot)</text></g><g class="message" data-entity-1="part4" data-entity-2="part5" id="msg18"><polygon fill="#000000" points="1147.2271,959.9355,1157.2271,963.9355,1147.2271,967.9355,1151.2271,963.9355" style="stroke:#000000;stroke-width:1;"/><line style="stroke:#000000;stroke-width:1;" x1="821.8267" x2="1153.2271" y1="963.9355" y2="963.9355"/><text fill="#000000" font-family="Verdana" font-size="13" lengthAdjust="spacing" textLength="191.8516" x="894.6011" y="943.4067">rb-editor-content { content }</text><text fill="#000000" font-family="Verdana" font-size="13" lengthAdjust="spacing" textLength="131.4917" x="924.781" y="959.2061">(debounced 300ms)</text></g><g class="message" data-entity-1="part5" data-entity-2="part5" id="msg19"><line style="stroke:#000000;stroke-width:1;" x1="1159.2271" x2="1201.2271" y1="993.7349" y2="993.7349"/><line style="stroke:#000000;stroke-width:1;" x1="1201.2271" x2="1201.2271" y1="993.7349" y2="1006.7349"/><line style="stroke:#000000;stroke-width:1;" x1="1160.2271" x2="1201.2271" y1="1006.7349" y2="1006.7349"/><polygon fill="#000000" points="1170.2271,1002.7349,1160.2271,1006.7349,1170.2271,1010.7349,1166.2271,1006.7349" style="stroke:#000000;stroke-width:1;"/><text fill="#000000" font-family="Verdana" font-size="13" lengthAdjust="spacing" textLength="258.9336" x="1166.2271" y="989.0054">marked.parse(content) &#8594; HTML update</text></g><rect fill="#FFFFFF" height="3" style="stroke:#FFFFFF;stroke-width:1;" width="1713.7749" x="5" y="1035.6345"/><line style="stroke:#000000;stroke-width:0.5;" x1="5" x2="1718.7749" y1="1035.6345" y2="1035.6345"/><line style="stroke:#000000;stroke-width:0.5;" x1="5" x2="1718.7749" y1="1038.6345" y2="1038.6345"/><rect fill="#FFFFFF" height="23.7993" style="stroke:#000000;stroke-width:1;" width="128.3467" x="797.7141" y="1024.7349"/><text fill="#000000" font-family="Verdana" font-size="13" font-weight="bold" lengthAdjust="spacing" textLength="109.9033" x="803.7141" y="1041.8047">Save (success)</text><g class="message" data-entity-1="part1" data-entity-2="part4" id="msg20"><polygon fill="#000000" points="809.8267,1076.3335,819.8267,1080.3335,809.8267,1084.3335,813.8267,1080.3335" style="stroke:#000000;stroke-width:1;"/><line style="stroke:#000000;stroke-width:1;" x1="43.9277" x2="815.8267" y1="1080.3335" y2="1080.3335"/><text fill="#000000" font-family="Verdana" font-size="13" lengthAdjust="spacing" textLength="49.3467" x="408.2039" y="1075.604">Cmd+S</text></g><g class="message" data-entity-1="part4" data-entity-2="part6" id="msg21"><polygon fill="#000000" points="1420.1606,1121.9321,1430.1606,1125.9321,1420.1606,1129.9321,1424.1606,1125.9321" style="stroke:#000000;stroke-width:1;"/><line style="stroke:#000000;stroke-width:1;" x1="821.8267" x2="1426.1606" y1="1125.9321" y2="1125.9321"/><text fill="#000000" font-family="Verdana" font-size="13" lengthAdjust="spacing" textLength="273.9585" x="990.0144" y="1105.4033">PUT /api/files/scrum.pmo/.../planning.md</text><text fill="#000000" font-family="Verdana" font-size="13" lengthAdjust="spacing" textLength="183.1045" x="1035.4414" y="1121.2026">{ content, expectedMtime }</text></g><g class="message" data-entity-1="part6" data-entity-2="part6" id="msg22"><line style="stroke:#000000;stroke-width:1;" x1="1432.1606" x2="1474.1606" y1="1155.7314" y2="1155.7314"/><line style="stroke:#000000;stroke-width:1;" x1="1474.1606" x2="1474.1606" y1="1155.7314" y2="1168.7314"/><line style="stroke:#000000;stroke-width:1;" x1="1433.1606" x2="1474.1606" y1="1168.7314" y2="1168.7314"/><polygon fill="#000000" points="1443.1606,1164.7314,1433.1606,1168.7314,1443.1606,1172.7314,1439.1606,1168.7314" style="stroke:#000000;stroke-width:1;"/><text fill="#000000" font-family="Verdana" font-size="13" lengthAdjust="spacing" textLength="143.165" x="1439.1606" y="1151.002">check mtime matches</text></g><g class="message" data-entity-1="part6" data-entity-2="part7" id="msg23"><polygon fill="#000000" points="1668.6709,1194.5308,1678.6709,1198.5308,1668.6709,1202.5308,1672.6709,1198.5308" style="stroke:#000000;stroke-width:1;"/><line style="stroke:#000000;stroke-width:1;" x1="1432.1606" x2="1674.6709" y1="1198.5308" y2="1198.5308"/><text fill="#000000" font-family="Verdana" font-size="13" lengthAdjust="spacing" textLength="224.5103" x="1444.1606" y="1193.8013">fs.writeFileSync(absPath, content)</text></g><g class="message" data-entity-1="part6" data-entity-2="part4" id="msg24"><polygon fill="#000000" points="832.8267,1224.3301,822.8267,1228.3301,832.8267,1232.3301,828.8267,1228.3301" style="stroke:#000000;stroke-width:1;"/><line style="stroke:#000000;stroke-width:1;" x1="826.8267" x2="1431.1606" y1="1228.3301" y2="1228.3301"/><text fill="#000000" font-family="Verdana" font-size="13" lengthAdjust="spacing" textLength="212.5957" x="1020.6958" y="1223.6006">{ ok: true, mtime: "new", size }</text></g><g class="message" data-entity-1="part4" data-entity-2="part4" id="msg25"><line style="stroke:#000000;stroke-width:1;" x1="821.8267" x2="863.8267" y1="1258.1294" y2="1258.1294"/><line style="stroke:#000000;stroke-width:1;" x1="863.8267" x2="863.8267" y1="1258.1294" y2="1271.1294"/><line style="stroke:#000000;stroke-width:1;" x1="822.8267" x2="863.8267" y1="1271.1294" y2="1271.1294"/><polygon fill="#000000" points="832.8267,1267.1294,822.8267,1271.1294,832.8267,1275.1294,828.8267,1271.1294" style="stroke:#000000;stroke-width:1;"/><text fill="#000000" font-family="Verdana" font-size="13" lengthAdjust="spacing" textLength="200.1226" x="828.8267" y="1253.3999">store new mtime, dirty = false</text></g><g class="message" data-entity-1="part4" data-entity-2="part3" id="msg26"><polygon fill="#000000" points="554.7642,1296.9287,544.7642,1300.9287,554.7642,1304.9287,550.7642,1300.9287" style="stroke:#000000;stroke-width:1;"/><line style="stroke:#000000;stroke-width:1;" x1="548.7642" x2="820.8267" y1="1300.9287" y2="1300.9287"/><text fill="#000000" font-family="Verdana" font-size="13" lengthAdjust="spacing" textLength="212.0371" x="576.7769" y="1296.1992">rb-editor-saved { path, mtime }</text></g><g class="message" data-entity-1="part3" data-entity-2="part3" id="msg27"><line style="stroke:#000000;stroke-width:1;" x1="543.7642" x2="585.7642" y1="1330.728" y2="1330.728"/><line style="stroke:#000000;stroke-width:1;" x1="585.7642" x2="585.7642" y1="1330.728" y2="1343.728"/><line style="stroke:#000000;stroke-width:1;" x1="544.7642" x2="585.7642" y1="1343.728" y2="1343.728"/><polygon fill="#000000" points="554.7642,1339.728,544.7642,1343.728,554.7642,1347.728,550.7642,1343.728" style="stroke:#000000;stroke-width:1;"/><text fill="#000000" font-family="Verdana" font-size="13" lengthAdjust="spacing" textLength="264.0625" x="550.7642" y="1325.9985">show "Saved" toast, clear dirty indicator</text></g><rect fill="#FFFFFF" height="3" style="stroke:#FFFFFF;stroke-width:1;" width="1713.7749" x="5" y="1372.6277"/><line style="stroke:#000000;stroke-width:0.5;" x1="5" x2="1718.7749" y1="1372.6277" y2="1372.6277"/><line style="stroke:#000000;stroke-width:0.5;" x1="5" x2="1718.7749" y1="1375.6277" y2="1375.6277"/><rect fill="#FFFFFF" height="23.7993" style="stroke:#000000;stroke-width:1;" width="125.8013" x="798.9868" y="1361.728"/><text fill="#000000" font-family="Verdana" font-size="13" font-weight="bold" lengthAdjust="spacing" textLength="107.3579" x="804.9868" y="1378.7979">Save (conflict)</text><g class="message" data-entity-1="part1" data-entity-2="part4" id="msg28"><polygon fill="#000000" points="809.8267,1413.3267,819.8267,1417.3267,809.8267,1421.3267,813.8267,1417.3267" style="stroke:#000000;stroke-width:1;"/><line style="stroke:#000000;stroke-width:1;" x1="43.9277" x2="815.8267" y1="1417.3267" y2="1417.3267"/><text fill="#000000" font-family="Verdana" font-size="13" lengthAdjust="spacing" textLength="183.644" x="341.0552" y="1412.5972">Cmd+S (after external edit)</text></g><g class="message" data-entity-1="part4" data-entity-2="part6" id="msg29"><polygon fill="#000000" points="1420.1606,1458.9253,1430.1606,1462.9253,1420.1606,1466.9253,1424.1606,1462.9253" style="stroke:#000000;stroke-width:1;"/><line style="stroke:#000000;stroke-width:1;" x1="821.8267" x2="1426.1606" y1="1462.9253" y2="1462.9253"/><text fill="#000000" font-family="Verdana" font-size="13" lengthAdjust="spacing" textLength="107.5293" x="1073.229" y="1442.3965">PUT /api/files/...</text><text fill="#000000" font-family="Verdana" font-size="13" lengthAdjust="spacing" textLength="225.0688" x="1014.4592" y="1458.1958">{ content, expectedMtime: "old" }</text></g><g class="message" data-entity-1="part6" data-entity-2="part6" id="msg30"><line style="stroke:#000000;stroke-width:1;" x1="1432.1606" x2="1474.1606" y1="1492.7246" y2="1492.7246"/><line style="stroke:#000000;stroke-width:1;" x1="1474.1606" x2="1474.1606" y1="1492.7246" y2="1505.7246"/><line style="stroke:#000000;stroke-width:1;" x1="1433.1606" x2="1474.1606" y1="1505.7246" y2="1505.7246"/><polygon fill="#000000" points="1443.1606,1501.7246,1433.1606,1505.7246,1443.1606,1509.7246,1439.1606,1505.7246" style="stroke:#000000;stroke-width:1;"/><text fill="#000000" font-family="Verdana" font-size="13" lengthAdjust="spacing" textLength="200.4907" x="1439.1606" y="1487.9951">file.mtime !== expectedMtime</text></g><g class="message" data-entity-1="part6" data-entity-2="part4" id="msg31"><polygon fill="#000000" points="832.8267,1531.5239,822.8267,1535.5239,832.8267,1539.5239,828.8267,1535.5239" style="stroke:#000000;stroke-width:1;"/><line style="stroke:#000000;stroke-width:1;" x1="826.8267" x2="1431.1606" y1="1535.5239" y2="1535.5239"/><text fill="#000000" font-family="Verdana" font-size="13" lengthAdjust="spacing" textLength="228.998" x="1012.4946" y="1530.7944">409 { conflict: true, serverMtime }</text></g><g class="message" data-entity-1="part4" data-entity-2="part1" id="msg32"><polygon fill="#000000" points="54.9277,1577.1226,44.9277,1581.1226,54.9277,1585.1226,50.9277,1581.1226" style="stroke:#000000;stroke-width:1;"/><line style="stroke:#000000;stroke-width:1;" x1="48.9277" x2="820.8267" y1="1581.1226" y2="1581.1226"/><text fill="#000000" font-family="Verdana" font-size="13" lengthAdjust="spacing" textLength="187.5859" x="339.0842" y="1560.5938">dialog "File changed on disk.</text><text fill="#000000" font-family="Verdana" font-size="13" lengthAdjust="spacing" textLength="143.6221" x="361.0662" y="1576.3931">Overwrite or Reload?"</text></g><path d="M15,1596.1226 L79.0493,1596.1226 L79.0493,1603.9219 L69.0493,1613.9219 L15,1613.9219 L15,1596.1226" fill="#FFFFFF" style="stroke:#000000;stroke-width:1;"/><rect fill="none" height="300.3618" style="stroke:#000000;stroke-width:1;" width="1693.7749" x="15" y="1596.1226"/><text fill="#000000" font-family="Verdana" font-size="13" font-weight="bold" lengthAdjust="spacing" textLength="19.0493" x="30" y="1610.1924">alt</text><text fill="#000000" font-family="Verdana" font-size="11" font-weight="bold" lengthAdjust="spacing" textLength="73.5464" x="94.0493" y="1609.1816">[Overwrite]</text><g class="message" data-entity-1="part1" data-entity-2="part4" id="msg33"><polygon fill="#000000" points="809.8267,1631.7212,819.8267,1635.7212,809.8267,1639.7212,813.8267,1635.7212" style="stroke:#000000;stroke-width:1;"/><line style="stroke:#000000;stroke-width:1;" x1="43.9277" x2="815.8267" y1="1635.7212" y2="1635.7212"/><text fill="#000000" font-family="Verdana" font-size="13" lengthAdjust="spacing" textLength="108.7163" x="378.519" y="1630.9917">click "Overwrite"</text></g><g class="message" data-entity-1="part4" data-entity-2="part6" id="msg34"><polygon fill="#000000" points="1420.1606,1677.3198,1430.1606,1681.3198,1420.1606,1685.3198,1424.1606,1681.3198" style="stroke:#000000;stroke-width:1;"/><line style="stroke:#000000;stroke-width:1;" x1="821.8267" x2="1426.1606" y1="1681.3198" y2="1681.3198"/><text fill="#000000" font-family="Verdana" font-size="13" lengthAdjust="spacing" textLength="107.5293" x="1073.229" y="1660.791">PUT /api/files/...</text><text fill="#000000" font-family="Verdana" font-size="13" lengthAdjust="spacing" textLength="217.166" x="1018.4106" y="1676.5903">{ content, expectedMtime: null }</text></g><g class="message" data-entity-1="part6" data-entity-2="part7" id="msg35"><polygon fill="#000000" points="1668.6709,1707.1191,1678.6709,1711.1191,1668.6709,1715.1191,1672.6709,1711.1191" style="stroke:#000000;stroke-width:1;"/><line style="stroke:#000000;stroke-width:1;" x1="1432.1606" x2="1674.6709" y1="1711.1191" y2="1711.1191"/><text fill="#000000" font-family="Verdana" font-size="13" lengthAdjust="spacing" textLength="32.6206" x="1540.1055" y="1706.3896">write</text></g><g class="message" data-entity-1="part6" data-entity-2="part4" id="msg36"><polygon fill="#000000" points="832.8267,1736.9185,822.8267,1740.9185,832.8267,1744.9185,828.8267,1740.9185" style="stroke:#000000;stroke-width:1;"/><line style="stroke:#000000;stroke-width:1;" x1="826.8267" x2="1431.1606" y1="1740.9185" y2="1740.9185"/><text fill="#000000" font-family="Verdana" font-size="13" lengthAdjust="spacing" textLength="129.3652" x="1062.311" y="1736.189">{ ok: true, mtime }</text></g><line style="stroke:#000000;stroke-width:1;stroke-dasharray:2,2;" x1="15" x2="1708.7749" y1="1749.9185" y2="1749.9185"/><text fill="#000000" font-family="Verdana" font-size="11" font-weight="bold" lengthAdjust="spacing" textLength="54.2158" x="20" y="1760.9775">[Reload]</text><g class="message" data-entity-1="part1" data-entity-2="part4" id="msg37"><polygon fill="#000000" points="809.8267,1782.0864,819.8267,1786.0864,809.8267,1790.0864,813.8267,1786.0864" style="stroke:#000000;stroke-width:1;"/><line style="stroke:#000000;stroke-width:1;" x1="43.9277" x2="815.8267" y1="1786.0864" y2="1786.0864"/><text fill="#000000" font-family="Verdana" font-size="13" lengthAdjust="spacing" textLength="89.0259" x="388.3643" y="1781.3569">click "Reload"</text></g><g class="message" data-entity-1="part4" data-entity-2="part6" id="msg38"><polygon fill="#000000" points="1420.1606,1811.8857,1430.1606,1815.8857,1420.1606,1819.8857,1424.1606,1815.8857" style="stroke:#000000;stroke-width:1;"/><line style="stroke:#000000;stroke-width:1;" x1="821.8267" x2="1426.1606" y1="1815.8857" y2="1815.8857"/><text fill="#000000" font-family="Verdana" font-size="13" lengthAdjust="spacing" textLength="108.4751" x="1072.7561" y="1811.1563">GET /api/files/...</text></g><g class="message" data-entity-1="part6" data-entity-2="part4" id="msg39"><polygon fill="#000000" points="832.8267,1841.6851,822.8267,1845.6851,832.8267,1849.6851,828.8267,1845.6851" style="stroke:#000000;stroke-width:1;"/><line style="stroke:#000000;stroke-width:1;" x1="826.8267" x2="1431.1606" y1="1845.6851" y2="1845.6851"/><text fill="#000000" font-family="Verdana" font-size="13" lengthAdjust="spacing" textLength="240.7158" x="1006.6357" y="1840.9556">{ content: "new from disk", mtime }</text></g><g class="message" data-entity-1="part4" data-entity-2="part4" id="msg40"><line style="stroke:#000000;stroke-width:1;" x1="821.8267" x2="863.8267" y1="1875.4844" y2="1875.4844"/><line style="stroke:#000000;stroke-width:1;" x1="863.8267" x2="863.8267" y1="1875.4844" y2="1888.4844"/><line style="stroke:#000000;stroke-width:1;" x1="822.8267" x2="863.8267" y1="1888.4844" y2="1888.4844"/><polygon fill="#000000" points="832.8267,1884.4844,822.8267,1888.4844,832.8267,1892.4844,828.8267,1888.4844" style="stroke:#000000;stroke-width:1;"/><text fill="#000000" font-family="Verdana" font-size="13" lengthAdjust="spacing" textLength="145.4756" x="828.8267" y="1870.7549">replace model content</text></g><?plantuml-src fLN1RkCs4BtpAsPrYOpQSe3si0tW5a4sQGkiiK4Jt_R2a6ERi4Ig91Ll6WJOKp-Ww1VkbtH8Ih8SszsYlIIq-6OuVFFUy8rVOuLGbrnfvZPArzpo2Xp-rg0ME4Vd-0elIxNI851xj8nvvKk46qL_FjIeuSiVVyArL3ukxlWZniMLqSjI2GytfTaoneKt5hA5Gvi1Tx1WT99NGjLSUyZimsH92IVU8iRzUreSG91ECNPIyYVJ-0Xx7vS7G64ajkW8kuxB0rXjyL7XDa9kqteV4ovvMQkFEgUw7z6E8lJozXSckUSFt25axvJRnCzXmTXiDg1cDcDi0PCVudNW0WGnie6CwDPQwLLHoOp5hHr4AbTpBzRGKUAmHE4_wcUWx-iBo9omJLNKbPaMHJ4TvXe3VlA426juOOcSa3lTdxANXijGNXvoZLZxdH1q9zh-wVeUfhnMqt2ocvuyYGLu7-MuLbxzZhUKCn_1byz_mICl5L647J1mGyYbAooc2kwUjCZvWmj1OpXh_7Bozcp48h3FB0n9ZXgHB-vl9cz7NRR-EecJSOSRWwConb1vHQ9-6LolZwYCvi8KIHk5e6eypaajPTxdEAkutKYprMUZOnaS_SFsY2Lz4PtG9Nfgb3AQQUCH3Ebb5oMLzKymWoKl7R91QrhT4SIYbcZdxU5TFIFM8VR0eKQK1QdLOG-DnllvVlv-KC4knDKbcJJ-o2KkULFwU07gvoZgDXHB_Tsfjg_UFzNem9EwZZ5Yz3ibhzPShnALLwcSOz2E1cyR7EotT5p0pkG9-PmYBcB0dgJx4BSsspQlqb897dBcqX1pWnC6DFT7TEfwxdNsGawN-60QcdqIlZq_hzn_uX-QEge_i1edOkuQ8MYOZewGUrN9R-uEh7Yx-7TM38EXbov-gac2AEUj0VPiAjP8moS9jmeZ1jsXFRTMUJpqPo_6GmUQJUfEQpiQFvf6QhBYSGyc1n4gHOnVcUCVPU68JTdxlZFwALbaWNoQXTvmH_I84hbzhPL1apehd-mIv7n9Rs0OisWrBo5KDVfQxwXZfxj4V9aoZkkzPeN88btl3TMt5tBGXE_ElqyYZjLtxKXFrlnW5YwY3tbfLkc18s44wqhoSNXzDbJi1mgCIW0A-HN3g_5ZHeyuJOn-Ym7iCzG-RZqW8yJ_OqOtPKcb0-pBj3l-grgaM2H5jJSuLN3QFLRjg-UGgZrwQbj-KZuihQaYZzckYc7gFj0YsLYG5yFCx98mUWJOtm00?></g></svg>