<svg xmlns="http://www.w3.org/2000/svg" xmlns:xlink="http://www.w3.org/1999/xlink" contentStyleType="text/css" data-diagram-type="SEQUENCE" height="761px" preserveAspectRatio="none" style="width:1159px;height:761px;background:#FFFFFF;" version="1.1" viewBox="0 0 1159 761" width="1159px" zoomAndPan="magnify"><?plantuml 1.2026.6?><defs/><g><g class="title" data-source-line="72"><text fill="#000000" font-family="sans-serif" font-size="14" font-weight="700" lengthAdjust="spacing" textLength="454.002" x="349.1875" y="27.9951">R21.4 &#8212; Device-link on known phone/email (no new user)</text></g><rect fill="none" height="439.4688" style="stroke:#000000;stroke-width:1.5;" width="1133.377" x="10" y="222.9922"/><rect fill="none" height="154.4688" style="stroke:#000000;stroke-width:1.5;" width="939.106" x="194.271" y="427.9219"/><g class="participant-lifeline" data-entity-uid="part1" data-qualified-name="User" data-source-line="74" id="part1-lifeline"><g><title>User</title><rect fill="#000000" fill-opacity="0.00000" height="560.8672" width="8" x="34.9551" y="118.5938"/><line style="stroke:#181818;stroke-width:0.5;stroke-dasharray:5,5;" x1="38" x2="38" y1="118.5938" y2="679.4609"/></g></g><g class="participant-lifeline" data-entity-uid="part2" data-qualified-name="Client" data-source-line="75" id="part2-lifeline"><g><title>Client</title><rect fill="#000000" fill-opacity="0.00000" height="560.8672" width="8" x="227.5361" y="118.5938"/><line style="stroke:#181818;stroke-width:0.5;stroke-dasharray:5,5;" x1="231.271" x2="231.271" y1="118.5938" y2="679.4609"/></g></g><g class="participant-lifeline" data-entity-uid="part3" data-qualified-name="Server" data-source-line="76" id="part3-lifeline"><g><title>Server</title><rect fill="#000000" fill-opacity="0.00000" height="560.8672" width="8" x="616.4375" y="118.5938"/><line style="stroke:#181818;stroke-width:0.5;stroke-dasharray:5,5;" x1="619.4824" x2="619.4824" y1="118.5938" y2="679.4609"/></g></g><g class="participant-lifeline" data-entity-uid="part4" data-qualified-name="Alt" data-source-line="77" id="part4-lifeline"><g><title>alt. index</title><rect fill="#000000" fill-opacity="0.00000" height="560.8672" width="8" x="1016.1616" y="118.5938"/><line style="stroke:#181818;stroke-width:0.5;stroke-dasharray:5,5;" x1="1019.3252" x2="1019.3252" y1="118.5938" y2="679.4609"/></g></g><g class="participant-lifeline" data-entity-uid="part5" data-qualified-name="Profiles" data-source-line="78" id="part5-lifeline"><g><title>Profiles</title><rect fill="#000000" fill-opacity="0.00000" height="560.8672" width="8" x="1090.6875" y="118.5938"/><line style="stroke:#181818;stroke-width:0.5;stroke-dasharray:5,5;" x1="1093.998" x2="1093.998" y1="118.5938" y2="679.4609"/></g></g><g class="participant participant-head" data-entity-uid="part1" data-qualified-name="User" data-source-line="74" id="part1-head"><text fill="#000000" font-family="sans-serif" font-size="14" lengthAdjust="spacing" textLength="31.9102" x="20" y="115.292">User</text><ellipse cx="38.9551" cy="50.7969" fill="#E2E2F0" rx="8" ry="8" style="stroke:#181818;stroke-width:0.5;"/><path d="M38.9551,58.7969 L38.9551,85.7969 M25.9551,66.7969 L51.9551,66.7969 M38.9551,85.7969 L25.9551,100.7969 M38.9551,85.7969 L51.9551,100.7969" fill="none" style="stroke:#181818;stroke-width:0.5;"/></g><g class="participant participant-tail" data-entity-uid="part1" data-qualified-name="User" data-source-line="74" id="part1-tail"><text fill="#000000" font-family="sans-serif" font-size="14" lengthAdjust="spacing" textLength="31.9102" x="20" y="691.4561">User</text><ellipse cx="38.9551" cy="703.2578" fill="#E2E2F0" rx="8" ry="8" style="stroke:#181818;stroke-width:0.5;"/><path d="M38.9551,711.2578 L38.9551,738.2578 M25.9551,719.2578 L51.9551,719.2578 M38.9551,738.2578 L25.9551,753.2578 M38.9551,738.2578 L51.9551,753.2578" fill="none" style="stroke:#181818;stroke-width:0.5;"/></g><g class="participant participant-head" data-entity-uid="part2" data-qualified-name="Client" data-source-line="75" id="part2-head"><rect fill="#E2E2F0" height="30.2969" rx="2.5" ry="2.5" style="stroke:#181818;stroke-width:0.5;" width="54.5303" x="204.271" y="87.2969"/><text fill="#000000" font-family="sans-serif" font-size="14" lengthAdjust="spacing" textLength="40.5303" x="211.271" y="107.292">Client</text></g><g class="participant participant-tail" data-entity-uid="part2" data-qualified-name="Client" data-source-line="75" id="part2-tail"><rect fill="#E2E2F0" height="30.2969" rx="2.5" ry="2.5" style="stroke:#181818;stroke-width:0.5;" width="54.5303" x="204.271" y="678.4609"/><text fill="#000000" font-family="sans-serif" font-size="14" lengthAdjust="spacing" textLength="40.5303" x="211.271" y="698.4561">Client</text></g><g class="participant participant-head" data-entity-uid="part3" data-qualified-name="Server" data-source-line="76" id="part3-head"><rect fill="#E2E2F0" height="30.2969" rx="2.5" ry="2.5" style="stroke:#181818;stroke-width:0.5;" width="59.9102" x="590.4824" y="87.2969"/><text fill="#000000" font-family="sans-serif" font-size="14" lengthAdjust="spacing" textLength="45.9102" x="597.4824" y="107.292">Server</text></g><g class="participant participant-tail" data-entity-uid="part3" data-qualified-name="Server" data-source-line="76" id="part3-tail"><rect fill="#E2E2F0" height="30.2969" rx="2.5" ry="2.5" style="stroke:#181818;stroke-width:0.5;" width="59.9102" x="590.4824" y="678.4609"/><text fill="#000000" font-family="sans-serif" font-size="14" lengthAdjust="spacing" textLength="45.9102" x="597.4824" y="698.4561">Server</text></g><g class="participant participant-head" data-entity-uid="part4" data-qualified-name="Alt" data-source-line="77" id="part4-head"><text fill="#000000" font-family="sans-serif" font-size="14" lengthAdjust="spacing" textLength="65.6729" x="984.3252" y="115.292">alt/ index</text><path d="M1002.1616,66.2969 C1002.1616,56.2969 1020.1616,56.2969 1020.1616,56.2969 C1020.1616,56.2969 1038.1616,56.2969 1038.1616,66.2969 L1038.1616,92.2969 C1038.1616,102.2969 1020.1616,102.2969 1020.1616,102.2969 C1020.1616,102.2969 1002.1616,102.2969 1002.1616,92.2969 L1002.1616,66.2969" fill="#E2E2F0" style="stroke:#181818;stroke-width:0.5;"/><path d="M1002.1616,66.2969 C1002.1616,76.2969 1020.1616,76.2969 1020.1616,76.2969 C1020.1616,76.2969 1038.1616,76.2969 1038.1616,66.2969" fill="none" style="stroke:#181818;stroke-width:0.5;"/></g><g class="participant participant-tail" data-entity-uid="part4" data-qualified-name="Alt" data-source-line="77" id="part4-tail"><text fill="#000000" font-family="sans-serif" font-size="14" lengthAdjust="spacing" textLength="65.6729" x="984.3252" y="691.4561">alt/ index</text><path d="M1002.1616,704.7578 C1002.1616,694.7578 1020.1616,694.7578 1020.1616,694.7578 C1020.1616,694.7578 1038.1616,694.7578 1038.1616,704.7578 L1038.1616,730.7578 C1038.1616,740.7578 1020.1616,740.7578 1020.1616,740.7578 C1020.1616,740.7578 1002.1616,740.7578 1002.1616,730.7578 L1002.1616,704.7578" fill="#E2E2F0" style="stroke:#181818;stroke-width:0.5;"/><path d="M1002.1616,704.7578 C1002.1616,714.7578 1020.1616,714.7578 1020.1616,714.7578 C1020.1616,714.7578 1038.1616,714.7578 1038.1616,704.7578" fill="none" style="stroke:#181818;stroke-width:0.5;"/></g><g class="participant participant-head" data-entity-uid="part5" data-qualified-name="Profiles" data-source-line="78" id="part5-head"><text fill="#000000" font-family="sans-serif" font-size="14" lengthAdjust="spacing" textLength="51.3789" x="1065.998" y="115.292">Profiles</text><path d="M1076.6875,66.2969 C1076.6875,56.2969 1094.6875,56.2969 1094.6875,56.2969 C1094.6875,56.2969 1112.6875,56.2969 1112.6875,66.2969 L1112.6875,92.2969 C1112.6875,102.2969 1094.6875,102.2969 1094.6875,102.2969 C1094.6875,102.2969 1076.6875,102.2969 1076.6875,92.2969 L1076.6875,66.2969" fill="#E2E2F0" style="stroke:#181818;stroke-width:0.5;"/><path d="M1076.6875,66.2969 C1076.6875,76.2969 1094.6875,76.2969 1094.6875,76.2969 C1094.6875,76.2969 1112.6875,76.2969 1112.6875,66.2969" fill="none" style="stroke:#181818;stroke-width:0.5;"/></g><g class="participant participant-tail" data-entity-uid="part5" data-qualified-name="Profiles" data-source-line="78" id="part5-tail"><text fill="#000000" font-family="sans-serif" font-size="14" lengthAdjust="spacing" textLength="51.3789" x="1065.998" y="691.4561">Profiles</text><path d="M1076.6875,704.7578 C1076.6875,694.7578 1094.6875,694.7578 1094.6875,694.7578 C1094.6875,694.7578 1112.6875,694.7578 1112.6875,704.7578 L1112.6875,730.7578 C1112.6875,740.7578 1094.6875,740.7578 1094.6875,740.7578 C1094.6875,740.7578 1076.6875,740.7578 1076.6875,730.7578 L1076.6875,704.7578" fill="#E2E2F0" style="stroke:#181818;stroke-width:0.5;"/><path d="M1076.6875,704.7578 C1076.6875,714.7578 1094.6875,714.7578 1094.6875,714.7578 C1094.6875,714.7578 1112.6875,714.7578 1112.6875,704.7578" fill="none" style="stroke:#181818;stroke-width:0.5;"/></g><g class="message" data-entity-1="part1" data-entity-2="part2" data-source-line="80" id="msg1"><polygon fill="#181818" points="219.5361,145.7266,229.5361,149.7266,219.5361,153.7266,223.5361,149.7266" style="stroke:#181818;stroke-width:1;stroke-linejoin:miter;stroke-miterlimit:10;"/><line style="stroke:#181818;stroke-width:1;" x1="38.9551" x2="225.5361" y1="149.7266" y2="149.7266"/><text fill="#000000" font-family="sans-serif" font-size="13" lengthAdjust="spacing" textLength="168.5811" x="45.9551" y="144.6606">connect with phone/email</text></g><g class="message" data-entity-1="part2" data-entity-2="part3" data-source-line="81" id="msg2"><polygon fill="#181818" points="608.4375,174.8594,618.4375,178.8594,608.4375,182.8594,612.4375,178.8594" style="stroke:#181818;stroke-width:1;stroke-linejoin:miter;stroke-miterlimit:10;"/><line style="stroke:#181818;stroke-width:1;" x1="231.5361" x2="614.4375" y1="178.8594" y2="178.8594"/><text fill="#000000" font-family="sans-serif" font-size="13" lengthAdjust="spacing" textLength="345.2554" x="238.5361" y="173.7935">IDENTIFY { playerToken?, phone?, email?, deviceId }</text></g><g class="message" data-entity-1="part3" data-entity-2="part4" data-source-line="82" id="msg3"><polygon fill="#181818" points="1008.1616,203.9922,1018.1616,207.9922,1008.1616,211.9922,1012.1616,207.9922" style="stroke:#181818;stroke-width:1;stroke-linejoin:miter;stroke-miterlimit:10;"/><line style="stroke:#181818;stroke-width:1;" x1="620.4375" x2="1014.1616" y1="207.9922" y2="207.9922"/><text fill="#000000" font-family="sans-serif" font-size="13" lengthAdjust="spacing" textLength="375.7241" x="627.4375" y="202.9263">resolveKeyToProfile(phone) ?? resolveKeyToProfile(email)</text></g><path d="M10,222.9922 L74.4429,222.9922 L74.4429,230.125 L64.4429,240.125 L10,240.125 L10,222.9922" fill="#EEEEEE" style="stroke:#000000;stroke-width:1.5;"/><rect fill="none" height="439.4688" style="stroke:#000000;stroke-width:1.5;" width="1133.377" x="10" y="222.9922"/><text fill="#000000" font-family="sans-serif" font-size="13" font-weight="700" lengthAdjust="spacing" textLength="19.4429" x="25" y="236.0591">alt</text><text fill="#000000" font-family="sans-serif" font-size="11" font-weight="700" lengthAdjust="spacing" textLength="187.4243" x="89.4429" y="235.2026">[key found (existing identity)]</text><g class="message" data-entity-1="part4" data-entity-2="part3" data-source-line="84" id="msg4"><polygon fill="#181818" points="631.4375,257.2578,621.4375,261.2578,631.4375,265.2578,627.4375,261.2578" style="stroke:#181818;stroke-width:1;stroke-linejoin:miter;stroke-miterlimit:10;"/><line style="stroke:#181818;stroke-width:1;stroke-dasharray:2,2;" x1="625.4375" x2="1019.1616" y1="261.2578" y2="261.2578"/><text fill="#000000" font-family="sans-serif" font-size="13" lengthAdjust="spacing" textLength="252.8716" x="637.4375" y="256.1919">profileUuid (via symlink -&gt; Profile unit)</text></g><g class="message" data-entity-1="part3" data-entity-2="part2" data-source-line="85" id="msg5"><polygon fill="#181818" points="242.5361,286.3906,232.5361,290.3906,242.5361,294.3906,238.5361,290.3906" style="stroke:#181818;stroke-width:1;stroke-linejoin:miter;stroke-miterlimit:10;"/><line style="stroke:#181818;stroke-width:1;" x1="236.5361" x2="619.4375" y1="290.3906" y2="290.3906"/><text fill="#000000" font-family="sans-serif" font-size="13" lengthAdjust="spacing" textLength="364.9014" x="248.5361" y="285.3247">KNOWN_KEY_CHALLENGE { profileUuid, maskedName }</text></g><path d="M625,303.3906 L625,328.3906 L863,328.3906 L863,313.3906 L853,303.3906 L625,303.3906" fill="#FEFFDD" style="stroke:#181818;stroke-width:0.5;"/><path d="M853,303.3906 L853,313.3906 L863,313.3906 L853,303.3906" fill="#FEFFDD" style="stroke:#181818;stroke-width:0.5;"/><text fill="#000000" font-family="sans-serif" font-size="13" lengthAdjust="spacing" textLength="217.1216" x="631" y="320.4575">DO NOT mint, DO NOT attach yet</text><g class="message" data-entity-1="part1" data-entity-2="part2" data-source-line="87" id="msg6"><polygon fill="#181818" points="219.5361,350.6563,229.5361,354.6563,219.5361,358.6563,223.5361,354.6563" style="stroke:#181818;stroke-width:1;stroke-linejoin:miter;stroke-miterlimit:10;"/><line style="stroke:#181818;stroke-width:1;" x1="38.9551" x2="225.5361" y1="354.6563" y2="354.6563"/><text fill="#000000" font-family="sans-serif" font-size="13" lengthAdjust="spacing" textLength="120.834" x="45.9551" y="349.5903">enter secret CODE</text></g><g class="message" data-entity-1="part2" data-entity-2="part3" data-source-line="88" id="msg7"><polygon fill="#181818" points="608.4375,379.7891,618.4375,383.7891,608.4375,387.7891,612.4375,383.7891" style="stroke:#181818;stroke-width:1;stroke-linejoin:miter;stroke-miterlimit:10;"/><line style="stroke:#181818;stroke-width:1;" x1="231.5361" x2="614.4375" y1="383.7891" y2="383.7891"/><text fill="#000000" font-family="sans-serif" font-size="13" lengthAdjust="spacing" textLength="356.1416" x="238.5361" y="378.7231">DEVICE_ENROLL_REQUEST { profileUuid, secretCode }</text></g><g class="message" data-entity-1="part3" data-entity-2="part5" data-source-line="89" id="msg8"><polygon fill="#181818" points="1082.6875,408.9219,1092.6875,412.9219,1082.6875,416.9219,1086.6875,412.9219" style="stroke:#181818;stroke-width:1;stroke-linejoin:miter;stroke-miterlimit:10;"/><line style="stroke:#181818;stroke-width:1;" x1="620.4375" x2="1088.6875" y1="412.9219" y2="412.9219"/><text fill="#000000" font-family="sans-serif" font-size="13" lengthAdjust="spacing" textLength="336.4639" x="627.4375" y="407.856">validate secretCode (existing check server.ts:1974)</text></g><path d="M194.271,427.9219 L258.7139,427.9219 L258.7139,435.0547 L248.7139,445.0547 L194.271,445.0547 L194.271,427.9219" fill="#EEEEEE" style="stroke:#000000;stroke-width:1.5;"/><rect fill="none" height="154.4688" style="stroke:#000000;stroke-width:1.5;" width="939.106" x="194.271" y="427.9219"/><text fill="#000000" font-family="sans-serif" font-size="13" font-weight="700" lengthAdjust="spacing" textLength="19.4429" x="209.271" y="440.9888">alt</text><text fill="#000000" font-family="sans-serif" font-size="11" font-weight="700" lengthAdjust="spacing" textLength="87.4629" x="273.7139" y="440.1323">[correct code]</text><g class="message" data-entity-1="part3" data-entity-2="part5" data-source-line="91" id="msg9"><polygon fill="#181818" points="1082.6875,462.1875,1092.6875,466.1875,1082.6875,470.1875,1086.6875,466.1875" style="stroke:#181818;stroke-width:1;stroke-linejoin:miter;stroke-miterlimit:10;"/><line style="stroke:#181818;stroke-width:1;" x1="620.4375" x2="1088.6875" y1="466.1875" y2="466.1875"/><text fill="#000000" font-family="sans-serif" font-size="13" lengthAdjust="spacing" textLength="250.8467" x="627.4375" y="461.1216">attach NEW device to EXISTING profile</text></g><g class="message" data-entity-1="part3" data-entity-2="part2" data-source-line="92" id="msg10"><polygon fill="#181818" points="242.5361,491.3203,232.5361,495.3203,242.5361,499.3203,238.5361,495.3203" style="stroke:#181818;stroke-width:1;stroke-linejoin:miter;stroke-miterlimit:10;"/><line style="stroke:#181818;stroke-width:1;" x1="236.5361" x2="619.4375" y1="495.3203" y2="495.3203"/><text fill="#000000" font-family="sans-serif" font-size="13" lengthAdjust="spacing" textLength="237.4531" x="248.5361" y="490.2544">DEVICE_ENROLL_OK { device keys }</text></g><line style="stroke:#000000;stroke-width:1;stroke-dasharray:2,2;" x1="194.271" x2="1133.377" y1="504.3203" y2="504.3203"/><text fill="#000000" font-family="sans-serif" font-size="11" font-weight="700" lengthAdjust="spacing" textLength="102.9746" x="199.271" y="514.5308">[wrong / absent]</text><g class="message" data-entity-1="part3" data-entity-2="part2" data-source-line="94" id="msg11"><polygon fill="#181818" points="242.5361,535.2578,232.5361,539.2578,242.5361,543.2578,238.5361,539.2578" style="stroke:#181818;stroke-width:1;stroke-linejoin:miter;stroke-miterlimit:10;"/><line style="stroke:#181818;stroke-width:1;" x1="236.5361" x2="619.4375" y1="539.2578" y2="539.2578"/><text fill="#000000" font-family="sans-serif" font-size="13" lengthAdjust="spacing" textLength="158.6025" x="248.5361" y="534.1919">DEVICE_ENROLL_FAILED</text></g><path d="M625,552.2578 L625,577.2578 L867,577.2578 L867,562.2578 L857,552.2578 L625,552.2578" fill="#FEFFDD" style="stroke:#181818;stroke-width:0.5;"/><path d="M857,552.2578 L857,562.2578 L867,562.2578 L857,552.2578" fill="#FEFFDD" style="stroke:#181818;stroke-width:0.5;"/><text fill="#000000" font-family="sans-serif" font-size="13" lengthAdjust="spacing" textLength="221.8188" x="631" y="569.3247">no device, no merge, no new user</text><line style="stroke:#000000;stroke-width:1;stroke-dasharray:2,2;" x1="10" x2="1143.377" y1="590.3906" y2="590.3906"/><text fill="#000000" font-family="sans-serif" font-size="11" font-weight="700" lengthAdjust="spacing" textLength="185.104" x="15" y="600.6011">[no key match (new identity)]</text><g class="message" data-entity-1="part3" data-entity-2="part5" data-source-line="98" id="msg12"><polygon fill="#181818" points="1082.6875,621.3281,1092.6875,625.3281,1082.6875,629.3281,1086.6875,625.3281" style="stroke:#181818;stroke-width:1;stroke-linejoin:miter;stroke-miterlimit:10;"/><line style="stroke:#181818;stroke-width:1;" x1="620.4375" x2="1088.6875" y1="625.3281" y2="625.3281"/><text fill="#000000" font-family="sans-serif" font-size="13" lengthAdjust="spacing" textLength="268.6646" x="627.4375" y="620.2622">existing IDENTIFY mint path (unchanged)</text></g><g class="message" data-entity-1="part3" data-entity-2="part2" data-source-line="99" id="msg13"><polygon fill="#181818" points="242.5361,650.4609,232.5361,654.4609,242.5361,658.4609,238.5361,654.4609" style="stroke:#181818;stroke-width:1;stroke-linejoin:miter;stroke-miterlimit:10;"/><line style="stroke:#181818;stroke-width:1;" x1="236.5361" x2="619.4375" y1="654.4609" y2="654.4609"/><text fill="#000000" font-family="sans-serif" font-size="13" lengthAdjust="spacing" textLength="144.6313" x="248.5361" y="649.395">welcome (new profile)</text></g><?plantuml-src ZLDTRzem57tFhxZg4qXGrAdIj3uC8U9s4IZP8Aph4tAT2x58REGOQ5HDse_OBzmlsNKIFjg1j9SujkyvzzphSwsq6SBamytrBVpvzHjyt4g1tKog5MW5AwLt2jQfLjZ3dCiCMag3mXri2ZHjp-F2QWCpsdXhRgmKSisLXM4cKTatHrCqMufAkENFl42uufdjWLG9lbm1Bs2GsPFBhqOlP8P5TRNVU9vB1DtF3J_SWT1AeR2mapOzrUar4HHR9wROm6TX7Dm_mIkiCrwYYVKALRzJusYjaBGcLHE217vw3PXeI1zn62nqjiKHbh5kPBKgU1lw_REt5MdResfXXIKiz4ObqC8NMLYfbY0JaYbjsVQWIj4zLRokEMORIP2jv52KUVKq5DJmmqP9wy17fOVcZCBeCPoFsDDy-6Km7hFmWRdQZwGTo7cnmYJaELAn04fR12ENgGMzEEhm8mYZ67AfR6U_uTPoaKA9bd3_l0jzwQH0OP3S4FcCWiuyYS--1qCsP-4a6e_d4_PjngRnUuqror0djSPZeNjV4D6MPvBSWwV1noQB5CMAhXpmsXPtDvy-thgUkKSHsXZd844GEhh0trGRiiV67M0ri1_1D0x2XxtST_13CzvM6Osem8Q4755KHM56hjyPJM9xm9yBDpt_nNO_2CRChs8lF1uDR9sjutvpDClwRp_5BhjAl4e17JkJvjnIiIqNSUhFivqvDFamNiuciEOqaAsD4YbNIqmkE7I7cT3alIfLqyMsv-Jy1G00?></g></svg>