<?plantuml 1.2026.2?><svg xmlns="http://www.w3.org/2000/svg" xmlns:xlink="http://www.w3.org/1999/xlink" contentStyleType="text/css" data-diagram-type="SEQUENCE" height="2095px" preserveAspectRatio="none" style="width:1197px;height:2095px;background:#FFFFFF;" version="1.1" viewBox="0 0 1197 2095" width="1197px" zoomAndPan="magnify"><title>SSH Challenge-Response Authentication (T12)</title><defs/><g><text fill="#000000" font-family="Verdana" font-size="22" font-weight="bold" lengthAdjust="spacing" textLength="575.5127" x="309.6921" y="37.1182">SSH Challenge-Response Authentication (T12)</text><rect fill="#FFFFFF" height="1361.2466" style="stroke:#000000;stroke-width:1;" width="1165.897" x="15" y="347.5625"/><rect fill="#FFFFFF" height="517.7271" style="stroke:#000000;stroke-width:1;" width="1096.0635" x="25" y="768.7529"/><rect fill="#FFFFFF" height="352.3618" style="stroke:#000000;stroke-width:1;" width="893.9004" x="35" y="852.1509"/><rect fill="#FFFFFF" height="110.7666" style="stroke:none;stroke-width:1;" width="893.9004" x="35" y="1093.7461"/><rect fill="#FFFFFF" height="74.9673" style="stroke:none;stroke-width:1;" width="1096.0635" x="25" y="1211.5127"/><rect fill="#FFFFFF" height="311.9312" style="stroke:none;stroke-width:1;" width="1165.897" x="15" y="1396.8779"/><rect fill="#FFFFFF" height="136.3652" style="stroke:#000000;stroke-width:1;" width="344.7944" x="31" y="1565.4438"/><rect fill="#FFFFFF" height="66.9673" style="stroke:none;stroke-width:1;" width="344.7944" x="31" y="1634.8418"/><g class="participant-lifeline" data-entity-uid="part1" data-qualified-name="U" id="part1-lifeline"><g><title>User</title><rect fill="#000000" fill-opacity="0.00000" height="1866.835" width="8" x="46.9277" y="132.7666"/><line style="stroke:#000000;stroke-width:1;stroke-dasharray:5,5;" x1="50" x2="50" y1="132.7666" y2="1999.6016"/></g></g><g class="participant-lifeline" data-entity-uid="part2" data-qualified-name="C" id="part2-lifeline"><g><title>Browser</title><rect fill="#000000" fill-opacity="0.00000" height="1866.835" width="8" x="145.2495" y="132.7666"/><line style="stroke:#000000;stroke-width:1;stroke-dasharray:5,5;" x1="148.8555" x2="148.8555" y1="132.7666" y2="1999.6016"/></g></g><g class="participant-lifeline" data-entity-uid="part3" data-qualified-name="S" id="part3-lifeline"><g><title>Server</title><rect fill="#000000" fill-opacity="0.00000" height="1866.835" width="8" x="525.8862" y="132.7666"/><line style="stroke:#000000;stroke-width:1;stroke-dasharray:5,5;" x1="529.4731" x2="529.4731" y1="132.7666" y2="1999.6016"/></g></g><g class="participant-lifeline" data-entity-uid="part4" data-qualified-name="K" id="part4-lifeline"><g><title>UserKeys.ts</title><rect fill="#000000" fill-opacity="0.00000" height="1866.835" width="8" x="856.2114" y="132.7666"/><line style="stroke:#000000;stroke-width:1;stroke-dasharray:5,5;" x1="859.5225" x2="859.5225" y1="132.7666" y2="1999.6016"/></g></g><g class="participant-lifeline" data-entity-uid="part5" data-qualified-name="SSH" id="part5-lifeline"><g><title>data.users.</title><rect fill="#000000" fill-opacity="0.00000" height="1866.835" width="8" x="1112.0635" y="132.7666"/><line style="stroke:#000000;stroke-width:1;stroke-dasharray:5,5;" x1="1115.23" x2="1115.23" y1="132.7666" y2="1999.6016"/></g></g><g class="participant participant-head" data-entity-uid="part1" data-qualified-name="U" id="part1-head"><text fill="#000000" font-family="Verdana" font-size="14" lengthAdjust="spacing" textLength="31.8555" x="32" y="129.8271">User</text><ellipse cx="50.9277" cy="63.752" fill="#FFFFFF" rx="8" ry="8" style="stroke:#000000;stroke-width:1;"/><path d="M50.9277,71.752 L50.9277,98.752 M37.9277,79.752 L63.9277,79.752 M50.9277,98.752 L37.9277,113.752 M50.9277,98.752 L63.9277,113.752" fill="none" style="stroke:#000000;stroke-width:1;"/></g><g class="participant participant-tail" data-entity-uid="part1" data-qualified-name="U" id="part1-tail"><text fill="#000000" font-family="Verdana" font-size="14" lengthAdjust="spacing" textLength="31.8555" x="32" y="2012.6768">User</text><ellipse cx="50.9277" cy="2024.6162" fill="#FFFFFF" rx="8" ry="8" style="stroke:#000000;stroke-width:1;"/><path d="M50.9277,2032.6162 L50.9277,2059.6162 M37.9277,2040.6162 L63.9277,2040.6162 M50.9277,2059.6162 L37.9277,2074.6162 M50.9277,2059.6162 L63.9277,2074.6162" fill="none" style="stroke:#000000;stroke-width:1;"/></g><g class="participant participant-head" data-entity-uid="part2" data-qualified-name="C" id="part2-head"><rect fill="#FFFFFF" height="48.0293" rx="2.5" ry="2.5" style="stroke:#000000;stroke-width:1;" width="118.7881" x="89.8555" y="83.7373"/><text fill="#000000" font-family="Verdana" font-size="14" lengthAdjust="spacing" textLength="57.1348" x="120.6821" y="104.8125">Browser</text><text fill="#000000" font-family="Verdana" font-size="14" lengthAdjust="spacing" textLength="104.7881" x="96.8555" y="121.8271">(RawBinClient)</text></g><g class="participant participant-tail" data-entity-uid="part2" data-qualified-name="C" id="part2-tail"><rect fill="#FFFFFF" height="48.0293" rx="2.5" ry="2.5" style="stroke:#000000;stroke-width:1;" width="118.7881" x="89.8555" y="1998.6016"/><text fill="#000000" font-family="Verdana" font-size="14" lengthAdjust="spacing" textLength="57.1348" x="120.6821" y="2019.6768">Browser</text><text fill="#000000" font-family="Verdana" font-size="14" lengthAdjust="spacing" textLength="104.7881" x="96.8555" y="2036.6914">(RawBinClient)</text></g><g class="participant participant-head" data-entity-uid="part3" data-qualified-name="S" id="part3-head"><rect fill="#FFFFFF" height="48.0293" rx="2.5" ry="2.5" style="stroke:#000000;stroke-width:1;" width="88.8262" x="485.4731" y="83.7373"/><text fill="#000000" font-family="Verdana" font-size="14" lengthAdjust="spacing" textLength="46.4844" x="506.644" y="104.8125">Server</text><text fill="#000000" font-family="Verdana" font-size="14" lengthAdjust="spacing" textLength="74.8262" x="492.4731" y="121.8271">(server.ts)</text></g><g class="participant participant-tail" data-entity-uid="part3" data-qualified-name="S" id="part3-tail"><rect fill="#FFFFFF" height="48.0293" rx="2.5" ry="2.5" style="stroke:#000000;stroke-width:1;" width="88.8262" x="485.4731" y="1998.6016"/><text fill="#000000" font-family="Verdana" font-size="14" lengthAdjust="spacing" textLength="46.4844" x="506.644" y="2019.6768">Server</text><text fill="#000000" font-family="Verdana" font-size="14" lengthAdjust="spacing" textLength="74.8262" x="492.4731" y="2036.6914">(server.ts)</text></g><g class="participant participant-head" data-entity-uid="part4" data-qualified-name="K" id="part4-head"><rect fill="#FFFFFF" height="31.0146" rx="2.5" ry="2.5" style="stroke:#000000;stroke-width:1;" width="97.3779" x="811.5225" y="100.752"/><text fill="#000000" font-family="Verdana" font-size="14" lengthAdjust="spacing" textLength="83.3779" x="818.5225" y="121.8271">UserKeys.ts</text></g><g class="participant participant-tail" data-entity-uid="part4" data-qualified-name="K" id="part4-tail"><rect fill="#FFFFFF" height="31.0146" rx="2.5" ry="2.5" style="stroke:#000000;stroke-width:1;" width="97.3779" x="811.5225" y="1998.6016"/><text fill="#000000" font-family="Verdana" font-size="14" lengthAdjust="spacing" textLength="83.3779" x="818.5225" y="2019.6768">UserKeys.ts</text></g><g class="participant participant-head" data-entity-uid="part5" data-qualified-name="SSH" id="part5-head"><text fill="#000000" font-family="Verdana" font-size="14" lengthAdjust="spacing" textLength="81.5322" x="1072.2974" y="112.8125">data/users/</text><text fill="#000000" font-family="Verdana" font-size="14" lengthAdjust="spacing" textLength="103.667" x="1061.23" y="129.8271">&lt;token&gt;/.ssh/</text><path d="M1098.0635,62.7373 C1098.0635,52.7373 1116.0635,52.7373 1116.0635,52.7373 C1116.0635,52.7373 1134.0635,52.7373 1134.0635,62.7373 L1134.0635,88.7373 C1134.0635,98.7373 1116.0635,98.7373 1116.0635,98.7373 C1116.0635,98.7373 1098.0635,98.7373 1098.0635,88.7373 L1098.0635,62.7373" fill="#FFFFFF" style="stroke:#000000;stroke-width:1;"/><path d="M1098.0635,62.7373 C1098.0635,72.7373 1116.0635,72.7373 1116.0635,72.7373 C1116.0635,72.7373 1134.0635,72.7373 1134.0635,62.7373" fill="none" style="stroke:#000000;stroke-width:1;"/></g><g class="participant participant-tail" data-entity-uid="part5" data-qualified-name="SSH" id="part5-tail"><text fill="#000000" font-family="Verdana" font-size="14" lengthAdjust="spacing" textLength="81.5322" x="1072.2974" y="2012.6768">data/users/</text><text fill="#000000" font-family="Verdana" font-size="14" lengthAdjust="spacing" textLength="103.667" x="1061.23" y="2029.6914">&lt;token&gt;/.ssh/</text><path d="M1098.0635,2042.6309 C1098.0635,2032.6309 1116.0635,2032.6309 1116.0635,2032.6309 C1116.0635,2032.6309 1134.0635,2032.6309 1134.0635,2042.6309 L1134.0635,2068.6309 C1134.0635,2078.6309 1116.0635,2078.6309 1116.0635,2078.6309 C1116.0635,2078.6309 1098.0635,2078.6309 1098.0635,2068.6309 L1098.0635,2042.6309" fill="#FFFFFF" style="stroke:#000000;stroke-width:1;"/><path d="M1098.0635,2042.6309 C1098.0635,2052.6309 1116.0635,2052.6309 1116.0635,2052.6309 C1116.0635,2052.6309 1134.0635,2052.6309 1134.0635,2042.6309" fill="none" style="stroke:#000000;stroke-width:1;"/></g><rect fill="#FFFFFF" height="3" style="stroke:#FFFFFF;stroke-width:1;" width="1185.897" x="5" y="163.6663"/><line style="stroke:#000000;stroke-width:0.5;" x1="5" x2="1190.897" y1="163.6663" y2="163.6663"/><line style="stroke:#000000;stroke-width:0.5;" x1="5" x2="1190.897" y1="166.6663" y2="166.6663"/><rect fill="#FFFFFF" height="23.7993" style="stroke:#000000;stroke-width:1;" width="263.8184" x="466.0393" y="152.7666"/><text fill="#000000" font-family="Verdana" font-size="13" font-weight="bold" lengthAdjust="spacing" textLength="245.375" x="472.0393" y="169.8364">Returning User &#8212; Enrolled Device</text><g class="message" data-entity-1="part2" data-entity-2="part3" id="msg1"><polygon fill="#000000" points="517.8862,204.3652,527.8862,208.3652,517.8862,212.3652,521.8862,208.3652" style="stroke:#000000;stroke-width:1;"/><line style="stroke:#000000;stroke-width:1;" x1="149.2495" x2="523.8862" y1="208.3652" y2="208.3652"/><text fill="#000000" font-family="Verdana" font-size="13" lengthAdjust="spacing" textLength="128.1338" x="275.501" y="203.6357">WebSocket connect</text></g><g class="message" data-entity-1="part3" data-entity-2="part3" id="msg2"><line style="stroke:#000000;stroke-width:1;" x1="529.8862" x2="571.8862" y1="238.1646" y2="238.1646"/><line style="stroke:#000000;stroke-width:1;" x1="571.8862" x2="571.8862" y1="238.1646" y2="251.1646"/><line style="stroke:#000000;stroke-width:1;" x1="530.8862" x2="571.8862" y1="251.1646" y2="251.1646"/><polygon fill="#000000" points="540.8862,247.1646,530.8862,251.1646,540.8862,255.1646,536.8862,251.1646" style="stroke:#000000;stroke-width:1;"/><text fill="#000000" font-family="Verdana" font-size="13" lengthAdjust="spacing" textLength="282.3882" x="536.8862" y="233.4351">challenge = crypto.randomBytes(32).hex()</text></g><g class="message" data-entity-1="part3" data-entity-2="part2" id="msg3"><polygon fill="#000000" points="160.2495,276.9639,150.2495,280.9639,160.2495,284.9639,156.2495,280.9639" style="stroke:#000000;stroke-width:1;"/><line style="stroke:#000000;stroke-width:1;" x1="154.2495" x2="528.8862" y1="280.9639" y2="280.9639"/><text fill="#000000" font-family="Verdana" font-size="13" lengthAdjust="spacing" textLength="206.8447" x="236.1455" y="276.2344">welcome { clientId, challenge }</text></g><path d="M55,293.9639 L55,334.9639 L243,334.9639 L243,303.9639 L233,293.9639 L55,293.9639" fill="#FFFFFF" style="stroke:#000000;stroke-width:1;"/><path d="M233,293.9639 L233,303.9639 L243,303.9639 L233,293.9639" fill="#FFFFFF" style="stroke:#000000;stroke-width:1;"/><text fill="#000000" font-family="Verdana" font-size="13" lengthAdjust="spacing" textLength="145.063" x="61" y="312.0337">check localStorage for</text><text fill="#000000" font-family="Verdana" font-size="13" lengthAdjust="spacing" textLength="167.3433" x="61" y="327.833">rawbin-device-privateKey</text><path d="M15,347.5625 L79.0493,347.5625 L79.0493,355.3618 L69.0493,365.3618 L15,365.3618 L15,347.5625" fill="#FFFFFF" style="stroke:#000000;stroke-width:1;"/><rect fill="none" height="1361.2466" style="stroke:#000000;stroke-width:1;" width="1165.897" x="15" y="347.5625"/><text fill="#000000" font-family="Verdana" font-size="13" font-weight="bold" lengthAdjust="spacing" textLength="19.0493" x="30" y="361.6323">alt</text><text fill="#000000" font-family="Verdana" font-size="11" font-weight="bold" lengthAdjust="spacing" textLength="177.0044" x="94.0493" y="360.6216">[Has device keys (enrolled)]</text><g class="message" data-entity-1="part2" data-entity-2="part2" id="msg4"><line style="stroke:#000000;stroke-width:1;" x1="149.2495" x2="191.2495" y1="387.1611" y2="387.1611"/><line style="stroke:#000000;stroke-width:1;" x1="191.2495" x2="191.2495" y1="387.1611" y2="400.1611"/><line style="stroke:#000000;stroke-width:1;" x1="150.2495" x2="191.2495" y1="400.1611" y2="400.1611"/><polygon fill="#000000" points="160.2495,396.1611,150.2495,400.1611,160.2495,404.1611,156.2495,400.1611" style="stroke:#000000;stroke-width:1;"/><text fill="#000000" font-family="Verdana" font-size="13" lengthAdjust="spacing" textLength="285.6064" x="156.2495" y="382.4316">PEM &#8594; DER (strip headers, base64 decode)</text></g><g class="message" data-entity-1="part2" data-entity-2="part2" id="msg5"><line style="stroke:#000000;stroke-width:1;" x1="149.2495" x2="191.2495" y1="429.9604" y2="429.9604"/><line style="stroke:#000000;stroke-width:1;" x1="191.2495" x2="191.2495" y1="429.9604" y2="442.9604"/><line style="stroke:#000000;stroke-width:1;" x1="150.2495" x2="191.2495" y1="442.9604" y2="442.9604"/><polygon fill="#000000" points="160.2495,438.9604,150.2495,442.9604,160.2495,446.9604,156.2495,442.9604" style="stroke:#000000;stroke-width:1;"/><text fill="#000000" font-family="Verdana" font-size="13" lengthAdjust="spacing" textLength="280.6299" x="156.2495" y="425.231">crypto.subtle.importKey('pkcs8', der, RSA)</text></g><g class="message" data-entity-1="part2" data-entity-2="part2" id="msg6"><line style="stroke:#000000;stroke-width:1;" x1="149.2495" x2="191.2495" y1="472.7598" y2="472.7598"/><line style="stroke:#000000;stroke-width:1;" x1="191.2495" x2="191.2495" y1="472.7598" y2="485.7598"/><line style="stroke:#000000;stroke-width:1;" x1="150.2495" x2="191.2495" y1="485.7598" y2="485.7598"/><polygon fill="#000000" points="160.2495,481.7598,150.2495,485.7598,160.2495,489.7598,156.2495,485.7598" style="stroke:#000000;stroke-width:1;"/><text fill="#000000" font-family="Verdana" font-size="13" lengthAdjust="spacing" textLength="258.6924" x="156.2495" y="468.0303">challengeBytes = hex decode challenge</text></g><g class="message" data-entity-1="part2" data-entity-2="part2" id="msg7"><line style="stroke:#000000;stroke-width:1;" x1="149.2495" x2="191.2495" y1="531.3584" y2="531.3584"/><line style="stroke:#000000;stroke-width:1;" x1="191.2495" x2="191.2495" y1="531.3584" y2="544.3584"/><line style="stroke:#000000;stroke-width:1;" x1="150.2495" x2="191.2495" y1="544.3584" y2="544.3584"/><polygon fill="#000000" points="160.2495,540.3584,150.2495,544.3584,160.2495,548.3584,156.2495,544.3584" style="stroke:#000000;stroke-width:1;"/><text fill="#000000" font-family="Verdana" font-size="13" lengthAdjust="spacing" textLength="203.582" x="205.7581" y="510.8296">signature = crypto.subtle.sign(</text><text fill="#000000" font-family="Verdana" font-size="13" lengthAdjust="spacing" textLength="293.4585" x="165.3901" y="526.6289">'RSASSA-PKCS1-v1_5', key, challengeBytes)</text></g><g class="message" data-entity-1="part2" data-entity-2="part2" id="msg8"><line style="stroke:#000000;stroke-width:1;" x1="149.2495" x2="191.2495" y1="574.1577" y2="574.1577"/><line style="stroke:#000000;stroke-width:1;" x1="191.2495" x2="191.2495" y1="574.1577" y2="587.1577"/><line style="stroke:#000000;stroke-width:1;" x1="150.2495" x2="191.2495" y1="587.1577" y2="587.1577"/><polygon fill="#000000" points="160.2495,583.1577,150.2495,587.1577,160.2495,591.1577,156.2495,587.1577" style="stroke:#000000;stroke-width:1;"/><text fill="#000000" font-family="Verdana" font-size="13" lengthAdjust="spacing" textLength="228.1919" x="156.2495" y="569.4282">signedChallenge = btoa(signature)</text></g><g class="message" data-entity-1="part2" data-entity-2="part3" id="msg9"><polygon fill="#000000" points="517.8862,660.355,527.8862,664.355,517.8862,668.355,521.8862,664.355" style="stroke:#000000;stroke-width:1;"/><line style="stroke:#000000;stroke-width:1;" x1="149.2495" x2="523.8862" y1="664.355" y2="664.355"/><text fill="#000000" font-family="Verdana" font-size="13" lengthAdjust="spacing" textLength="107.1611" x="285.9873" y="612.2275">DEVICE_AUTH {</text><text fill="#000000" font-family="Verdana" font-size="13" lengthAdjust="spacing" textLength="253.4873" x="217.3945" y="628.0269">devicePublicKey: localStorage pubKey,</text><text fill="#000000" font-family="Verdana" font-size="13" lengthAdjust="spacing" textLength="163.998" x="262.1392" y="643.8262">signedChallenge: base64</text><text fill="#000000" font-family="Verdana" font-size="13" lengthAdjust="spacing" textLength="8.252" x="335.4419" y="659.6255">}</text></g><g class="message" data-entity-1="part3" data-entity-2="part4" id="msg10"><polygon fill="#000000" points="848.2114,690.1543,858.2114,694.1543,848.2114,698.1543,852.2114,694.1543" style="stroke:#000000;stroke-width:1;"/><line style="stroke:#000000;stroke-width:1;" x1="529.8862" x2="854.2114" y1="694.1543" y2="694.1543"/><text fill="#000000" font-family="Verdana" font-size="13" lengthAdjust="spacing" textLength="306.3252" x="541.8862" y="689.4248">verifyChallenge(token, pubKey, challenge, sig)</text></g><g class="message" data-entity-1="part4" data-entity-2="part5" id="msg11"><polygon fill="#000000" points="1104.0635,719.9536,1114.0635,723.9536,1104.0635,727.9536,1108.0635,723.9536" style="stroke:#000000;stroke-width:1;"/><line style="stroke:#000000;stroke-width:1;" x1="860.2114" x2="1110.0635" y1="723.9536" y2="723.9536"/><text fill="#000000" font-family="Verdana" font-size="13" lengthAdjust="spacing" textLength="141.0005" x="917.6372" y="719.2241">read authorized_keys</text></g><g class="message" data-entity-1="part5" data-entity-2="part4" id="msg12"><polygon fill="#000000" points="871.2114,749.7529,861.2114,753.7529,871.2114,757.7529,867.2114,753.7529" style="stroke:#000000;stroke-width:1;"/><line style="stroke:#000000;stroke-width:1;" x1="865.2114" x2="1115.0635" y1="753.7529" y2="753.7529"/><text fill="#000000" font-family="Verdana" font-size="13" lengthAdjust="spacing" textLength="107.3833" x="934.4458" y="749.0234">[key1, key2, ...]</text></g><path d="M25,768.7529 L89.0493,768.7529 L89.0493,776.5522 L79.0493,786.5522 L25,786.5522 L25,768.7529" fill="#FFFFFF" style="stroke:#000000;stroke-width:1;"/><rect fill="none" height="517.7271" style="stroke:#000000;stroke-width:1;" width="1096.0635" x="25" y="768.7529"/><text fill="#000000" font-family="Verdana" font-size="13" font-weight="bold" lengthAdjust="spacing" textLength="19.0493" x="40" y="782.8228">alt</text><text fill="#000000" font-family="Verdana" font-size="11" font-weight="bold" lengthAdjust="spacing" textLength="179.7974" x="104.0493" y="781.812">[pubKey in authorized_keys]</text><g class="message" data-entity-1="part4" data-entity-2="part4" id="msg13"><line style="stroke:#000000;stroke-width:1;" x1="860.2114" x2="902.2114" y1="824.1509" y2="824.1509"/><line style="stroke:#000000;stroke-width:1;" x1="902.2114" x2="902.2114" y1="824.1509" y2="837.1509"/><line style="stroke:#000000;stroke-width:1;" x1="861.2114" x2="902.2114" y1="837.1509" y2="837.1509"/><polygon fill="#000000" points="871.2114,833.1509,861.2114,837.1509,871.2114,841.1509,867.2114,837.1509" style="stroke:#000000;stroke-width:1;"/><text fill="#000000" font-family="Verdana" font-size="13" lengthAdjust="spacing" textLength="147.8877" x="914.1936" y="803.6221">crypto.verify('sha256',</text><text fill="#000000" font-family="Verdana" font-size="13" lengthAdjust="spacing" textLength="232.7114" x="876.3521" y="819.4214">challengeBuffer, pubKey, sigBuffer)</text></g><path d="M35,852.1509 L99.0493,852.1509 L99.0493,859.9502 L89.0493,869.9502 L35,869.9502 L35,852.1509" fill="#FFFFFF" style="stroke:#000000;stroke-width:1;"/><rect fill="none" height="352.3618" style="stroke:#000000;stroke-width:1;" width="893.9004" x="35" y="852.1509"/><text fill="#000000" font-family="Verdana" font-size="13" font-weight="bold" lengthAdjust="spacing" textLength="19.0493" x="50" y="866.2207">alt</text><text fill="#000000" font-family="Verdana" font-size="11" font-weight="bold" lengthAdjust="spacing" textLength="105.4937" x="114.0493" y="865.21">[Signature valid]</text><g class="message" data-entity-1="part4" data-entity-2="part3" id="msg14"><polygon fill="#000000" points="540.8862,887.7495,530.8862,891.7495,540.8862,895.7495,536.8862,891.7495" style="stroke:#000000;stroke-width:1;"/><line style="stroke:#000000;stroke-width:1;" x1="534.8862" x2="859.2114" y1="891.7495" y2="891.7495"/><text fill="#000000" font-family="Verdana" font-size="13" lengthAdjust="spacing" textLength="26.6411" x="681.7283" y="887.02">true</text></g><g class="message" data-entity-1="part3" data-entity-2="part3" id="msg15"><line style="stroke:#000000;stroke-width:1;" x1="529.8862" x2="571.8862" y1="921.5488" y2="921.5488"/><line style="stroke:#000000;stroke-width:1;" x1="571.8862" x2="571.8862" y1="921.5488" y2="934.5488"/><line style="stroke:#000000;stroke-width:1;" x1="530.8862" x2="571.8862" y1="934.5488" y2="934.5488"/><polygon fill="#000000" points="540.8862,930.5488,530.8862,934.5488,540.8862,938.5488,536.8862,934.5488" style="stroke:#000000;stroke-width:1;"/><text fill="#000000" font-family="Verdana" font-size="13" lengthAdjust="spacing" textLength="175.7412" x="536.8862" y="916.8193">client.authenticated = true</text></g><g class="message" data-entity-1="part3" data-entity-2="part3" id="msg16"><line style="stroke:#000000;stroke-width:1;" x1="529.8862" x2="571.8862" y1="964.3481" y2="964.3481"/><line style="stroke:#000000;stroke-width:1;" x1="571.8862" x2="571.8862" y1="964.3481" y2="977.3481"/><line style="stroke:#000000;stroke-width:1;" x1="530.8862" x2="571.8862" y1="977.3481" y2="977.3481"/><polygon fill="#000000" points="540.8862,973.3481,530.8862,977.3481,540.8862,981.3481,536.8862,977.3481" style="stroke:#000000;stroke-width:1;"/><text fill="#000000" font-family="Verdana" font-size="13" lengthAdjust="spacing" textLength="214.5698" x="536.8862" y="959.6187">client.authMethod = 'device-key'</text></g><g class="message" data-entity-1="part3" data-entity-2="part3" id="msg17"><line style="stroke:#000000;stroke-width:1;" x1="529.8862" x2="571.8862" y1="1007.1475" y2="1007.1475"/><line style="stroke:#000000;stroke-width:1;" x1="571.8862" x2="571.8862" y1="1007.1475" y2="1020.1475"/><line style="stroke:#000000;stroke-width:1;" x1="530.8862" x2="571.8862" y1="1020.1475" y2="1020.1475"/><polygon fill="#000000" points="540.8862,1016.1475,530.8862,1020.1475,540.8862,1024.1475,536.8862,1020.1475" style="stroke:#000000;stroke-width:1;"/><text fill="#000000" font-family="Verdana" font-size="13" lengthAdjust="spacing" textLength="211.0024" x="536.8862" y="1002.418">client.challenge = '' (consumed)</text></g><g class="message" data-entity-1="part3" data-entity-2="part2" id="msg18"><polygon fill="#000000" points="160.2495,1045.9468,150.2495,1049.9468,160.2495,1053.9468,156.2495,1049.9468" style="stroke:#000000;stroke-width:1;"/><line style="stroke:#000000;stroke-width:1;" x1="154.2495" x2="528.8862" y1="1049.9468" y2="1049.9468"/><text fill="#000000" font-family="Verdana" font-size="13" lengthAdjust="spacing" textLength="121.8433" x="278.6462" y="1045.2173">DEVICE_AUTH_OK</text></g><path d="M45,1062.9468 L45,1087.9468 L253,1087.9468 L253,1072.9468 L243,1062.9468 L45,1062.9468" fill="#90EE90" style="stroke:#000000;stroke-width:1;"/><path d="M243,1062.9468 L243,1072.9468 L253,1072.9468 L243,1062.9468" fill="#90EE90" style="stroke:#000000;stroke-width:1;"/><text fill="#000000" font-family="Verdana" font-size="13" lengthAdjust="spacing" textLength="187.1226" x="51" y="1081.0166">authenticated via device key</text><line style="stroke:#000000;stroke-width:1;stroke-dasharray:2,2;" x1="35" x2="928.9004" y1="1094.7461" y2="1094.7461"/><text fill="#000000" font-family="Verdana" font-size="11" font-weight="bold" lengthAdjust="spacing" textLength="117.0898" x="40" y="1105.8052">[Signature invalid]</text><g class="message" data-entity-1="part4" data-entity-2="part3" id="msg19"><polygon fill="#000000" points="540.8862,1126.9141,530.8862,1130.9141,540.8862,1134.9141,536.8862,1130.9141" style="stroke:#000000;stroke-width:1;"/><line style="stroke:#000000;stroke-width:1;" x1="534.8862" x2="859.2114" y1="1130.9141" y2="1130.9141"/><text fill="#000000" font-family="Verdana" font-size="13" lengthAdjust="spacing" textLength="30.4624" x="679.8176" y="1126.1846">false</text></g><g class="message" data-entity-1="part3" data-entity-2="part2" id="msg20"><polygon fill="#000000" points="160.2495,1156.7134,150.2495,1160.7134,160.2495,1164.7134,156.2495,1160.7134" style="stroke:#000000;stroke-width:1;"/><line style="stroke:#000000;stroke-width:1;" x1="154.2495" x2="528.8862" y1="1160.7134" y2="1160.7134"/><text fill="#000000" font-family="Verdana" font-size="13" lengthAdjust="spacing" textLength="356.6367" x="161.2495" y="1155.9839">DEVICE_AUTH_FAILED { reason: "Invalid signature" }</text></g><path d="M65,1173.7134 L65,1198.7134 L233,1198.7134 L233,1183.7134 L223,1173.7134 L65,1173.7134" fill="#FFFFFF" style="stroke:#000000;stroke-width:1;"/><path d="M223,1173.7134 L223,1183.7134 L233,1183.7134 L223,1173.7134" fill="#FFFFFF" style="stroke:#000000;stroke-width:1;"/><text fill="#000000" font-family="Verdana" font-size="13" lengthAdjust="spacing" textLength="147.2402" x="71" y="1191.7832">fall back to token auth</text><line style="stroke:#000000;stroke-width:1;stroke-dasharray:2,2;" x1="25" x2="1121.0635" y1="1212.5127" y2="1212.5127"/><text fill="#000000" font-family="Verdana" font-size="11" font-weight="bold" lengthAdjust="spacing" textLength="209.7197" x="30" y="1223.5718">[pubKey NOT in authorized_keys]</text><g class="message" data-entity-1="part4" data-entity-2="part3" id="msg21"><polygon fill="#000000" points="540.8862,1244.6807,530.8862,1248.6807,540.8862,1252.6807,536.8862,1248.6807" style="stroke:#000000;stroke-width:1;"/><line style="stroke:#000000;stroke-width:1;" x1="534.8862" x2="859.2114" y1="1248.6807" y2="1248.6807"/><text fill="#000000" font-family="Verdana" font-size="13" lengthAdjust="spacing" textLength="30.4624" x="679.8176" y="1243.9512">false</text></g><g class="message" data-entity-1="part3" data-entity-2="part2" id="msg22"><polygon fill="#000000" points="160.2495,1274.48,150.2495,1278.48,160.2495,1282.48,156.2495,1278.48" style="stroke:#000000;stroke-width:1;"/><line style="stroke:#000000;stroke-width:1;" x1="154.2495" x2="528.8862" y1="1278.48" y2="1278.48"/><text fill="#000000" font-family="Verdana" font-size="13" lengthAdjust="spacing" textLength="356.6367" x="161.2495" y="1273.7505">DEVICE_AUTH_FAILED { reason: "Invalid signature" }</text></g><rect fill="#FFFFFF" height="3" style="stroke:#FFFFFF;stroke-width:1;" width="1185.897" x="5" y="1314.3796"/><line style="stroke:#000000;stroke-width:0.5;" x1="5" x2="1190.897" y1="1314.3796" y2="1314.3796"/><line style="stroke:#000000;stroke-width:0.5;" x1="5" x2="1190.897" y1="1317.3796" y2="1317.3796"/><rect fill="#FFFFFF" height="23.7993" style="stroke:#000000;stroke-width:1;" width="329.0596" x="433.4187" y="1303.48"/><text fill="#000000" font-family="Verdana" font-size="13" font-weight="bold" lengthAdjust="spacing" textLength="310.6162" x="439.4187" y="1320.5498">Always: Token IDENTIFY (for profile data)</text><g class="message" data-entity-1="part2" data-entity-2="part3" id="msg23"><polygon fill="#000000" points="517.8862,1355.0786,527.8862,1359.0786,517.8862,1363.0786,521.8862,1359.0786" style="stroke:#000000;stroke-width:1;"/><line style="stroke:#000000;stroke-width:1;" x1="149.2495" x2="523.8862" y1="1359.0786" y2="1359.0786"/><text fill="#000000" font-family="Verdana" font-size="13" lengthAdjust="spacing" textLength="282.8389" x="198.1484" y="1354.3491">IDENTIFY { playerToken, deviceId, name }</text></g><g class="message" data-entity-1="part3" data-entity-2="part2" id="msg24"><polygon fill="#000000" points="160.2495,1384.8779,150.2495,1388.8779,160.2495,1392.8779,156.2495,1388.8779" style="stroke:#000000;stroke-width:1;"/><line style="stroke:#000000;stroke-width:1;" x1="154.2495" x2="528.8862" y1="1388.8779" y2="1388.8779"/><text fill="#000000" font-family="Verdana" font-size="13" lengthAdjust="spacing" textLength="266.4937" x="206.321" y="1384.1484">PROFILE { profile, connectedDeviceIds }</text></g><line style="stroke:#000000;stroke-width:1;stroke-dasharray:2,2;" x1="15" x2="1180.897" y1="1397.8779" y2="1397.8779"/><text fill="#000000" font-family="Verdana" font-size="11" font-weight="bold" lengthAdjust="spacing" textLength="284.8398" x="20" y="1408.937">[No device keys (new device or not enrolled)]</text><rect fill="#FFFFFF" height="3" style="stroke:#FFFFFF;stroke-width:1;" width="1185.897" x="5" y="1433.1462"/><line style="stroke:#000000;stroke-width:0.5;" x1="5" x2="1190.897" y1="1433.1462" y2="1433.1462"/><line style="stroke:#000000;stroke-width:0.5;" x1="5" x2="1190.897" y1="1436.1462" y2="1436.1462"/><rect fill="#FFFFFF" height="23.7993" style="stroke:#000000;stroke-width:1;" width="312.3398" x="441.7786" y="1422.2466"/><text fill="#000000" font-family="Verdana" font-size="13" font-weight="bold" lengthAdjust="spacing" textLength="293.8965" x="447.7786" y="1439.3164">Token-only path (backward compatible)</text><g class="message" data-entity-1="part2" data-entity-2="part3" id="msg25"><polygon fill="#000000" points="517.8862,1473.8452,527.8862,1477.8452,517.8862,1481.8452,521.8862,1477.8452" style="stroke:#000000;stroke-width:1;"/><line style="stroke:#000000;stroke-width:1;" x1="149.2495" x2="523.8862" y1="1477.8452" y2="1477.8452"/><text fill="#000000" font-family="Verdana" font-size="13" lengthAdjust="spacing" textLength="282.8389" x="198.1484" y="1473.1157">IDENTIFY { playerToken, deviceId, name }</text></g><g class="message" data-entity-1="part3" data-entity-2="part3" id="msg26"><line style="stroke:#000000;stroke-width:1;" x1="529.8862" x2="571.8862" y1="1507.6445" y2="1507.6445"/><line style="stroke:#000000;stroke-width:1;" x1="571.8862" x2="571.8862" y1="1507.6445" y2="1520.6445"/><line style="stroke:#000000;stroke-width:1;" x1="530.8862" x2="571.8862" y1="1520.6445" y2="1520.6445"/><polygon fill="#000000" points="540.8862,1516.6445,530.8862,1520.6445,540.8862,1524.6445,536.8862,1520.6445" style="stroke:#000000;stroke-width:1;"/><text fill="#000000" font-family="Verdana" font-size="13" lengthAdjust="spacing" textLength="180.5908" x="536.8862" y="1502.915">client.authMethod = 'token'</text></g><g class="message" data-entity-1="part3" data-entity-2="part2" id="msg27"><polygon fill="#000000" points="160.2495,1546.4438,150.2495,1550.4438,160.2495,1554.4438,156.2495,1550.4438" style="stroke:#000000;stroke-width:1;"/><line style="stroke:#000000;stroke-width:1;" x1="154.2495" x2="528.8862" y1="1550.4438" y2="1550.4438"/><text fill="#000000" font-family="Verdana" font-size="13" lengthAdjust="spacing" textLength="126.7119" x="276.2119" y="1545.7144">PROFILE { profile }</text></g><path d="M31,1565.4438 L95.0493,1565.4438 L95.0493,1573.2432 L85.0493,1583.2432 L31,1583.2432 L31,1565.4438" fill="#FFFFFF" style="stroke:#000000;stroke-width:1;"/><rect fill="none" height="136.3652" style="stroke:#000000;stroke-width:1;" width="344.7944" x="31" y="1565.4438"/><text fill="#000000" font-family="Verdana" font-size="13" font-weight="bold" lengthAdjust="spacing" textLength="19.0493" x="46" y="1579.5137">alt</text><text fill="#000000" font-family="Verdana" font-size="11" font-weight="bold" lengthAdjust="spacing" textLength="260.7451" x="110.0493" y="1578.5029">[profileCommitted &amp;&amp; sshKeysGenerated]</text><path d="M41,1588.2432 L41,1629.2432 L257,1629.2432 L257,1598.2432 L247,1588.2432 L41,1588.2432" fill="#FFFFFF" style="stroke:#000000;stroke-width:1;"/><path d="M247,1588.2432 L247,1598.2432 L257,1598.2432 L247,1588.2432" fill="#FFFFFF" style="stroke:#000000;stroke-width:1;"/><text fill="#000000" font-family="Verdana" font-size="13" lengthAdjust="spacing" textLength="159.6055" x="47" y="1606.313">show DeviceEnrollDialog</text><text fill="#000000" font-family="Verdana" font-size="13" lengthAdjust="spacing" textLength="195.2285" x="47" y="1622.1123">(&#8594; enrollment flow from T10)</text><line style="stroke:#000000;stroke-width:1;stroke-dasharray:2,2;" x1="31" x2="375.7944" y1="1635.8418" y2="1635.8418"/><text fill="#000000" font-family="Verdana" font-size="11" font-weight="bold" lengthAdjust="spacing" textLength="124.1313" x="36" y="1646.9009">[!profileCommitted]</text><path d="M44,1655.2104 L44,1696.2104 L252,1696.2104 L252,1665.2104 L242,1655.2104 L44,1655.2104" fill="#FFFFFF" style="stroke:#000000;stroke-width:1;"/><path d="M242,1655.2104 L242,1665.2104 L252,1665.2104 L242,1655.2104" fill="#FFFFFF" style="stroke:#000000;stroke-width:1;"/><text fill="#000000" font-family="Verdana" font-size="13" lengthAdjust="spacing" textLength="150.6172" x="50" y="1673.2803">show ProfileEditor gate</text><text fill="#000000" font-family="Verdana" font-size="13" lengthAdjust="spacing" textLength="187.5034" x="50" y="1689.0796">(&#8594; commit flow from T8/T9)</text><rect fill="#FFFFFF" height="3" style="stroke:#FFFFFF;stroke-width:1;" width="1185.897" x="5" y="1736.7087"/><line style="stroke:#000000;stroke-width:0.5;" x1="5" x2="1190.897" y1="1736.7087" y2="1736.7087"/><line style="stroke:#000000;stroke-width:0.5;" x1="5" x2="1190.897" y1="1739.7087" y2="1739.7087"/><rect fill="#FFFFFF" height="23.7993" style="stroke:#000000;stroke-width:1;" width="148.0371" x="523.9299" y="1725.8091"/><text fill="#000000" font-family="Verdana" font-size="13" font-weight="bold" lengthAdjust="spacing" textLength="129.5938" x="529.9299" y="1742.8789">Replay Protection</text><path d="M367,1764.6084 L367,1852.6084 L691,1852.6084 L691,1774.6084 L681,1764.6084 L367,1764.6084" fill="#FFCCCC" style="stroke:#000000;stroke-width:1;"/><path d="M681,1764.6084 L681,1774.6084 L691,1774.6084 L681,1764.6084" fill="#FFCCCC" style="stroke:#000000;stroke-width:1;"/><text fill="#000000" font-family="Verdana" font-size="13" lengthAdjust="spacing" textLength="156.0698" x="373" y="1782.6782">Challenge is single-use:</text><text fill="#000000" font-family="Verdana" font-size="13" lengthAdjust="spacing" textLength="262.0122" x="373" y="1798.4775">&#8226; Stored in WebSocketClient on connect</text><text fill="#000000" font-family="Verdana" font-size="13" lengthAdjust="spacing" textLength="303.8242" x="373" y="1814.2769">&#8226; Cleared after DEVICE_AUTH (success or fail)</text><text fill="#000000" font-family="Verdana" font-size="13" lengthAdjust="spacing" textLength="227.4937" x="373" y="1830.0762">&#8226; New connection = new challenge</text><text fill="#000000" font-family="Verdana" font-size="13" lengthAdjust="spacing" textLength="238.4878" x="373" y="1845.8755">&#8226; Replay of old challenge &#8594; rejected</text><rect fill="#FFFFFF" height="3" style="stroke:#FFFFFF;stroke-width:1;" width="1185.897" x="5" y="1879.5046"/><line style="stroke:#000000;stroke-width:0.5;" x1="5" x2="1190.897" y1="1879.5046" y2="1879.5046"/><line style="stroke:#000000;stroke-width:0.5;" x1="5" x2="1190.897" y1="1882.5046" y2="1882.5046"/><rect fill="#FFFFFF" height="23.7993" style="stroke:#000000;stroke-width:1;" width="169.8794" x="513.0088" y="1868.605"/><text fill="#000000" font-family="Verdana" font-size="13" font-weight="bold" lengthAdjust="spacing" textLength="151.436" x="519.0088" y="1885.6748">Auth State Summary</text><path d="M380,1907.4043 L380,1984.4043 L678,1984.4043 L678,1917.4043 L668,1907.4043 L380,1907.4043" fill="#FFFFFF" style="stroke:#000000;stroke-width:1;"/><path d="M668,1907.4043 L668,1917.4043 L678,1917.4043 L668,1907.4043" fill="#FFFFFF" style="stroke:#000000;stroke-width:1;"/><text fill="#000000" font-family="Verdana" font-size="13" lengthAdjust="spacing" textLength="77.4224" x="390.5703" y="1927.4741">authMethod</text><text fill="#000000" font-family="Verdana" font-size="13" lengthAdjust="spacing" textLength="54.6279" x="477.1333" y="1927.4741">Meaning</text><text fill="#000000" font-family="Verdana" font-size="13" lengthAdjust="spacing" textLength="32.0874" x="390.5703" y="1943.2734">none</text><text fill="#000000" font-family="Verdana" font-size="13" lengthAdjust="spacing" textLength="123.646" x="477.1333" y="1943.2734">No auth attempted</text><text fill="#000000" font-family="Verdana" font-size="13" lengthAdjust="spacing" textLength="36.6768" x="390.5703" y="1959.0728">token</text><text fill="#000000" font-family="Verdana" font-size="13" lengthAdjust="spacing" textLength="152.3945" x="477.1333" y="1959.0728">IDENTIFY only (legacy)</text><text fill="#000000" font-family="Verdana" font-size="13" lengthAdjust="spacing" textLength="70.6558" x="390.5703" y="1974.8721">device-key</text><text fill="#000000" font-family="Verdana" font-size="13" lengthAdjust="spacing" textLength="181.8667" x="477.1333" y="1974.8721">Challenge-response verified</text><line style="stroke:#000000;stroke-width:1;" x1="386" x2="663.5703" y1="1914.4043" y2="1914.4043"/><line style="stroke:#000000;stroke-width:1;" x1="386" x2="663.5703" y1="1930.2036" y2="1930.2036"/><line style="stroke:#000000;stroke-width:1;" x1="386" x2="663.5703" y1="1946.0029" y2="1946.0029"/><line style="stroke:#000000;stroke-width:1;" x1="386" x2="663.5703" y1="1961.8022" y2="1961.8022"/><line style="stroke:#000000;stroke-width:1;" x1="386" x2="663.5703" y1="1977.6016" y2="1977.6016"/><line style="stroke:#000000;stroke-width:1;" x1="386" x2="386" y1="1914.4043" y2="1977.6016"/><line style="stroke:#000000;stroke-width:1;" x1="472.563" x2="472.563" y1="1914.4043" y2="1977.6016"/><line style="stroke:#000000;stroke-width:1;" x1="663.5703" x2="663.5703" y1="1914.4043" y2="1977.6016"/><?plantuml-src fLRRRjj647tdLqmS8A80IQxT9aY5Ee1CoR6Ws35CfKLH5yQA74bRaxlixiggQXl8Kp-Ww1Vqq_8bdTqbHSgvz25-iSqzEvSpPsRdYLbYZb1aZ8j0tt1HCCLoqFZx2aM2PwWrM-0Wumi12Gg3ge5Ig0ifT8Kwnaok1qh9DHYrmY0mt6G8SNmAqP9b6Oe5TY_BEp1OaMjXUC8CbmB2wS5XEmXOOgI2lNSQrHum3Uy2SaKWNZ1XOE-OZDFHbGWlsVgOYoZZPAFjeD4kD4Prwv3Q_T4psiFYNPZrDC6DfdDtF0bIPjYCKOHxzg_z5G7q_fNumSWR5A_sUrelzxsb-3G8ZexW4irA2IuMO8t1X_V_m4WeIGcdCCHRdY0S7GL11DrN44CVVi9PB9CRD9188J0nGLmT9HLFS0I9sXH6zXGJgSoFDmPr-ErXkxV4FyAsln7HZJLcYQGAta7Yk1YddOQLXo0GqY18Oi31aoKcDv39X6KnCKrLWxaabXHRpxZefYxSRg7uBJD8l515CWEdbAq_WXlY2a8iysi7054LoiNe33xyzJSCHvSGQgDu0KjaAT7N0KleY-_8I29JtBbLfgbNCn9BZ-U5L8OSXwtY9j4lMnswepfm6GzsRrKfEcA8BQAbj5wVDIzeKZ2ZEZMOBLtQa_1A0BJ8IHmFkXUJA3xetXvSFoVlb6_daRVsOxkOHeswpOnauTOTQRf4s_eEHp-Eez7ruDtq5EwiJy_gnMgMyOIoxk-MfbZDw6F70X_vwPUCNea7wy39OK8EgCvyljd2GYVQJcMeJgHZ3Tf49YuqQj4-jJDBWL5RIiN_nFJQbjhQfiFI-Y_qwS1nSjY1Ng_tg_Lj1UBj0nUVk5_wcDIrza66BRraXyzVj5n-DSMh-TnMl0gPulIV79FUNRmjvYtBUEg-LwcG6pTz_BUwirntz5WzTQWxZ_uFUeQKZSMroiwWd5gVmJTxjzM2a9fRhtBV8rjyj2k2wxUJyhJPfa_VyCNIl5Q8Wk2x8TzorcX5JmbcDArgJhZu92jpHh0lnN8o6ByP3McIa12q57tO6tjBTVFiqKJvE5vdEoD5qcWn4fpcNDW-Ef7QC5sGfKxEtqw_g9NTSByksD8zpUb1jcORtOUfYsyy79rFnoS_GqW340ebvvmUAplossvSDxfs2xsp3-K6rTHtbQ-3dRY2vUYyRMEzk7nxGX7QAzvqfvhsc0xBUzhEPyVBkToThmBNrGSAZhY6UkBwP5m8NIco3HJCB26qxA-PIibDJb_uBCElJkIptU1AtFfYll2m7Gx-GoJpd1khuMVFW1vH--g-He7AwZhuM5DwIOk4fye_fqFEChcW5zq-CfwFd4A3EQqTC5SoX-d1D-rAQayUk_sSYmkF6wNShXuBYgPqaRYRJVClzwVVjqjDELsvrzzIQQqOAgvTPIpfjPyOdfwSHFHZ2x4T4LoJJiKYmoxj5tqw-l3-Nx1Zd-YXpjYk27x10R9QxGeU6cN8B9RDQINRULP2lKeIMiYiSEQCP-tonZb9ghJXWWIhiUPJQK5bCd8ECaiRUuIbG-5lJhqsSyUZIz-kSHGuiGRnAi-PsZpEdqpVGqC-zt26pArBz-v8I87qYrh0We1HhVB2oiGV-sboNslNQJxCSC6IJRi4rTEP_gcNpMf1zSyYTpQtqVy7?></g></svg>