<svg xmlns="http://www.w3.org/2000/svg" xmlns:xlink="http://www.w3.org/1999/xlink" contentStyleType="text/css" data-diagram-type="DESCRIPTION" height="371px" preserveAspectRatio="none" style="width:776px;height:371px;background:#FFFFFF;" version="1.1" viewBox="0 0 776 371" width="776px" zoomAndPan="magnify"><?plantuml 1.2026.6?><defs/><g><g class="title" data-source-line="2"><text fill="#000000" font-family="Verdana" font-size="22" font-weight="700" lengthAdjust="spacing" textLength="663.6201" x="55.3092" y="35.4209">BUG1 &#8212; Chain Excludes Self-Node + Non-Chain Types</text></g><!--cluster T-chain-excludes-self-and-nonchain--><g class="cluster" data-qualified-name="T-chain-excludes-self-and-nonchain" data-source-line="6" id="ent0001"><path d="M13.5,235.2694 L295.2041,235.2694 A3.75,3.75 0 0 1 297.7041,237.7694 L304.7041,257.5663 L694.44,257.5663 A2.5,2.5 0 0 1 696.94,260.0663 L696.94,353.7694 A2.5,2.5 0 0 1 694.44,356.2694 L13.5,356.2694 A2.5,2.5 0 0 1 11,353.7694 L11,237.7694 A2.5,2.5 0 0 1 13.5,235.2694" fill="#FFFFFF" style="stroke:#000000;stroke-width:1;"/><line style="stroke:#000000;stroke-width:1;" x1="11" x2="304.7041" y1="257.5663" y2="257.5663"/><text fill="#000000" font-family="Verdana" font-size="14" font-weight="700" lengthAdjust="spacing" textLength="280.7041" x="15" y="250.2645">T-chain-excludes-self-and-nonchain</text></g><!--entity UC--><g class="entity" data-qualified-name="T-chain-excludes-self-and-nonchain.UC" data-source-line="7" id="ent0002"><ellipse cx="161.5918" cy="305.2654" fill="#FFFFFF" rx="134.5918" ry="34.546" style="stroke:#000000;stroke-width:1;"/><text fill="#000000" font-family="Verdana" font-size="14" lengthAdjust="spacing" textLength="203.9434" x="59.6201" y="298.1229">detailView.chainExcludesSelf</text><text fill="#000000" font-family="Verdana" font-size="14" lengthAdjust="spacing" textLength="91.3145" x="115.9346" y="314.4198">uc:8dc64273</text><text fill="#000000" font-family="Verdana" font-size="14" lengthAdjust="spacing" textLength="104.5283" x="109.3276" y="330.7166">task:18ee26a2</text></g><!--entity M--><g class="entity" data-qualified-name="T-chain-excludes-self-and-nonchain.M" data-source-line="8" id="ent0003"><rect fill="#FFFFFF" height="68.8906" rx="2.5" ry="2.5" style="stroke:#000000;stroke-width:1;" width="244.4512" x="436.49" y="270.8194"/><text fill="#000000" font-family="Verdana" font-size="14" lengthAdjust="spacing" textLength="224.4512" x="446.49" y="293.8145">RbDetailView.chainExcludesSelf</text><text fill="#000000" font-family="Verdana" font-size="14" lengthAdjust="spacing" textLength="101.2676" x="446.49" y="310.1114">class:f2f84ce3</text><text fill="#000000" font-family="Verdana" font-size="14" lengthAdjust="spacing" textLength="128.7891" x="446.49" y="326.4082">method:3542dcb3</text></g><g class="entity" data-qualified-name="GMN5" data-source-line="13" id="ent0006"><path d="M356.18,57.6094 L356.18,218.9375 A0,0 0 0 0 356.18,218.9375 L554.71,218.9375 L558.71,270.3694 L562.71,218.9375 L761.2386,218.9375 A0,0 0 0 0 761.2386,218.9375 L761.2386,67.6094 L751.2386,57.6094 L356.18,57.6094 A0,0 0 0 0 356.18,57.6094" fill="#FFFFFF" style="stroke:#000000;stroke-width:1;"/><path d="M751.2386,57.6094 L751.2386,67.6094 L761.2386,67.6094 L751.2386,57.6094" fill="#FFFFFF" style="stroke:#000000;stroke-width:1;"/><text fill="#000000" font-family="Verdana" font-size="13" lengthAdjust="spacing" textLength="179.8926" x="362.18" y="74.6763">Filter rules in chain section:</text><text fill="#000000" font-family="Verdana" font-size="13" lengthAdjust="spacing" textLength="351.7617" x="362.18" y="89.8091">(a) EXCLUDE self-node (uuid === current detail uuid)</text><text fill="#000000" font-family="Verdana" font-size="13" lengthAdjust="spacing" textLength="384.0586" x="362.18" y="104.9419">(b) EXCLUDE non-chain types: Task, Sprint, TraceLink, Skill</text><text fill="#000000" font-family="Verdana" font-size="13" lengthAdjust="spacing" textLength="368.1323" x="362.18" y="120.0747">(c) ALLOW ONLY: Requirement, UseCase, Class, Method,</text><text fill="#000000" font-family="Verdana" font-size="13" lengthAdjust="spacing" textLength="241.2808" x="378.7093" y="135.2075">Implementation, Test (locked 6-step)</text><text fill="#000000" font-family="Verdana" font-size="13" lengthAdjust="spacing" textLength="4.1323" x="362.18" y="150.3403">&#160;</text><text fill="#000000" font-family="Verdana" font-size="13" lengthAdjust="spacing" textLength="335.7529" x="362.18" y="165.4731">RED Test: open Task detail &#8594; assert Task does NOT</text><text fill="#000000" font-family="Verdana" font-size="13" lengthAdjust="spacing" textLength="289.3071" x="362.18" y="180.606">appear in its own Traceability Chain section;</text><text fill="#000000" font-family="Verdana" font-size="13" lengthAdjust="spacing" textLength="354.8657" x="362.18" y="195.7388">assert only chain-type nodes appear (currently FAILS).</text><text fill="#000000" font-family="Verdana" font-size="13" lengthAdjust="spacing" textLength="109.478" x="362.18" y="210.8716">Sprint: 64af2638</text></g><!--link UC to M--><g class="link" data-entity-1="ent0002" data-entity-2="ent0003" data-link-type="dependency" data-source-line="9" id="lnk4"><path d="M296.64,305.2694 C341.85,305.2694 387.02,305.2694 431.2,305.2694" fill="none" id="UC-to-M" style="stroke:#000000;stroke-width:1;"/><polygon fill="#000000" points="436.2,305.2694,427.2,301.2694,431.2,305.2694,427.2,309.2694,436.2,305.2694" style="stroke:#000000;stroke-width:1;stroke-linejoin:miter;stroke-miterlimit:10;"/></g><?plantuml-src VPBTYjim48NlzHJJN2KqNbWdJODB2bidMnQy2UIdFx0tYZJPY2YIQutP3QNGgpv0wHFkatHa9_IklX8pSuxcVF8hskCHeRJIE466BCA7pSThUFdv1_8z5s7sh6ojCS0AxIwPUutm6kRU9MrxVIen265nHq0UAlEu9z2cGaN6Eo5AgGxo4Q6pJbGK97ZsIqBqaqudphkcrO7l0g0Eg6HWWKQInduo-7JLj2-Bn3qUNAsoiLQZOVfsyE18XaDsFKPCHpBjW0omoTcAxtK4dULs-byhPMK8sIxTZOSAsUs8jFSw6xmPfbfj1utVFTjjSaYIztpy8OJpXB3rHFx8dLjZ2IkeQikS64fp2OIMGSO3NTc3sPUys4ndqEHsaMEthes6oMG2ggwgk6kR6MAz5sNRVpAcr184YiWpM7FeFgpAoZZgmxgI2WlZOkbWh8rgrOERebXyXiMy-9h14h_L_317ZFERW3bZxaCUq_VXlWdTPrdyxewbRGPbJC3k60Ywrgi3QXWbWR3i2PvTpgPDBmDVecjMkcHu-VMRmGMiw5psp6Q-MCTtAKkKLGHbA81_SktsSckieTFvlplJUnVdMnllxAb5cqG441c6YrdtZ917Rc_kYbNlYeKjd0n6GxbBHuEnGASXFftu2m00?></g></svg>