<svg xmlns="http://www.w3.org/2000/svg" xmlns:xlink="http://www.w3.org/1999/xlink" contentStyleType="text/css" data-diagram-type="CLASS" height="723px" preserveAspectRatio="none" style="width:1013px;height:723px;background:#FFFFFF;" version="1.1" viewBox="0 0 1013 723" width="1013px" zoomAndPan="magnify"><?plantuml 1.2026.6?><defs/><g><g class="title" data-source-line="2"><text fill="#000000" font-family="Verdana" font-size="22" font-weight="700" lengthAdjust="spacing" textLength="789.54" x="110.9637" y="35.4209">R20.4 &#8212; Bug + ChangeRequest OOP Extensions of Requirement</text></g><!--cluster T-bug-changerequest-oop-extensions--><g class="cluster" data-qualified-name="T-bug-changerequest-oop-extensions" data-source-line="6" id="ent0001"><path d="M13.5,57.6094 L310.3936,57.6094 A3.75,3.75 0 0 1 312.8936,60.1094 L319.8936,79.9063 L790.86,79.9063 A2.5,2.5 0 0 1 793.36,82.4063 L793.36,180.1094 A2.5,2.5 0 0 1 790.86,182.6094 L13.5,182.6094 A2.5,2.5 0 0 1 11,180.1094 L11,60.1094 A2.5,2.5 0 0 1 13.5,57.6094" fill="#FFFFFF" style="stroke:#000000;stroke-width:1;"/><line style="stroke:#000000;stroke-width:1;" x1="11" x2="319.8936" y1="79.9063" y2="79.9063"/><text fill="#000000" font-family="Verdana" font-size="14" font-weight="700" lengthAdjust="spacing" textLength="295.8936" x="15" y="72.6045">T-bug-changerequest-oop-extensions</text></g><!--cluster Class Hierarchy--><g class="cluster" data-qualified-name="Class Hierarchy" data-source-line="12" id="ent0005"><path d="M21.2,439.6094 L144.9188,439.6094 A3.75,3.75 0 0 1 147.4188,442.1094 L154.4188,461.9063 L786.9,461.9063 A2.5,2.5 0 0 1 789.4,464.4063 L789.4,706.1094 A2.5,2.5 0 0 1 786.9,708.6094 L21.2,708.6094 A2.5,2.5 0 0 1 18.7,706.1094 L18.7,442.1094 A2.5,2.5 0 0 1 21.2,439.6094" fill="#FFFFFF" style="stroke:#000000;stroke-width:1;"/><line style="stroke:#000000;stroke-width:1;" x1="18.7" x2="154.4188" y1="461.9063" y2="461.9063"/><text fill="#000000" font-family="Verdana" font-size="14" font-weight="700" lengthAdjust="spacing" textLength="122.7188" x="22.7" y="454.6045">Class Hierarchy</text></g><!--class UC--><g class="entity" data-qualified-name="T-bug-changerequest-oop-extensions.UC" data-source-line="7" id="ent0002"><rect fill="#FFFFFF" height="74.8906" rx="2.5" ry="2.5" style="stroke:#000000;stroke-width:1;" width="205.6455" x="27" y="92.1594"/><ellipse cx="40" cy="121.6047" fill="#FFFFFF" rx="9" ry="9" style="stroke:#000000;stroke-width:1;"/><path d="M42.9688,127.2453 Q42.3906,127.5422 41.75,127.6828 Q41.1094,127.8391 40.4063,127.8391 Q37.9063,127.8391 36.5781,126.1984 Q35.2656,124.5422 35.2656,121.4172 Q35.2656,118.2922 36.5781,116.6359 Q37.9063,114.9797 40.4063,114.9797 Q41.1094,114.9797 41.75,115.1359 Q42.4063,115.2922 42.9688,115.5891 L42.9688,118.3078 Q42.3438,117.7297 41.75,117.4641 Q41.1563,117.1828 40.5313,117.1828 Q39.1875,117.1828 38.5,118.2609 Q37.8125,119.3234 37.8125,121.4172 Q37.8125,123.5109 38.5,124.5891 Q39.1875,125.6516 40.5313,125.6516 Q41.1563,125.6516 41.75,125.3859 Q42.3438,125.1047 42.9688,124.5266 L42.9688,127.2453 Z " fill="#000000"/><text fill="#000000" font-family="Verdana" font-size="14" lengthAdjust="spacing" textLength="177.6455" x="52" y="110.1545">requirement.classifyType</text><text fill="#000000" font-family="Verdana" font-size="14" lengthAdjust="spacing" textLength="92.2305" x="94.7075" y="126.4514">uc:64be6334</text><text fill="#000000" font-family="Verdana" font-size="14" lengthAdjust="spacing" textLength="104.2139" x="88.7158" y="142.7482">task:b1c93799</text><line style="stroke:#000000;stroke-width:1;" x1="28" x2="231.6455" y1="151.05" y2="151.05"/><line style="stroke:#000000;stroke-width:1;" x1="28" x2="231.6455" y1="159.05" y2="159.05"/></g><!--class M--><g class="entity" data-qualified-name="T-bug-changerequest-oop-extensions.M" data-source-line="8" id="ent0003"><rect fill="#FFFFFF" height="74.8906" rx="2.5" ry="2.5" style="stroke:#000000;stroke-width:1;" width="209.6172" x="567.75" y="92.1594"/><ellipse cx="580.75" cy="121.6047" fill="#FFFFFF" rx="9" ry="9" style="stroke:#000000;stroke-width:1;"/><path d="M583.7188,127.2453 Q583.1406,127.5422 582.5,127.6828 Q581.8594,127.8391 581.1563,127.8391 Q578.6563,127.8391 577.3281,126.1984 Q576.0156,124.5422 576.0156,121.4172 Q576.0156,118.2922 577.3281,116.6359 Q578.6563,114.9797 581.1563,114.9797 Q581.8594,114.9797 582.5,115.1359 Q583.1563,115.2922 583.7188,115.5891 L583.7188,118.3078 Q583.0938,117.7297 582.5,117.4641 Q581.9063,117.1828 581.2813,117.1828 Q579.9375,117.1828 579.25,118.2609 Q578.5625,119.3234 578.5625,121.4172 Q578.5625,123.5109 579.25,124.5891 Q579.9375,125.6516 581.2813,125.6516 Q581.9063,125.6516 582.5,125.3859 Q583.0938,125.1047 583.7188,124.5266 L583.7188,127.2453 Z " fill="#000000"/><text fill="#000000" font-family="Verdana" font-size="14" lengthAdjust="spacing" textLength="181.6172" x="592.75" y="110.1545">Requirement.classifyType</text><text fill="#000000" font-family="Verdana" font-size="14" lengthAdjust="spacing" textLength="110.7285" x="628.1943" y="126.4514">class:14831116</text><text fill="#000000" font-family="Verdana" font-size="14" lengthAdjust="spacing" textLength="120.2305" x="623.4434" y="142.7482">method:fcf6dae1</text><line style="stroke:#000000;stroke-width:1;" x1="568.75" x2="776.3672" y1="151.05" y2="151.05"/><line style="stroke:#000000;stroke-width:1;" x1="568.75" x2="776.3672" y1="159.05" y2="159.05"/></g><!--class REQ--><g class="entity" data-qualified-name="Class Hierarchy.REQ" data-source-line="13" id="ent0006"><rect fill="#FFFFFF" height="74.8906" rx="2.5" ry="2.5" style="stroke:#000000;stroke-width:1;" width="190.251" x="34.7" y="564.1594"/><ellipse cx="47.7" cy="593.6047" fill="#FFFFFF" rx="9" ry="9" style="stroke:#000000;stroke-width:1;"/><path d="M50.6688,599.2453 Q50.0906,599.5422 49.45,599.6828 Q48.8094,599.8391 48.1063,599.8391 Q45.6063,599.8391 44.2781,598.1984 Q42.9656,596.5422 42.9656,593.4172 Q42.9656,590.2922 44.2781,588.6359 Q45.6063,586.9797 48.1063,586.9797 Q48.8094,586.9797 49.45,587.1359 Q50.1063,587.2922 50.6688,587.5891 L50.6688,590.3078 Q50.0438,589.7297 49.45,589.4641 Q48.8563,589.1828 48.2313,589.1828 Q46.8875,589.1828 46.2,590.2609 Q45.5125,591.3234 45.5125,593.4172 Q45.5125,595.5109 46.2,596.5891 Q46.8875,597.6516 48.2313,597.6516 Q48.8563,597.6516 49.45,597.3859 Q50.0438,597.1047 50.6688,596.5266 L50.6688,599.2453 Z " fill="#000000"/><text fill="#000000" font-family="Verdana" font-size="14" lengthAdjust="spacing" textLength="90.9727" x="95.3392" y="582.1545">Requirement</text><text fill="#000000" font-family="Verdana" font-size="14" lengthAdjust="spacing" textLength="110.7285" x="85.4612" y="598.4514">class:14831116</text><text fill="#000000" font-family="Verdana" font-size="14" lengthAdjust="spacing" textLength="162.251" x="59.7" y="614.7482">icon circle-check green</text><line style="stroke:#000000;stroke-width:1;" x1="35.7" x2="223.951" y1="623.05" y2="623.05"/><line style="stroke:#000000;stroke-width:1;" x1="35.7" x2="223.951" y1="631.05" y2="631.05"/></g><!--class BUG--><g class="entity" data-qualified-name="Class Hierarchy.BUG" data-source-line="14" id="ent0007"><rect fill="#FFFFFF" height="91.1875" rx="2.5" ry="2.5" style="stroke:#000000;stroke-width:1;" width="164.1035" x="590.5" y="475.0194"/><ellipse cx="603.5" cy="512.6131" fill="#FFFFFF" rx="9" ry="9" style="stroke:#000000;stroke-width:1;"/><path d="M606.4688,518.2538 Q605.8906,518.5506 605.25,518.6913 Q604.6094,518.8475 603.9063,518.8475 Q601.4063,518.8475 600.0781,517.2069 Q598.7656,515.5506 598.7656,512.4256 Q598.7656,509.3006 600.0781,507.6444 Q601.4063,505.9881 603.9063,505.9881 Q604.6094,505.9881 605.25,506.1444 Q605.9063,506.3006 606.4688,506.5975 L606.4688,509.3162 Q605.8438,508.7381 605.25,508.4725 Q604.6563,508.1912 604.0313,508.1912 Q602.6875,508.1912 602,509.2694 Q601.3125,510.3319 601.3125,512.4256 Q601.3125,514.5194 602,515.5975 Q602.6875,516.66 604.0313,516.66 Q604.6563,516.66 605.25,516.3944 Q605.8438,516.1131 606.4688,515.535 L606.4688,518.2538 Z " fill="#000000"/><text fill="#000000" font-family="Verdana" font-size="14" lengthAdjust="spacing" textLength="27.3643" x="669.8696" y="493.0145">Bug</text><text fill="#000000" font-family="Verdana" font-size="14" lengthAdjust="spacing" textLength="110.708" x="628.1978" y="509.3114">class:935b5733</text><text fill="#000000" font-family="Verdana" font-size="14" lengthAdjust="spacing" textLength="89.7627" x="638.6704" y="525.6082">ior:class:Bug</text><text fill="#000000" font-family="Verdana" font-size="14" lengthAdjust="spacing" textLength="136.1035" x="615.5" y="541.9051">icon circle-alert red</text><line style="stroke:#000000;stroke-width:1;" x1="591.5" x2="753.6035" y1="550.2069" y2="550.2069"/><line style="stroke:#000000;stroke-width:1;" x1="591.5" x2="753.6035" y1="558.2069" y2="558.2069"/></g><!--class CR--><g class="entity" data-qualified-name="Class Hierarchy.CR" data-source-line="15" id="ent0008"><rect fill="#FFFFFF" height="91.1875" rx="2.5" ry="2.5" style="stroke:#000000;stroke-width:1;" width="201.7012" x="571.7" y="601.0194"/><ellipse cx="584.7" cy="638.6131" fill="#FFFFFF" rx="9" ry="9" style="stroke:#000000;stroke-width:1;"/><path d="M587.6688,644.2538 Q587.0906,644.5506 586.45,644.6913 Q585.8094,644.8475 585.1063,644.8475 Q582.6063,644.8475 581.2781,643.2069 Q579.9656,641.5506 579.9656,638.4256 Q579.9656,635.3006 581.2781,633.6444 Q582.6063,631.9881 585.1063,631.9881 Q585.8094,631.9881 586.45,632.1444 Q587.1063,632.3006 587.6688,632.5975 L587.6688,635.3163 Q587.0438,634.7381 586.45,634.4725 Q585.8563,634.1913 585.2313,634.1913 Q583.8875,634.1913 583.2,635.2694 Q582.5125,636.3319 582.5125,638.4256 Q582.5125,640.5194 583.2,641.5975 Q583.8875,642.66 585.2313,642.66 Q585.8563,642.66 586.45,642.3944 Q587.0438,642.1131 587.6688,641.535 L587.6688,644.2538 Z " fill="#000000"/><text fill="#000000" font-family="Verdana" font-size="14" lengthAdjust="spacing" textLength="111.0977" x="628.0018" y="619.0145">ChangeRequest</text><text fill="#000000" font-family="Verdana" font-size="14" lengthAdjust="spacing" textLength="105.1914" x="630.9549" y="635.3114">class:b1cf768a</text><text fill="#000000" font-family="Verdana" font-size="14" lengthAdjust="spacing" textLength="173.4961" x="596.8025" y="651.6082">ior:class:ChangeRequest</text><text fill="#000000" font-family="Verdana" font-size="14" lengthAdjust="spacing" textLength="173.7012" x="596.7" y="667.9051">icon arrow-up-circle blue</text><line style="stroke:#000000;stroke-width:1;" x1="572.7" x2="772.4012" y1="676.2069" y2="676.2069"/><line style="stroke:#000000;stroke-width:1;" x1="572.7" x2="772.4012" y1="684.2069" y2="684.2069"/></g><g class="entity" data-qualified-name="GMN11" data-source-line="22" id="ent0012"><path d="M346.65,201.6794 L346.65,423.5388 L998.4674,423.5388 L998.4674,211.6794 L988.4674,201.6794 L346.65,201.6794" fill="#FFFFFF" style="stroke:#000000;stroke-width:1;"/><path d="M988.4674,201.6794 L988.4674,211.6794 L998.4674,211.6794 L988.4674,201.6794" fill="#FFFFFF" style="stroke:#000000;stroke-width:1;"/><text fill="#000000" font-family="Verdana" font-size="13" lengthAdjust="spacing" textLength="160.856" x="352.65" y="218.7463">Implementation (4 files):</text><text fill="#000000" font-family="Verdana" font-size="13" lengthAdjust="spacing" textLength="325.3364" x="352.65" y="233.8791">1. classes.ts: BugLoader + ChangeRequestLoader</text><text fill="#000000" font-family="Verdana" font-size="13" lengthAdjust="spacing" textLength="418.0503" x="365.047" y="249.0119">(clone RequirementLoader defaults: useCases[], tasks[], tests[])</text><text fill="#000000" font-family="Verdana" font-size="13" lengthAdjust="spacing" textLength="630.8174" x="352.65" y="264.1447">2. ClassRegistry: register('Bug', BugLoader) + register('ChangeRequest', ChangeRequestLoader)</text><text fill="#000000" font-family="Verdana" font-size="13" lengthAdjust="spacing" textLength="342.9385" x="352.65" y="279.2775">3. icons.ts: TRACE_ICONS['bug'] = Lucide circle-alert</text><text fill="#000000" font-family="Verdana" font-size="13" lengthAdjust="spacing" textLength="369.3701" x="410.5025" y="294.4103">TRACE_ICONS['changerequest'] = Lucide arrow-up-circle</text><text fill="#000000" font-family="Verdana" font-size="13" lengthAdjust="spacing" textLength="372.1948" x="352.65" y="309.5431">4. app.css: rb-object-item[type="bug"] { --type-bg: red }</text><text fill="#000000" font-family="Verdana" font-size="13" lengthAdjust="spacing" textLength="377.1587" x="398.1056" y="324.676">rb-object-item[type="changerequest"] { --type-bg: blue }</text><text fill="#000000" font-family="Verdana" font-size="13" lengthAdjust="spacing" textLength="539.9443" x="352.65" y="339.8088">5. SCENARIO_FWD + TRACE_FWD: Bug: ['useCases'], ChangeRequest: ['useCases']</text><text fill="#000000" font-family="Verdana" font-size="13" lengthAdjust="spacing" textLength="4.1323" x="352.65" y="354.9416">&#160;</text><text fill="#000000" font-family="Verdana" font-size="13" lengthAdjust="spacing" textLength="500.5635" x="352.65" y="370.0744">RED Test: create Bug unit (ior:class:Bug) -&gt; assert icon != Requirement icon</text><text fill="#000000" font-family="Verdana" font-size="13" lengthAdjust="spacing" textLength="295.6929" x="393.9732" y="385.2072">create ChangeRequest -&gt; assert distinct icon</text><text fill="#000000" font-family="Verdana" font-size="13" lengthAdjust="spacing" textLength="451.147" x="393.9732" y="400.34">both trace full 6-step chain (Req-&gt;UC-&gt;Class-&gt;Method-&gt;Impl-&gt;Test)</text><text fill="#000000" font-family="Verdana" font-size="13" lengthAdjust="spacing" textLength="109.478" x="352.65" y="415.4728">Sprint: 64af2638</text></g><!--link UC to M--><g class="link" data-entity-1="ent0002" data-entity-2="ent0003" data-link-type="dependency" data-source-line="9" id="lnk4"><path codeLine="9" d="M232.85,129.6094 C328.64,129.6094 466.27,129.6094 562.67,129.6094" fill="none" id="UC-to-M" style="stroke:#000000;stroke-width:1;"/><polygon fill="#000000" points="567.67,129.6094,558.67,125.6094,562.67,129.6094,558.67,133.6094,567.67,129.6094" style="stroke:#000000;stroke-width:1;stroke-linejoin:miter;stroke-miterlimit:10;"/></g><!--reverse link REQ to BUG--><g class="link" data-entity-1="ent0006" data-entity-2="ent0007" data-link-type="extension" data-source-line="17" id="lnk9"><path codeLine="17" d="M243.1215,584.7834 C346.3515,569.3234 492.22,547.4694 590.02,532.8194" fill="none" id="REQ-backto-BUG" style="stroke:#000000;stroke-width:1;"/><polygon fill="none" points="225.32,587.4494,244.0101,590.7172,242.2328,578.8496,225.32,587.4494" style="stroke:#000000;stroke-width:1;stroke-linejoin:miter;stroke-miterlimit:10;"/><text fill="#000000" font-family="Verdana" font-size="13" lengthAdjust="spacing" textLength="52.0508" x="263.65" y="571.4763">extends</text></g><!--reverse link REQ to CR--><g class="link" data-entity-1="ent0006" data-entity-2="ent0008" data-link-type="extension" data-source-line="18" id="lnk10"><path codeLine="18" d="M243.2579,610.9636 C340.1379,619.0336 472.29,630.0294 571.23,638.2594" fill="none" id="REQ-backto-CR" style="stroke:#000000;stroke-width:1;"/><polygon fill="none" points="225.32,609.4694,242.7598,616.9429,243.7559,604.9843,225.32,609.4694" style="stroke:#000000;stroke-width:1;stroke-linejoin:miter;stroke-miterlimit:10;"/><text fill="#000000" font-family="Verdana" font-size="13" lengthAdjust="spacing" textLength="52.0508" x="263.65" y="609.7463">extends</text></g><!--link CR to GMN11--><g class="link" data-entity-1="ent0008" data-entity-2="ent0012" data-link-type="association" data-source-line="22" id="lnk13"><path d="M571.31,658.3894 C480.63,662.5494 352.53,651.1994 289.65,566.1094 C246.58,507.8394 282.35,458.9994 346.4,420.2294" fill="none" id="CR-GMN11" style="stroke:#000000;stroke-width:1;stroke-dasharray:7,7;"/></g><?plantuml-src TPJTJjim5CVlynHdlMdHSBIIKcWqAa7eDYIWMsYrYr8XrpbfFT8aSnnj5KFQG-m9zoGxTc1DEfOhnyV-dQ__yIkzmZL2dd2PEbhg124yUEFsuFVFNt1MBk4r12kUBZ74hoKM6iRZZp3whZ4jP9OMaCLWB58H9TMEas2iGMUWv7Ab8Q9zeUcWu-HStFCbGcl25kMI2GjL5PHbMSxmBxG53mw0I7XHG4jjwQxTal5ciidnDYs5t-yjiEzvlTjKy-BUNtJ5m3iQ35h02vW6MqZuNuZzyxkzOw_RxVPlqpNgLHRviOZx4SUk9LqHQ1e0OqDQFjPI2IpzWqJ5bLXj6d7NNFxhHOei1I6LI90gWU8UbWenjTx2qQSjXJhmV7lW7IuEZpoFRcVAh_QikGxZ2IeD2YEBEfk-tw8QRNo6KiNYe_unhqDt3beyLohxnigSLNvWaPHeNGIXGouePdZxWp7Z4NomhOoAkY48Q_jKmpJJHCcqpjPqx6AT9xPKt8W5EZs8POB5da-shbjbW8Mh2zzeyZBZ4QfTPLQxT86-ZaYo5ElAVBeJOSpBn73A0WDEqDby7unugWLnQB57b0CNR7j3NCf2gurFLJKhL9qsnT3UtqQoHw5iZOsWwDWBGHg-vuAfR9NK93mDHdSNmVZwPjQcyMZFuGGkIo4ZR7IsogxsDIusPggEsEaUKNeky3nt1RKRr89bYoyqfqngNCyqpSL9Yu9epU61H6_-sM9fye_WiHd1YrSROUn2Z70ivT25cs1qVHfUZE_UVJwd4bQvqDessOTP-xb7xVbE6Pl6Ie7dCB4MeP2JjipRLQPIGwSnBdj0KspKH6DYbVtgf2uJkzV8yGdNV0ItZ8YwBbFnmaKIzmgquW8XBfC4-epqaGDLHvB2YSI6qu0DhSZOyCg-Esne9e4DJIP693UvaYdbrE_n-A3l7JiqFc16n_a3?></g></svg>